<?xml version="1.0" encoding="UTF-8" standalone="no"?>
<!-- Created with Inkscape (http://www.inkscape.org/) -->

<svg
   xmlns:dc="http://purl.org/dc/elements/1.1/"
   xmlns:cc="http://creativecommons.org/ns#"
   xmlns:rdf="http://www.w3.org/1999/02/22-rdf-syntax-ns#"
   xmlns:svg="http://www.w3.org/2000/svg"
   xmlns="http://www.w3.org/2000/svg"
   xmlns:sodipodi="http://sodipodi.sourceforge.net/DTD/sodipodi-0.dtd"
   xmlns:inkscape="http://www.inkscape.org/namespaces/inkscape"
   id="svg4286"
   version="1.1"
   inkscape:version="0.91 r13725"
   width="173.75"
   height="358.75"
   viewBox="0 0 173.75 358.75"
   sodipodi:docname="greeniron.svg"
   inkscape:export-filename="/home/gereon/tmp/games/Empire-Marches/encyclopediaimperialis/encyclopedia/orichalcum.png"
   inkscape:export-xdpi="200"
   inkscape:export-ydpi="200">
  <metadata
     id="metadata4292">
    <rdf:RDF>
      <cc:Work
         rdf:about="">
        <dc:format>image/svg+xml</dc:format>
        <dc:type
           rdf:resource="http://purl.org/dc/dcmitype/StillImage" />
        <dc:title></dc:title>
      </cc:Work>
    </rdf:RDF>
  </metadata>
  <defs
     id="defs4290" />
  <sodipodi:namedview
     pagecolor="#ffffff"
     bordercolor="#666666"
     borderopacity="1"
     objecttolerance="10"
     gridtolerance="10"
     guidetolerance="10"
     inkscape:pageopacity="0"
     inkscape:pageshadow="2"
     inkscape:window-width="640"
     inkscape:window-height="480"
     id="namedview4288"
     showgrid="false"
     inkscape:zoom="1.1205575"
     inkscape:cx="101.49457"
     inkscape:cy="258.32693"
     inkscape:current-layer="svg4286" />
  <path
     inkscape:connector-curvature="0"
     id="path4543"
     d="M 9.1240965,353.43342 C 7.7151679,351.89757 5.8958881,349.35852 5.0812528,347.79106 4.2666174,346.2236 3.0559395,341.75569 2.3908576,337.86234 0.30579245,325.65652 0.95359438,103.03893 3.2826065,31.412214 3.8407269,14.247716 4.4389365,8.4569035 5.7670142,7.3625533 7.0374045,6.3157383 29.71917,5.7450083 88.618685,5.2777978 l 81.102385,-0.6433311 0.68772,3.5944615 c 0.37825,1.9769538 0.86287,80.2918738 1.07696,174.0331618 l 0.38925,170.43868 -2.42641,1.76256 -2.42641,1.76255 -77.6682,0 -77.668195,0 -2.5616885,-2.79246 z"
     style="color:#000000;clip-rule:nonzero;display:inline;overflow:visible;visibility:visible;opacity:1;isolation:auto;mix-blend-mode:normal;color-interpolation:sRGB;color-interpolation-filters:linearRGB;solid-color:#000000;solid-opacity:1;fill:#aaa7a6;fill-opacity:1;fill-rule:nonzero;stroke-width:1;stroke-linecap:butt;stroke-linejoin:miter;stroke-miterlimit:4;stroke-dasharray:none;stroke-dashoffset:0;stroke-opacity:1;color-rendering:auto;image-rendering:auto;shape-rendering:auto;text-rendering:auto;enable-background:accumulate" />
  <path
     inkscape:connector-curvature="0"
     id="path4778"
     d="M 13.500139,356.37468 C 9.3773388,355.46195 5.1536976,349.59447 3.8288182,342.93928 1.5412307,331.44811 1.137807,308.86396 1.2710553,199.74975 1.4028909,91.789872 2.5885015,18.28319 4.2615572,14.341524 c 0.4726746,-1.113607 1.279692,-2.024739 1.7933537,-2.024739 0.51367,0 3.0863279,4.30098 5.7170101,9.557732 6.026742,12.042912 10.060533,15.320911 17.610245,14.31069 4.865412,-0.651036 5.208896,-0.529576 4.517396,1.597406 -1.059615,3.25922 0.319298,6.688179 3.026919,7.527133 1.604603,0.497186 3.902383,-0.558968 7.530542,-3.461352 4.128669,-3.30277 5.864869,-4.019178 8.296476,-3.42338 1.860451,0.455852 3.07515,1.56201 3.07515,2.800371 0,2.592138 3.294269,5.381289 4.67578,3.958833 0.560934,-0.57756 1.209531,-2.091403 1.441336,-3.364096 0.777901,-4.271036 11.660072,-3.153239 11.660072,1.197702 0,2.785873 2.362384,1.914835 2.463852,-0.908454 0.05148,-1.431779 0.362559,-1.952426 0.691338,-1.156993 0.826929,2.000674 2.76707,1.807947 5.423209,-0.538724 2.887964,-2.55149 16.345144,-2.403355 20.184854,0.222193 3.23654,2.213112 6.1341,2.23639 9.51087,0.07641 1.64708,-1.053573 3.25932,-1.310494 4.29655,-0.68468 0.98924,0.596865 2.51171,0.482556 3.76711,-0.282841 1.55271,-0.946641 2.82759,-0.932261 4.84664,0.05467 1.50684,0.73656 5.40629,1.23222 8.66545,1.101467 4.04916,-0.162446 6.35769,0.302622 7.28974,1.468558 1.12115,1.402483 1.592,0.88747 2.64434,-2.892484 2.29311,-8.236622 18.51735,-29.474144 22.51655,-29.474144 1.91487,0 2.1475,10.873154 2.35706,110.173021 0.11248,53.27719 0.4198,97.53219 0.68301,98.34446 0.26323,0.81226 0.81828,15.79465 1.23349,33.29418 0.41518,17.49954 1.22193,45.21032 1.79273,61.57952 1.26565,36.29424 0.72745,39.02863 -8.13747,41.34407 -4.43467,1.15828 -145.556105,2.69462 -150.335021,1.63663 z M 132.86313,197.43577 c 0,-0.63635 -0.53331,-1.157 -1.18514,-1.157 -0.65184,0 -1.18515,0.52065 -1.18515,1.157 0,0.63634 0.53331,1.15699 1.18515,1.15699 0.65183,0 1.18514,-0.52065 1.18514,-1.15699 z M 87.235015,126.85916 c 0.402855,-0.63635 -0.09898,-1.157 -1.115203,-1.157 -1.01621,0 -1.847662,0.52065 -1.847662,1.157 0,0.63634 0.501839,1.15699 1.115204,1.15699 0.613364,0 1.444806,-0.52065 1.847661,-1.15699 z m 2.962863,-15.55114 c 0,-1.84266 -2.15028,-3.56121 -3.188126,-2.54802 -0.974948,0.95179 0.546968,4.21523 1.965788,4.21523 0.672289,0 1.222338,-0.75025 1.222338,-1.66721 z m -7.754057,-9.82278 c 0.375018,-0.59238 0.139828,-1.40407 -0.52263,-1.803773 -0.662469,-0.3997 -1.204479,0.08497 -1.204479,1.077053 0,2.03228 0.711154,2.33152 1.727109,0.72672 z M 74.76435,96.825896 c 1.00819,-1.839064 0.775569,-2.509057 -1.23606,-3.560071 -2.62668,-1.372367 -5.848182,-0.778242 -5.848182,1.07855 0,1.399787 3.372953,4.746933 4.783542,4.746933 0.582334,0 1.617649,-1.019441 2.3007,-2.265412 z m 4.767216,-4.552767 c 0,-3.120566 -2.426629,-5.468094 -4.032141,-3.900711 -1.186151,1.15797 -0.792587,4.388975 0.713734,5.859517 2.28643,2.232118 3.318407,1.622956 3.318407,-1.958806 z m 11.772812,-0.0827 c 1.174698,-0.613747 2.437106,-2.586585 2.805355,-4.384085 0.501221,-2.446582 2.051762,-3.942099 6.167777,-5.948905 3.02402,-1.474397 5.78348,-3.406413 6.13212,-4.293367 0.84016,-2.137436 2.75059,-2.067423 2.75059,0.100798 0,0.942396 1.33328,2.040132 2.96286,2.439415 1.62957,0.399282 2.96287,1.450495 2.96287,2.33603 0,2.223797 3.46426,2.031265 4.35788,-0.242196 0.40045,-1.018742 -0.0118,-2.298681 -0.91613,-2.844306 -1.23375,-0.744385 -1.30589,-1.322351 -0.28895,-2.315122 0.97483,-0.951686 2.90428,-1.000553 6.87359,-0.17409 4.76256,0.991626 10.12108,0.780793 10.12108,-0.398215 0,-0.204681 -1.60653,-2.089294 -3.57007,-4.18803 -3.53904,-3.782702 -3.54912,-3.831311 -1.16029,-5.590409 1.92528,-1.417747 2.25176,-2.545862 1.62385,-5.610916 -0.85848,-4.190435 -3.36641,-5.880102 -5.55556,-3.742956 -1.06571,1.040403 -1.00657,1.591258 0.25237,2.350846 0.97342,0.587311 1.32192,1.811983 0.85424,3.001796 -0.71997,1.831621 -0.9721,1.848839 -2.84488,0.194263 -1.13019,-0.998517 -4.98561,-2.178707 -8.5676,-2.622645 -3.58198,-0.443939 -7.24469,-1.186018 -8.13934,-1.649063 -1.99684,-1.033506 -10.659243,1.336361 -11.868867,3.247096 -1.038937,1.641093 -0.783257,9.818949 0.363622,11.630558 0.567306,0.896113 1.458025,0.857561 3.08351,-0.13346 1.708435,-1.04159 2.626375,-1.061067 3.634255,-0.07711 1.90746,1.862143 0.27979,3.832064 -3.16631,3.832064 -2.026586,0 -3.267532,0.88655 -4.048742,2.892485 -1.118777,2.872717 -3.984204,3.866288 -5.274107,1.828767 -0.370373,-0.585045 0.117423,-1.835765 1.084,-2.779379 1.55311,-1.516219 1.439763,-1.918844 -0.975034,-3.463494 -3.576029,-2.28745 -6.727304,-0.704843 -4.763005,2.392041 0.731899,1.153908 1.692359,3.705375 2.134343,5.669922 0.676937,3.008878 0.409738,3.672463 -1.695166,4.209831 -2.412834,0.61598 -2.426231,0.720637 -0.389525,3.042829 2.442463,2.78483 2.276979,2.742669 5.059264,1.289007 z M 54.230665,86.902828 c 0.383854,-0.976545 0.02797,-4.111424 -0.790805,-6.966398 -1.325515,-4.621836 -1.255327,-5.44262 0.6403,-7.487506 2.719512,-2.933642 1.410153,-4.272902 -2.288299,-2.340569 -1.56644,0.81842 -3.44153,1.129972 -4.166868,0.692338 -0.725338,-0.437635 -4.28509,-0.433888 -7.910565,0.0083 -7.376338,0.899721 -9.406161,3.141797 -5.57522,6.158209 1.310904,1.032174 2.710704,2.787818 3.110667,3.901425 0.399953,1.113606 1.810562,2.024738 3.134683,2.024738 1.777889,0 2.407486,-0.756432 2.407486,-2.892483 0,-1.747117 0.676244,-2.892485 1.707776,-2.892485 2.424392,0 3.523723,2.220382 3.227238,6.518225 -0.187528,2.718259 0.30792,3.856796 1.848704,4.248361 3.613405,0.918295 3.938496,0.850399 4.654903,-0.972185 z M 80.562207,74.95591 c 2.498534,-2.611158 3.934315,-3.199536 6.804198,-2.788332 3.488935,0.499902 3.615073,0.372554 3.090054,-3.119642 -0.742679,-4.940044 -5.167833,-7.803993 -9.251486,-5.987553 -1.633547,0.726614 -4.746291,1.321115 -6.917213,1.321115 -5.456003,0 -7.155455,2.251117 -4.917255,6.513468 0.959134,1.826538 2.021062,4.23211 2.359834,5.345716 0.93144,3.061772 5.277787,2.42951 8.831868,-1.284772 z M 120.77407,52.333108 c -0.29898,-3.982247 -0.80118,-4.789609 -3.18381,-5.118494 -5.15321,-0.711319 -6.40674,4.392778 -2.30194,9.372982 3.48625,4.229749 5.97764,2.297544 5.48575,-4.254488 z m -61.389984,2.213944 c 0,-2.091839 -0.636736,-2.892484 -2.300349,-2.892484 -3.025174,0 -4.189614,1.991679 -2.397152,4.10016 2.249929,2.646592 4.697501,2.017347 4.697501,-1.207676 z M 130.71583,17.247295 c 0.49171,-2.492598 4.51759,-3.463649 4.51759,-1.089654 0,0.933097 -0.84359,2.012567 -1.87466,2.398823 -2.78272,1.042474 -3.07798,0.896222 -2.64293,-1.309169 z"
     style="fill:#82787c" />
  <path
     style="fill:#8f6c63"
     d="m 96.157642,129.48629 c 1.000637,-1.2057 1.049062,-2.02002 0.153056,-2.57378 C 95.589814,126.46699 94.4375,126.4501 93.75,126.875 c -1.540279,0.95195 -1.660033,4.375 -0.153056,4.375 0.60332,0 1.755633,-0.79368 2.560698,-1.76371 z"
     id="path4665" />
  <path
     inkscape:connector-curvature="0"
     id="path4776"
     d="M 17.759089,353.9425 C 7.2402554,353.122 5.240763,348.27608 3.7857548,320.07708 2.762168,300.23925 2.9298803,130.67896 3.9740982,129.65954 c 0.3951743,-0.38581 1.5714931,0.90889 2.6140423,2.87706 2.004765,3.7847 3.5075775,4.45914 4.9298845,2.21245 0.505024,-0.79773 -0.205447,-2.05979 -1.707776,-3.03361 -1.4149216,-0.91716 -2.5725823,-2.64534 -2.5725823,-3.84042 0,-1.19508 -0.6666493,-2.0427 -1.4814317,-1.88361 -1.126173,0.21988 -1.5652271,-4.28873 -1.83087,-18.80114 C 3.5710063,87.831116 4.3726386,77.930167 5.9537365,82.137822 6.6373381,83.957024 6.9655009,84.02914 8.1610004,82.622871 9.2728088,81.315046 9.0648304,80.446602 7.1623865,78.45308 4.451617,75.612523 4.015929,69.643093 4.7148616,44.918811 5.1077138,31.021878 6.8969238,18.941028 7.135802,28.572545 c 0.056038,2.25903 0.6789644,4.67072 1.3843158,5.359312 0.9198351,0.897986 0.8444121,1.936723 -0.2667235,3.67368 -1.3434246,2.100068 -1.2403933,2.642116 0.7758247,4.081386 2.154102,1.537706 2.1841,1.816194 0.40805,3.78893 -2.5512869,2.833847 -2.2666144,8.917926 0.4410261,9.425603 1.6794759,0.314898 1.9994079,-0.388516 1.7777189,-3.908624 -0.148683,-2.360946 0.266127,-4.48054 0.921807,-4.710209 1.578055,-0.552753 4.199133,7.797528 3.392636,10.808319 -0.34812,1.299592 -0.09565,4.262581 0.561039,6.584417 0.739294,2.613919 0.788672,5.601176 0.129655,7.844456 -0.745277,2.536908 -0.492623,5.844833 0.842847,11.035093 l 1.907184,7.412158 3.2981,-3.084727 c 3.968143,-3.711415 5.396292,-3.106153 6.268161,2.656518 2.445127,16.161113 4.615147,22.389473 9.217297,26.455443 1.962364,1.73373 2.921337,1.86036 5.867325,0.77479 2.110688,-0.77776 7.005246,-1.04047 12.216835,-0.65567 5.474294,0.40418 8.978845,0.19408 9.460792,-0.56721 0.530016,-0.83721 1.818744,-0.8211 4.189102,0.0522 2.999188,1.10518 3.883998,0.88335 7.13784,-1.78954 3.747725,-3.07855 7.205516,-3.12791 7.205516,-0.10282 0,2.49447 5.880617,4.28855 9.207047,2.80893 1.515773,-0.67422 5.028829,-1.22586 7.806813,-1.22586 2.77798,0 5.87099,-0.65081 6.87333,-1.44624 3.03041,-2.40484 6.55369,-9.19481 8.06763,-15.547748 0.78675,-3.301412 3.07306,-8.507882 5.08069,-11.56994 l 3.65023,-5.567377 1.12053,4.049478 c 0.74208,2.681831 0.66756,6.484305 -0.22068,11.25878 -1.07375,5.771777 -1.01979,7.963457 0.27073,10.991437 2.02253,4.7456 0.50815,10.1456 -2.84526,10.1456 -1.5802,0 -2.27153,0.8099 -2.27153,2.66109 0,1.4636 -0.65188,3.29746 -1.44859,4.07525 -0.79672,0.7778 -1.46337,3.87566 -1.48143,6.88412 -0.0291,4.85707 -0.3254,5.46994 -2.64398,5.46994 -3.73039,0 -8.71766,6.89004 -7.89475,10.90684 0.51458,2.51176 0.057,3.35097 -2.42983,4.45717 -5.550478,2.46889 -3.74687,3.84516 7.00998,5.3491 2.84943,0.39838 3.4766,2.69248 1.8664,6.82701 -1.09255,2.80538 -1.65767,3.02694 -6.76794,2.65345 -5.18362,-0.37884 -13.468223,1.82444 -13.468223,3.58187 0,1.16138 2.527214,8.77073 3.631163,10.93332 1.059072,2.07465 0.34286,3.30648 -1.922486,3.30648 -0.798448,0 -1.786357,-1.30162 -2.195346,-2.89249 -0.849731,-3.30516 -2.470754,-3.7687 -3.552792,-1.01593 -0.546077,1.38925 -1.654339,1.69756 -4.267823,1.18728 -2.879118,-0.56215 -3.885203,-0.16032 -5.455094,2.17872 -1.550579,2.31026 -1.638953,3.20435 -0.454452,4.59769 0.808753,0.95133 2.173652,1.72969 3.033111,1.72969 0.859468,0 1.89227,0.52065 2.295125,1.15699 0.4289,0.6775 -0.809568,1.157 -2.988255,1.157 -3.224042,0 -3.962919,-0.60193 -5.535058,-4.50912 -1.379585,-3.42866 -2.631536,-4.66866 -5.224853,-5.175 -1.875783,-0.36626 -4.108598,-0.4044 -4.961808,-0.0848 -0.853201,0.31963 -2.734416,-0.64835 -4.180483,-2.15105 l -2.629213,-2.73218 2.982376,-1.32659 c 1.651117,-0.73438 2.982387,-2.3001 2.982387,-3.50756 0,-2.11019 -5.324918,-8.28153 -7.14569,-8.28153 -1.2865,0 -2.335477,3.12981 -2.335477,6.9683 0,1.81945 -0.533316,3.62986 -1.185146,4.02314 -0.65183,0.39329 -1.185146,1.95522 -1.185146,3.47098 0,4.5166 -1.885359,4.30019 -5.20535,-0.59747 -1.848231,-2.72652 -4.057874,-4.609 -5.41004,-4.609 -2.713197,0 -10.717236,-4.40579 -10.717236,-5.89926 0,-0.57349 1.013954,-1.04271 2.253228,-1.04271 1.249495,0 3.344501,-1.67504 4.702962,-3.76022 1.34736,-2.06813 3.275554,-4.84915 4.284881,-6.18005 1.705672,-2.24911 1.589375,-2.73884 -1.64849,-6.94196 -5.681799,-7.37562 -13.631786,-15.46586 -15.222024,-15.49056 -0.814793,-0.0127 -1.481433,-1.03359 -1.481433,-2.26873 0,-1.23513 -0.533315,-2.56748 -1.185145,-2.96076 -0.651831,-0.39329 -1.185146,-2.7362 -1.185146,-5.20647 0,-4.94437 -1.576045,-6.71182 -4.135686,-4.63796 -1.223962,0.99167 -1.366273,2.10446 -0.540331,4.22524 0.877075,2.25208 1.502395,31.21136 1.026972,47.56021 -0.253736,8.7254 -0.178379,18.67452 0.394549,52.09187 0.464055,27.06776 1.041534,37.81234 2.099111,39.05637 1.141163,1.34236 1.152919,2.78548 0.05395,6.62555 -1.019187,3.56135 -1.093605,7.92745 -0.27099,15.90083 0.672044,6.51401 0.701502,11.78208 0.07234,12.93236 -2.069605,3.78357 2.97886,8.86663 5.285467,5.32168 0.805956,-1.23863 2.12362,-1.32202 6.222016,-0.39374 2.859747,0.64774 5.199529,1.57998 5.199529,2.07165 0,1.06069 6.115979,1.19402 8.791668,0.19165 4.776479,-1.78937 -0.195322,-6.06611 -5.236231,-4.50419 -1.682101,0.52118 -2.370291,0.20791 -2.370291,-1.07903 0,-0.9974 0.550505,-1.81346 1.223335,-1.81346 2.77218,0 3.115219,-4.99355 0.649745,-9.45826 -2.14829,-3.89033 -2.236835,-4.60914 -0.687934,-5.58462 2.641727,-1.66373 6.622756,-1.38781 8.2911,0.57466 1.18433,1.39315 1.097265,2.28573 -0.447464,4.58728 -2.43555,3.62882 -2.406481,4.09598 0.254864,4.09598 3.198329,0 3.655691,0.92486 2.463757,4.98217 -0.913425,3.10929 -0.648872,4.06464 1.78301,6.43876 1.721675,1.68077 3.602407,2.50798 4.736325,2.08318 2.54888,-0.95485 2.372976,-2.69563 -0.34244,-3.38885 -1.522268,-0.38863 -2.381366,-1.89028 -2.724888,-4.76292 -0.565902,-4.73223 -0.592478,-4.70268 2.520721,-2.80464 1.803308,1.09943 2.916956,1.05848 5.317076,-0.19551 1.669804,-0.87243 3.036002,-2.05893 3.036002,-2.6367 0,-0.57776 1.599947,-2.61244 3.555438,-4.52148 4.488716,-4.38208 4.736839,-7.92094 0.555378,-7.92094 -3.688107,0 -5.026668,-2.87165 -2.581797,-5.53883 2.993545,-3.26572 2.890684,-9.69545 -0.223415,-13.96492 -2.441874,-3.34783 -2.55141,-3.97581 -0.998252,-5.72304 2.698795,-3.03599 3.240662,-7.12414 1.947013,-14.68949 -0.652872,-3.81808 -1.560524,-9.23057 -2.016994,-12.02774 -1.087879,-6.66632 -3.871236,-8.48102 -7.667648,-4.99921 -1.53793,1.4105 -3.711895,2.56453 -4.831043,2.56453 -2.508537,0 -3.921989,-3.17581 -2.173263,-4.88299 0.747419,-0.72967 0.882743,-2.03106 0.322757,-3.10397 -2.136922,-4.09418 -1.293326,-10.98153 1.895267,-15.47336 3.052045,-4.29948 3.29608,-4.40408 8.862654,-3.79898 4.74064,0.51534 5.724198,0.30146 5.724198,-1.24476 0,-1.51584 0.724493,-1.70125 3.851723,-0.9857 2.118444,0.48474 5.544189,1.01511 7.612752,1.17861 2.068563,0.16352 4.256579,0.5963 4.862264,0.96173 0.605686,0.36544 2.113125,-0.0833 3.349858,-0.99719 1.236733,-0.9139 3.938656,-1.67819 6.00428,-1.69844 2.065624,-0.0203 5.355505,-0.93315 7.310834,-2.02871 7.96052,-4.46017 14.59094,3.14773 7.96816,9.14284 -3.27955,2.96873 -8.29888,15.30335 -7.28108,17.8927 0.34475,0.87706 0.005,2.92676 -0.75477,4.55489 l -1.381586,2.96023 -1.979418,-2.56185 c -2.684915,-3.47492 -4.371823,-2.08249 -5.391873,4.45064 l -0.853865,5.46875 -1.473421,-3.47098 c -0.812298,-1.91356 -1.475098,-8.2928 -1.477164,-14.21714 -0.0038,-11.5532 -1.398662,-15.37736 -4.647935,-12.74477 -3.127306,2.53377 -3.782975,6.16787 -2.016112,11.17441 1.158646,3.28312 1.667908,10.04166 1.645721,21.84085 -0.01764,9.39758 0.258097,20.99138 0.612806,25.76398 1.214025,16.33463 3.106637,33.94039 3.759425,34.97152 0.358891,0.56692 2.223551,0.69389 4.143687,0.28218 1.920135,-0.41171 4.13595,-0.25755 4.924044,0.34258 0.788093,0.60014 3.966131,1.80115 7.062331,2.66892 3.09618,0.86777 5.7084,2.1149 5.80492,2.77142 0.0965,0.6565 0.22983,2.23494 0.29629,3.50763 0.10071,1.92845 0.91063,2.29561 4.86138,2.20369 2.60733,-0.0606 8.64873,0.32219 13.42534,0.8508 6.84372,0.75734 9.40639,0.59677 12.08889,-0.75747 1.87228,-0.94519 4.49727,-1.71852 5.8333,-1.71852 2.66061,0 2.72969,-0.33492 2.98293,-14.46242 0.0798,-4.45443 0.76655,-9.50988 1.52601,-11.23435 l 1.38087,-3.13539 2.94777,2.5569 c 2.69699,2.33937 2.80184,2.77489 1.23252,5.11941 -2.31096,3.45253 -2.27098,9.58591 0.0625,9.58591 0.97774,0 1.77772,-0.52064 1.77772,-1.15699 0,-1.88547 3.03698,-1.31998 5.14946,0.95884 1.17974,1.27261 1.96141,4.08237 1.96141,7.05029 0,3.86816 0.48472,5.05817 2.24314,5.5071 2.7027,0.68997 3.95921,5.79194 2.94752,11.96832 -0.47388,2.89305 -1.24097,4.22837 -2.21869,3.8621 -1.88125,-0.70476 -3.27551,4.35815 -2.27349,8.25564 0.46533,1.81003 1.58258,2.89248 2.98544,2.89248 1.91936,0 2.2418,0.88948 2.2418,6.18415 0,10.95884 2.11839,10.47504 -49.60232,11.3285 -47.601372,0.7855 -94.442528,0.85562 -103.42638,0.15485 z M 160.82693,304.45187 c 1.56758,-2.33558 1.65976,-3.23407 0.47478,-4.62798 -0.80875,-0.95132 -1.96422,-1.72968 -2.5677,-1.72968 -1.33452,0 -4.54984,7.1446 -3.76982,8.37674 1.12643,1.77932 3.97083,0.79975 5.86274,-2.01908 z M 86.909555,176.40607 c 0.255555,-0.74844 0.08068,-4.12301 -0.388605,-7.49902 -0.46928,-3.37601 -0.557654,-7.24166 -0.196393,-8.59034 0.510618,-1.9062 0.183632,-2.36176 -1.468718,-2.04618 -2.883962,0.55078 -4.999571,7.28975 -4.395307,14.00063 0.435384,4.83526 0.82471,5.49571 3.23962,5.49571 1.509619,0 2.953848,-0.61236 3.209403,-1.3608 z m -14.693969,-4.92873 c 0.273095,-2.26849 -0.0768,-3.06965 -1.185146,-2.71403 -0.864939,0.2775 -1.746972,1.95293 -1.960081,3.72316 -0.273095,2.26848 0.0768,3.06963 1.185146,2.71403 0.864939,-0.27751 1.746972,-1.95294 1.960081,-3.72316 z m 16.057796,-23.2576 c 0.713497,-1.81517 0.182589,-2.14243 -5.410029,-3.3348 -3.965309,-0.84542 -5.68268,1.42048 -2.693761,3.5541 2.932326,2.09325 7.240616,1.97666 8.10379,-0.2193 z M 73.605837,130.9797 c 0,-1.26318 -13.241247,-8.16177 -17.048342,-8.88206 -7.385384,-1.39728 -14.039551,-1.24771 -13.509829,0.30368 0.862417,2.52581 12.986999,7.92678 17.981848,8.01014 2.68008,0.0448 5.939506,0.49331 7.243166,0.99688 1.980379,0.76495 5.333157,0.49547 5.333157,-0.42864 z m 18.816153,-3.7714 c 6.2429,-3.47233 10.81249,-7.18495 10.81249,-8.78473 0,-0.59964 -1.19996,-0.7338 -2.66657,-0.29814 -1.466627,0.43564 -6.149006,1.71658 -10.405292,2.8465 -12.590629,3.34245 -19.303987,11.79484 -7.961809,10.02423 2.608013,-0.40712 7.207545,-2.11167 10.221181,-3.78786 z m 31.05354,166.74001 c 0.0569,-1.34783 0.33769,-1.62198 0.71602,-0.69902 0.34235,0.83521 0.30025,1.83311 -0.0935,2.21758 -0.39382,0.38446 -0.67392,-0.2989 -0.62246,-1.51856 z m -11.94503,-5.56477 c 0,-0.88644 -0.79997,-1.91138 -1.77772,-2.27767 -2.89235,-1.08353 -2.12742,-5.29404 1.18515,-6.52355 3.02961,-1.1245 3.94394,-3.89949 1.7258,-5.23781 -0.68038,-0.4105 -2.02656,-0.10667 -2.9915,0.6751 -0.96495,0.7818 -2.08377,1.09997 -2.48627,0.70701 -1.18978,-1.16149 4.70745,-5.31996 7.6037,-5.36177 3.14306,-0.0454 3.57985,2.96843 0.92655,6.39308 -2.09517,2.70426 -2.31171,6.50504 -0.4729,8.30017 0.73837,0.72085 1.02178,2.1266 0.62977,3.12388 -0.88256,2.24528 -4.34258,2.40587 -4.34258,0.20156 z m -20.617931,-9.09048 c -1.862527,-17.64913 -2.015449,-31.5575 -0.370856,-33.72958 1.010673,-1.33482 2.251502,-1.84876 3.15192,-1.30548 1.125262,0.67892 1.285959,3.87523 0.663283,13.19293 -0.761869,11.40047 -0.640794,12.52139 1.660806,15.37589 1.365421,1.69342 2.25903,3.77601 1.985794,4.62798 -0.273226,0.85195 -0.81815,2.98079 -1.210926,4.73075 -0.475016,2.11637 -1.471686,3.18173 -2.976574,3.18173 -1.857788,0 -2.377081,-1.0864 -2.903447,-6.07422 z m -53.453682,-3.18173 c -0.402854,-0.63634 0.365651,-1.15699 1.707776,-1.15699 1.342126,0 2.440235,0.52065 2.440235,1.15699 0,0.63635 -0.768496,1.157 -1.707776,1.157 -0.939281,0 -2.03738,-0.52065 -2.440235,-1.157 z m -5.333156,-13.72188 c 0,-2.05852 4.127284,-8.25169 5.25908,-7.89149 2.204703,0.70167 1.929787,2.92137 -0.453257,3.65976 -1.339546,0.41504 -2.435531,1.46979 -2.435531,2.34388 0,0.87409 -0.533316,1.91101 -1.185146,2.3043 -0.65183,0.39329 -1.185146,0.20587 -1.185146,-0.41645 z M 51.573084,239.8096 c -1.004084,-2.55442 0.331727,-3.8585 2.142052,-2.09118 1.068897,1.0435 1.073438,1.69028 0.01915,2.71957 -1.054334,1.02929 -1.568308,0.87983 -2.161155,-0.62839 z m -1.141409,-8.92184 c -1.221327,-1.92919 1.525528,-4.14146 3.160442,-2.54538 1.367573,1.33507 0.511661,3.80319 -1.318906,3.80319 -0.57489,0 -1.403582,-0.56601 -1.841536,-1.25781 z M 45.6911,192.70699 c -0.437954,-0.69178 -1.834349,-0.99277 -3.103109,-0.66886 -1.805385,0.4609 -2.227146,0.0684 -1.940246,-1.80579 0.603742,-3.94399 3.952519,-5.23381 7.761037,-2.98924 4.456405,2.6264 5.098536,6.72168 1.053936,6.72168 -1.63644,0 -3.333673,-0.56599 -3.771618,-1.25779 z m 101.12884,-1.93696 c -0.70345,-2.64795 0.18462,-5.08925 1.5513,-4.26464 1.38706,0.83688 1.41068,4.81171 0.0335,5.64261 -0.57772,0.34857 -1.2909,-0.27152 -1.58483,-1.37797 z m -35.70345,-6.60265 c -0.89076,-2.26611 1.58341,-3.65871 2.89866,-1.63152 1.48796,2.29338 1.30736,3.32997 -0.58013,3.32997 -0.90801,0 -1.95134,-0.7643 -2.31853,-1.69845 z m 0.9745,-37.69001 c -1.07079,-1.69144 1.65614,-4.5773 4.32521,-4.5773 2.51539,0 2.93776,2.31252 0.803,4.39658 -1.75119,1.70958 -4.10774,1.79264 -5.12821,0.18072 z M 45.162336,108.95468 c 0,-2.54449 0.383987,-2.78858 3.446157,-2.1907 2.711065,0.52933 3.731153,0.15297 4.782272,-1.76442 1.393144,-2.54128 4.808175,-3.37202 4.808175,-1.16964 0,0.6972 -1.102944,2.77979 -2.450995,4.62797 -1.890242,2.59155 -3.381525,3.36035 -6.518302,3.36035 -3.537404,0 -4.067307,-0.37309 -4.067307,-2.86356 z m 20.14748,-3.43163 c 0,-6.007644 1.355504,-8.970733 2.950919,-6.450615 0.409424,0.646722 2.281405,1.175865 4.159957,1.175865 4.011784,0 4.875917,0.98034 3.940903,4.4709 -0.532149,1.98661 -8.224751,7.09904 -10.681814,7.09904 -0.203476,0 -0.369965,-2.83284 -0.369965,-6.29519 z M 94.3965,103.79923 c -0.375018,-0.59239 -0.139829,-1.40407 0.522631,-1.80377 1.414324,-0.85334 3.574767,0.22973 3.574767,1.7921 0,1.40783 -3.207742,1.41697 -4.097398,0.0117 z M 36.866314,91.127292 c 0,-2.630098 4.596565,-4.161566 5.510673,-1.836028 0.88648,2.255246 -0.52063,4.015075 -3.210324,4.015075 -1.462763,0 -2.300349,-0.793416 -2.300349,-2.179047 z m 65.183026,-4.103949 c 0,-1.181317 1.06998,-1.81596 3.06163,-1.81596 3.71272,0 3.30635,2.717161 -0.48788,3.262203 -1.70923,0.245529 -2.57375,-0.240263 -2.57375,-1.446243 z M 61.359326,85.593047 C 59.93572,84.203255 60.526805,81.97948 63.056882,79.206473 l 2.48766,-2.726504 3.912953,3.4115 c 2.15213,1.876324 3.642209,4.100316 3.311278,4.942202 -0.623273,1.585658 -9.92865,2.204993 -11.409447,0.759376 z"
     style="fill:#645864" />
  <path
     style="fill:#8f6c63"
     d="M 24.375,12.5 C 24.799899,11.8125 24.551845,11.25 23.823771,11.25 23.095697,11.25 22.5,11.8125 22.5,12.5 c 0,0.6875 0.248052,1.25 0.551229,1.25 0.303176,0 0.898872,-0.5625 1.323771,-1.25 z"
     id="path4541" />
  <path
     inkscape:connector-curvature="0"
     id="path4531"
     d="m 78.819205,353.24174 c -28.493188,-0.52838 -54.790063,-1.33355 -58.4375,-1.78926 L 13.75,350.6239 l 0,-2.257 c 0,-1.24135 0.703125,-2.78989 1.5625,-3.4412 0.859375,-0.65131 3.982862,-1.87667 6.941084,-2.72304 2.95822,-0.84635 5.702681,-2.38341 6.098802,-3.41568 0.429756,-1.11993 1.537381,-1.56596 2.746416,-1.10597 L 33.125,338.4519 31.5625,336.87785 C 30.703125,336.01211 30,334.17179 30,332.78824 c 0,-1.38354 -1.443837,-3.66681 -3.208526,-5.07393 l -3.208527,-2.55838 1.302588,-3.42608 c 0.716424,-1.88433 2.123641,-3.42606 3.127151,-3.42606 1.003511,0 3.298634,0.56044 5.100274,1.24542 1.80164,0.68498 6.760134,1.29227 11.018875,1.3495 4.258741,0.0573 10.843086,0.93947 14.631877,1.96047 l 6.888713,1.85637 3.384375,-1.75582 3.384374,-1.75584 21.601914,0.56375 c 12.586282,0.32846 24.561982,0.009 28.694392,-0.76505 4.16703,-0.7807 8.60503,-0.895 10.75953,-0.27709 2.08198,0.5971 6.51636,0.53382 10.25888,-0.14641 l 6.59181,-1.1981 4.21115,4.08161 c 2.31614,2.24489 4.21115,5.30165 4.21115,6.79283 0,1.49116 1.05721,4.05525 2.34936,5.69795 3.76473,4.78607 8.11079,14.89931 6.88671,16.02531 -1.93308,1.77821 -35.63927,2.25566 -89.166865,1.26305 z M 76.25,332.67879 c 0,-1.03125 -0.84375,-1.875 -1.875,-1.875 -1.951967,0 -2.479959,1.47838 -1.041666,2.91666 1.438291,1.4383 2.916666,0.9103 2.916666,-1.04166 z m 78.4375,-19.86506 c -2.50005,-1.8978 -2.86884,-5.8286 -0.746,-7.95144 0.99176,-0.99176 2.1617,-1.05604 3.75,-0.20601 2.33654,1.25047 2.93517,4.30993 1.54976,7.92027 -0.4173,1.08749 -1.12042,1.95935 -1.5625,1.93749 -0.44206,-0.0219 -1.78814,-0.787 -2.99126,-1.70031 z"
     style="fill:#30142a"
     sodipodi:nodetypes="sscssssscssscssscscccscsscssssssssssssscs" />
  <path
     id="path4516"
     style="fill:#000000"
     d="m 164.6398,353.03499 4.01481,-0.63038 0.6998,-4.01481 c 1.07881,-6.18928 0.15845,-78.68825 -1.03482,-81.5148 l -1.05542,-2.5 1.4622,1.875 1.46222,1.875 -0.7459,-7.5 c -0.41024,-4.125 -0.6517,-39.28125 -0.53658,-78.125 0.11513,-38.84375 0.14404,-76.25 0.0642,-83.125 -0.0797,-6.875 -0.17162,-29.648601 -0.20412,-50.608004 l -0.0591,-38.108003 -2.27601,3.733003 C 163.76941,18.75767 160,22.177557 160,20.226827 160,19.49572 160.52688,18.571912 161.17085,18.17392 162.7081,17.223848 166.25,10.082399 166.25,7.9329525 L 166.25,6.25 149.6875,6.1568245 C 140.57812,6.105578 110.90625,6.1021535 83.75,6.1492145 37.685023,6.2290437 12.5,7.0267111 12.5,8.4058653 c 0,0.3208725 0.954806,2.1997627 2.121791,4.1753107 1.166987,1.975549 1.74355,3.970149 1.281255,4.432444 C 14.705826,18.21084 9.9628939,12.19161 10.62281,10.3125 10.924611,9.453125 10.626692,8.75 9.960769,8.75 9.294846,8.75 8.75,9.345697 8.75,10.073771 8.75,10.801845 8.2605899,11.09507 7.6624219,10.725382 7.064254,10.355694 6.6668376,16.650622 6.7792745,24.714111 6.8917114,32.7776 6.6267372,37.6875 6.1904432,35.625 5.7541492,33.5625 5.295082,45.528811 5.1702937,62.216804 5.0253712,81.59737 5.42109,93.451168 6.2656827,95.029304 6.9929349,96.388186 7.0776935,97.5 6.4540351,97.5 c -0.6236584,0 -1.5165319,8.29688 -1.9841632,18.4375 -0.4676315,10.14063 -0.918879,63.86635 -1.0027721,119.3905 l -0.152533,100.953 2.4052166,1.81975 c 1.3228691,1.00085 1.7547526,1.83763 0.9597411,1.8595 -0.8298676,0.0229 -1.1641122,1.11569 -0.7848216,2.5661 l 0.6606539,2.52634 1.7223216,-1.4294 L 10,342.19389 l 0,3.70932 c 0,2.04013 0.984375,4.59874 2.1875,5.6858 l 2.1875,1.97648 25.56174,0.13316 c 14.058957,0.0733 25.734575,0.306 25.945819,0.51724 0.626883,0.62689 94.383891,-0.49423 98.757241,-1.1809 z M 8.1238428,356.54855 c -0.6881365,-0.50795 -2.5575059,-3.599 -4.1541543,-6.86899 L 1.0666915,343.73414 1.4708458,176.28631 1.875,8.83849 4.0334915,6.6803964 6.1919829,4.5223027 32.158491,3.5966166 C 46.440071,3.0874893 83.567409,2.6324711 114.66369,2.5854653 L 171.20238,2.5 l 0.67873,2.8125 c 0.37332,1.546875 0.52465,81.28125 0.33632,177.1875 l -0.34243,174.375 -81.25,0.29855 c -44.6875,0.1642 -81.8130207,-0.117 -82.5011572,-0.625 z" />
  <path
     style="fill:#000000"
     d="m 165.19736,347.5 c 0,-1.71875 0.28373,-2.42188 0.63049,-1.5625 0.34676,0.85937 0.34676,2.26562 0,3.125 -0.34676,0.85937 -0.63049,0.15625 -0.63049,-1.5625 z"
     id="path4514" />
  <path
     style="fill:#000000"
     d="m 12.5,338.2138 c 0,-1.21159 1.110991,-3.76311 2.468869,-5.67008 1.357877,-1.90696 3.031455,-4.94692 3.719061,-6.75546 0.687606,-1.80855 1.822329,-3.28826 2.521606,-3.28826 0.699279,0 -0.741718,3.79687 -3.202215,8.4375 -2.460496,4.64062 -4.70621,8.67187 -4.990475,8.95834 C 12.732581,340.18229 12.5,339.42538 12.5,338.2138 Z"
     id="path4512" />
  <path
     style="fill:#000000"
     d="m 159.375,337.5 c -0.4249,-0.6875 -0.17685,-1.25 0.55122,-1.25 0.72808,0 1.32378,0.5625 1.32378,1.25 0,0.6875 -0.24805,1.25 -0.55123,1.25 -0.30317,0 -0.89887,-0.5625 -1.32377,-1.25 z"
     id="path4510" />
  <path
     style="fill:#000000"
     d="m 121.25,321.38374 c 0,-1.5228 3.67945,-2.82489 5.24625,-1.85654 0.7971,0.49262 0.6386,1.1858 -0.4253,1.85991 -2.22186,1.40784 -4.82095,1.40602 -4.82095,-0.003 z"
     id="path4508" />
  <path
     style="fill:#000000"
     d="m 131.99504,321.60047 c 0.75351,-0.53651 1.74861,-2.52235 2.21131,-4.41297 0.4627,-1.89063 1.3404,-3.4375 1.95044,-3.4375 0.61003,0 0.82493,1.08689 0.47755,2.41531 l -0.63163,2.4153 2.62365,-0.68609 c 1.5397,-0.40265 2.62364,-0.0933 2.62364,0.74892 0,1.52454 -0.91394,1.9453 -6.875,3.16512 -2.0625,0.42206 -3.13349,0.32841 -2.37996,-0.20809 z"
     id="path4506" />
  <path
     style="fill:#000000"
     d="m 145.72869,143.91776 c -0.53847,-0.87125 -0.64145,-1.92166 -0.22887,-2.33426 1.11872,-1.1187 2.33847,0.52662 1.73424,2.33931 l -0.52635,1.57905 z"
     id="path4436" />
  <path
     style="fill:#000000"
     d="m 141.25,137.42622 c 0,-0.72807 0.5625,-0.97612 1.25,-0.55122 0.6875,0.4249 1.25,-0.1376 1.25,-1.25 0,-1.25519 -0.59283,-1.68785 -1.5625,-1.14039 l -1.5625,0.88215 1.45359,-1.57446 c 0.79946,-0.86596 2.06508,-1.19654 2.8125,-0.73461 0.7474,0.46192 1.35891,1.93166 1.35891,3.26608 0,1.59289 -0.85868,2.42623 -2.5,2.42623 -1.375,0 -2.5,-0.5957 -2.5,-1.32378 z"
     id="path4408" />
  <path
     style="fill:#000000"
     d="m 146.25,115 c 0,-3.66667 0.23019,-6.43229 0.51152,-6.14583 0.95172,0.96902 1.26821,11.03277 0.37505,11.92592 C 146.64896,121.2677 146.25,118.66667 146.25,115 Z"
     id="path4404" />
  <path
     style="fill:#000000"
     d="m 135,103.75 c 0,-0.6875 0.5957,-1.25 1.32377,-1.25 0.72808,0 0.97613,0.5625 0.55123,1.25 -0.4249,0.6875 -1.0206,1.25 -1.32378,1.25 C 135.24805,105 135,104.4375 135,103.75 Z"
     id="path4394" />
  <path
     style="fill:#000000"
     d="m 146.25,97.5 c 0,-3.11339 0.49396,-4.842258 1.25,-4.375 0.6875,0.424899 1.25,2.393649 1.25,4.375 0,1.981351 -0.5625,3.9501 -1.25,4.375 -0.75604,0.46726 -1.25,-1.26161 -1.25,-4.375 z"
     id="path4392" />
  <path
     style="fill:#000000"
     d="m 147.2108,81.787456 c 0.41056,-2.147712 1.0296,-2.79705 1.86764,-1.959021 C 150.46694,81.216942 149.4678,85 147.71258,85 c -0.61376,0 -0.83954,-1.445645 -0.50178,-3.212544 z"
     id="path4376" />
  <path
     style="fill:#000000"
     d="m 145.19845,75.3125 c 0.10912,-0.515625 -0.2635,-2.003216 -0.8281,-3.30576 -0.69505,-1.603489 -0.42685,-2.814457 0.83054,-3.75 1.26683,-0.942581 1.92226,-3.964111 2.06216,-9.50674 0.11275,-4.46875 0.82042,-11.106071 1.57252,-14.749604 0.99394,-4.815109 0.9911,-7.078087 -0.01,-8.284821 l -1.37787,-1.660219 2.6887,-0.703109 c 1.84308,-0.481976 2.44556,-1.336682 1.91566,-2.717601 -0.49268,-1.283915 -0.27361,-1.705831 0.60407,-1.163394 1.53698,0.949908 1.07898,7.03334 -1.9082,25.346287 -1.049,6.430896 -2.5174,12.427693 -3.2631,13.326215 -0.93974,1.13231 -0.95359,1.882278 -0.0451,2.443732 2.00088,1.236859 1.55983,5.662514 -0.56471,5.662514 -1.03125,0 -1.7857,-0.421875 -1.67655,-0.9375 z"
     id="path4362" />
  <path
     style="fill:#000000"
     d="m 156.34869,27.321236 c -0.0561,-1.878031 0.72295,-3.619055 1.80524,-4.034369 l 1.90392,-0.730603 -1.11001,2.159367 c -0.61051,1.187653 -1.42288,3.003119 -1.80525,4.034369 -0.40811,1.100694 -0.73598,0.510667 -0.7939,-1.428764 z"
     id="path4346" />
  <path
     style="fill:#000000;fill-opacity:1"
     d="m 81.257329,46.955516 c -5.609887,1.919637 5.752062,2.032772 0,0 z m -2.867188,1.873047 c -1.840363,0.930013 -6.595822,3.66114 -2.777345,2.769532 1.587182,0.520106 3.437728,-3.095209 4.0991,0.707221 3.554602,5.414931 9.311458,8.7138 13.758326,13.255681 2.843433,2.721952 0.978271,8.626742 -3.097787,5.263711 -5.200763,0.261037 -7.388211,7.253987 -4.279713,11.078621 0.826554,2.550097 4.269325,3.376473 1.506982,0.355148 -1.480913,-2.446181 -0.04231,-4.833991 0.634726,-0.910599 0.955317,5.170787 1.230097,-3.486474 4.675475,-2.576964 2.74284,-0.568302 4.69648,-3.245842 2.95683,-4.555645 0.0144,-3.166116 1.82133,-8.979318 -2.872924,-11.806178 -3.052395,-3.108605 -5.686193,-5.731656 -9.103808,-8.147385 -2.155314,-0.745384 -0.0028,-3.728874 -3.355329,-3.610875 -0.856218,-0.447514 -1.213651,-1.49885 -2.144533,-1.822268 z m 52.296869,4.427734 c -1.12279,0.311767 0.59451,2.133155 0.62896,0.611332 l -0.18714,-0.43311 -0.44177,-0.178218 -5e-5,-4e-6 z m -52.197259,0.984375 c -2.712885,0.494036 -3.177465,4.473196 -0.435749,1.38206 0.20847,-0.287056 1.141628,-1.068357 0.435749,-1.38206 z m -5.115235,0.738281 c -4.208789,-0.223905 -5.266922,6.799882 -8.916015,5.173829 -0.662847,1.274016 0.513764,2.909433 -1.928374,4.329267 -3.639851,3.917396 -2.525773,10.342684 3.050738,11.867376 2.903882,0.03136 2.716625,2.378993 -0.202288,0.925261 -1.795619,-0.570237 -3.004409,-2.362377 -4.542576,-3.185486 -0.516329,0.649222 0.434084,1.796801 0.306758,2.537219 0.310732,3.94 6.970548,1.463873 5.499372,5.350621 2.020161,-1.407314 3.74251,-2.326512 2.982422,-5.046875 0.979559,-2.11999 2.040462,3.096206 1.948403,4.709034 0.599688,0.557441 0.779972,-1.02893 1.116049,-1.277343 2.484392,-4.407751 -1.85625,-11.766545 -7.105468,-8.759766 -1.585639,-0.515661 -0.558372,-6.45012 -2.914064,-2.458984 -1.871421,0.830646 0.568452,-5.417262 2.663268,-5.989859 2.285222,-2.518226 7.518296,-5.226338 8.041775,-8.174294 z m 5.044922,1.714844 c -3.16152,2.224071 -5.76962,5.38029 -9.425781,6.916016 1.492995,-1.683301 6.131879,-3.530138 5.613274,-5.681636 -3.099211,2.573556 -6.905511,4.582026 -8.121141,8.427738 -1.956749,1.631056 -1.96617,5.479096 1.204991,2.906059 2.199744,0.137893 4.788949,-0.119438 1.882905,-2.283001 3.249298,-2.493564 5.985694,-7.138444 9.410303,-8.413182 1.31917,3.807053 7.251748,5.941613 7.158749,9.576484 -1.632096,1.281779 -3.94869,7.351267 -0.674005,2.986618 0.955998,-2.816438 8.795927,-1.368096 5.491675,-4.286636 -4.943522,-2.248582 -8.194574,-7.076987 -12.54097,-10.14846 z m 5.462891,3.453125 c 0.02999,1.932584 4.574027,3.632247 6.167976,5.382863 0.210826,-2.047206 -4.456106,-4.455512 -6.167976,-5.382863 z m -2.822266,4.220703 c -4.400102,0.404291 1.828137,5.594313 0.515624,0.443359 l -0.20027,-0.294718 -0.315355,-0.148642 10e-7,10e-7 z m -5.052734,0.148438 c -1.841207,1.316887 3.8718,2.086279 0.912115,0.218758 l -0.912109,-0.21875 -6e-6,-8e-6 z m 0.04687,2.626953 c -2.737617,1.626825 1.799442,3.829889 0,0 z m 4.613281,1.441406 c -2.958341,0.773646 2.24896,1.199319 0,0 z m -50.578125,2.326172 c -3.215294,1.415183 1.752875,6.209212 0.616854,1.099836 -0.05089,-0.392016 -0.09468,-1.023274 -0.616854,-1.099836 z m 98.550785,0.449219 c -3.61112,1.079764 0.63218,3.725811 -3.71121,4.040348 -2.48053,0.431777 -6.74587,1.989356 -2.1906,3.548791 3.70843,3.297699 0.8053,9.389807 -2.67825,11.77414 -1.43518,-1.215339 -6.59158,2.115495 -10.18796,1.444405 -6.25848,0.30752 -12.763185,-0.0114 -18.331593,-3.223642 -4.359068,-1.572738 -7.532356,-5.346862 -8.141395,-9.955609 0.217695,-1.665418 -1.233858,-4.704996 -0.920668,-1.158162 -0.258471,5.386718 1.734502,11.165146 6.726311,13.844733 3.47156,3.83303 8.86845,3.55947 13.171975,5.84347 4.80959,0.55562 9.65229,0.74335 14.5095,0.29078 2.48246,-0.63525 1.89097,2.996673 3.74413,0.20884 3.7178,-1.71642 2.68518,-7.605216 5.69789,-9.663818 -0.95792,-3.218898 0.85238,-7.003978 1.5994,-10.580924 -0.12675,-1.972327 2.09739,-4.819987 0.71247,-6.413352 z m -65.900389,0.552734 c 2.070454,1.284939 3.017816,3.830733 0.246134,0.869105 l -0.257812,-0.683594 0.01172,-0.185547 -4.2e-5,3.6e-5 z m 27.25,0.246094 c 2.649978,0.517499 2.280629,2.288021 -0.251952,1.273442 -3.663942,0.932467 -2.271484,-0.532412 0.251952,-1.273442 z m -22.386719,0.269531 c 2.799991,0.35584 -4.791628,4.231784 -0.697233,0.226566 l 0.697266,-0.226563 -3.3e-5,-3e-6 z m 30.138673,0.689453 c -2.44684,1.640265 2.364595,1.439085 0,0 z m -67.19922,1.601563 c -1.150523,1.021759 -0.04183,3.414757 -0.740275,4.824273 1.98158,1.451983 3.200304,2.617942 1,4.175782 1.045863,0.982709 2.496065,1.582791 0.785152,2.76957 1.722076,1.5737 2.357394,3.672907 1.457029,5.099644 2.872144,2.2552 3.096539,7.35853 3.951172,10.988283 -2.959865,3.91331 -2.103808,9.08608 0.44181,12.74763 -0.909842,4.65233 0.600873,9.72761 5.370968,11.5334 4.246701,1.93268 8.873912,2.79473 13.444095,3.71837 4.548024,0.6164 8.681722,0.57243 13.252653,1.27461 4.121211,0.0931 5.611687,1.07443 9.71221,0.91599 4.05273,0.069 8.010617,0.37966 11.953522,-1.1463 3.835084,0.17654 6.486084,-0.55633 10.499889,-0.88462 3.24617,-1.26964 7.45917,-0.6285 11.08152,-1.69179 2.11833,0.0289 8.8345,-4.35231 4.95009,-4.97761 0.41187,-1.58317 4.5612,-3.05313 0.93572,-4.78909 -7.96615,-4.21546 -17.36807,-5.16693 -26.222781,-4.23239 0.517262,2.89687 -4.864185,5.21231 -7.194417,7.7991 -0.901901,0.84694 -6.454248,6.549 -3.817314,2.30246 2.013993,-2.09459 5.410897,-4.09394 6.474598,-6.55665 -3.215459,1.68483 -5.530754,4.94288 -8.654297,6.85139 -2.83389,-1.59011 -5.053034,-4.35258 -7.902496,-5.82883 -0.527944,0.62689 1.042684,1.16874 1.202184,1.72583 1.172401,1.76267 6.055045,4.53588 5.266712,5.84519 -3.546538,-3.10638 -7.112963,-6.26107 -11.251953,-8.53513 -0.301283,1.6427 8.245696,6.56385 1.441066,5.27668 -2.209866,-1.27042 -8.035975,0.64537 -2.677096,1.22207 2.381458,0.58305 7.953237,0.31763 8.667686,2.0639 -3.588421,2.73299 -8.739721,2.11467 -12.777343,0.89258 -1.868866,-3.32835 -3.178302,1.30502 -6.440375,-0.58696 -2.880315,-0.67182 -8.900068,-0.91501 -9.428769,-3.52828 1.368601,-0.66872 -2.445903,-3.88817 1.546965,-2.18497 1.287478,0.34986 9.298551,3.0993 6.010396,0.44819 -2.547265,-0.26287 -6.256827,-2.48097 -1.60194,-3.2315 4.67188,-1.20864 9.731608,-1.86434 14.405863,-0.51216 0.459255,-0.8701 -1.788744,-1.35145 -1.308558,-2.44338 1.160977,-1.29266 8.239463,5.17149 3.917275,0.69943 -4.034386,-4.17719 -10.253628,-2.21733 -15.290335,-1.729 -4.572906,0.85446 -9.293923,1.87431 -13.488268,3.72106 1.644091,-3.93702 8.288445,-3.95058 12.158317,-5.51312 -0.661218,-2.95862 -6.913791,1.8473 -9.168084,-1.35799 -1.717791,-1.99903 -1.393727,5.1465 -2.33254,0.8236 -0.728645,-3.41084 -1.717219,-8.87086 -0.680028,-11.08288 -0.08961,2.45133 2.045971,4.49051 1.450079,0.75552 1.03224,-2.37868 -4.933888,-6.965163 0.388669,-5.144553 2.941453,-0.49709 7.123282,4.771683 8.287107,1.39844 4.695325,-0.95045 8.872275,-3.1068 13.666847,-4.07242 4.155897,-2.33221 10.674691,-3.835553 11.28844,-9.479637 0.120115,-2.416161 2.070738,-7.195194 0.09549,-8.375711 -0.499788,4.367867 -2.10786,8.784773 -5.685547,11.5625 -2.910094,1.894366 -5.51151,3.789938 -9.36528,3.535078 -1.412443,1.20712 -3.532386,3.31301 -6.253941,2.12515 -4.509452,-1.44994 -10.577109,1.03865 -14.047919,-3.382021 -1.423851,-3.078897 4.176603,1.910321 5.860299,1.326211 4.833455,0.29114 9.829262,-0.60325 14.353676,-2.129742 -2.00327,-1.101099 -5.476974,-1.464594 -7.044919,-0.205078 -2.060142,0.244037 -4.211807,1.94397 -4.58984,-0.923828 -2.527438,-0.717543 1.04182,4.233418 -2.453346,1.799918 -3.221647,1.06828 -8.791321,-5.07696 -4.876736,-6.76281 0.374774,-0.126904 2.078208,-0.264546 1.205613,-0.935148 -3.016272,-4.441696 -8.679072,0.599463 -5.446781,4.626592 0.97419,4.146006 4.464517,6.747596 8.543915,7.562386 0.595407,1.45129 -6.194208,-0.56685 -7.107374,-2.70821 -2.397525,-3.221208 -4.869427,-7.776968 -3.528407,-11.768012 0.926927,-2.009433 6.981679,-3.334346 1.727895,-4.257917 -1.882939,-0.139335 -3.644374,-0.880524 -5.417964,-1.45309 z m 6.853516,0.02734 c -0.182177,0.922756 4.692643,3.4873 1.726563,4.703134 1.569327,0.736717 3.876313,3.870037 3.429506,0.0081 -0.687085,-2.271305 -2.582451,-4.675409 -5.156069,-4.711227 z m 53.566406,0.390625 c 1.653719,0.987802 3.478085,2.590983 0.402347,2.734374 -0.61371,-0.657312 -1.144028,-1.985894 -0.402347,-2.734374 z m 29.919913,0.02734 c -2.85599,0.158461 -3.07596,3.635498 -0.20898,0.781238 0.19568,-0.131206 0.68865,-0.624542 0.20898,-0.781238 z m -88.828116,1.867188 c 4.33013,0.511065 -0.963547,4.721413 0,0 z m 83.249996,0.05469 c -2.72445,1.025945 -0.34445,5.406787 0.1858,1.180404 0.0487,-0.305975 0.42556,-1.137645 -0.1858,-1.180404 z m 10.27148,0.179688 c 3.00959,3.228052 -4.12007,-0.32397 0,0 z m -81.374992,1.333988 c -2.075613,1.312856 2.477834,1.435158 0,0 z m 74.630852,1.207031 c -3.81251,-0.294488 -3.20499,3.503108 -3.06838,5.562501 3.81829,-2.1905 0.49555,3.382125 1.66385,3.765628 4.98642,-0.630226 7.93417,-8.581438 1.40453,-9.328129 z m -74.550774,0.984375 c -1.443955,0.738057 -3.454434,5.262319 -0.494139,2.539051 0.454,-0.532914 1.193395,-1.94074 0.494139,-2.539051 z m 74.263664,0.115235 c 2.93626,0.856046 2.16537,3.099357 -0.48437,1.537113 -1.53715,0.716549 -0.3951,-1.834376 0.48437,-1.537113 z m -47.539054,1.138671 c -2.84585,0.582877 -1.208717,5.209919 0.244131,1.257813 0.221598,-0.307816 0.378695,-1.206107 -0.244131,-1.257813 z m 20.484375,2.302735 c -1.594879,0.455957 2.657873,1.753597 2.050768,3.484372 1.729836,1.707593 6.542661,1.361365 6.599731,-0.164067 -2.256325,-1.339241 -4.461085,2.323788 -4.136705,-1.820313 -1.609842,0.962892 -2.931552,-0.681601 -4.513794,-1.499992 z M 69.08936,88.768016 c 0.236655,-0.0016 -0.186233,0.185941 0,0 z m 19.632813,0.15625 c 1.823485,0.688581 2.629577,1.935121 0,0 z m 18.470697,0.878906 c -2.66478,-0.585716 -3.6358,2.291115 -0.34963,1.070315 0.71997,0.078 1.52832,-1.102126 0.34963,-1.070315 z m 13.40234,2.054685 c -1.3226,3.57303 -7.85174,3.60534 -9.45511,2.45313 3.35799,0.0146 6.62442,-0.53504 9.45511,-2.45313 z m -37.111319,0.73828 c -2.726312,1.3264 4.068465,2.71307 0.587889,0.20112 l -0.587891,-0.20118 2e-6,6e-5 z m 13.855464,0.0742 c 2.09275,0.33896 -1.62576,0.33076 -2e-5,-4e-5 l 2e-5,4e-5 z m -15.107417,0.70508 c -3.301662,0.21522 -1.472843,7.305173 -6.615379,4.47203 -1.517267,-1.10675 -1.542484,-2.37623 -4.133306,-1.33786 -1.347186,0.54875 -3.347017,0.77146 -4.095053,1.69963 2.021586,3.726503 8.117648,0.61482 9.3965,5.517803 0.424364,1.88963 -5.07919,7.59908 -0.496786,3.7978 2.592104,-0.53338 2.177111,-8.687643 3.793637,-3.76867 1.540615,5.28604 0.832179,-7.848083 2.417876,-1.41837 1.646064,4.57517 -1.885916,8.01892 -4.431541,10.81091 1.385084,4.26512 -3.90348,-3.09604 -4.619147,-3.73053 -1.603481,2.43348 3.789853,8.51429 6.889911,7.14615 3.707936,-1.46079 11.07031,-5.06297 6.13743,-9.52506 -3.212324,-0.60309 -2.963789,-6.79042 0.376525,-3.18597 4.273765,1.35875 0.144708,-3.60369 -2.122616,-3.30231 -1.777763,-1.287253 0.108963,-2.653163 -2.189452,-3.740263 3.378493,-1.25731 -2.687706,-1.46659 0.16797,-3.25782 l -0.173828,-0.15234 -0.302735,-0.0254 -6e-6,2.7e-4 z m 3.505859,2.08594 c -1.240069,1.56285 1.848156,3.29942 -0.02431,4.43668 3.52134,4.890653 2.475926,-4.01511 0.02431,-4.43668 z m 37.771483,0.57226 c -3.02842,3.01764 2.28723,4.195973 0,0 z m -50.705076,1.61329 c 1.281169,0.55463 -3.021407,0.90103 -3.8e-5,7e-5 l 3.8e-5,-7e-5 z m 48.962886,0.875 c 0.22337,3.732443 -2.59319,6.800723 -3.18903,10.782783 -0.006,3.33591 -7.1031,6.24432 -1.37436,7.87439 3.95,0.18092 2.99755,-4.8791 2.90624,-7.70684 -0.77651,-2.85967 3.03657,-3.71211 1.76525,-0.35772 -0.92628,3.52965 2.64846,1.7639 1.62995,-0.92083 1.77323,-2.41353 -2.69335,-4.01827 -0.55663,-6.91016 -0.0637,-0.92893 -0.18899,-2.354893 -1.18142,-2.761623 z m -17.39453,2.476563 c -2.84952,1.19236 -3.56352,4.29031 -1.40015,6.63864 -0.6286,-0.16727 -5.206165,0.61135 -4.371055,-0.70307 3.666665,-0.15882 1.36555,-7.562953 0.26444,-2.49927 -0.76404,1.64375 -4.21296,3.67026 -0.67658,3.38013 1.52082,2.20885 3.766335,4.80235 5.589215,0.91267 1.66448,-2.11089 0.13203,-5.03366 1.17836,-7.48691 l -0.25788,-0.18222 -0.3261,-0.06 -2.5e-4,-1e-5 z m -46.4707,0.64062 c -1.812856,1.83613 1.027777,5.12296 -2.451172,5.3164 2.660942,1.74114 -5.54527,3.15093 -2.08398,0.0254 1.887115,-3.37408 -5.292701,-7.376313 -2.757811,-1.54881 -0.646469,3.37213 4.521159,8.5744 6.457023,3.9121 3.713571,-0.66031 1.846068,-5.77073 0.83594,-7.70505 z m 27.632813,2.55274 c -1.346093,1.74281 5.60552,4.45136 2.36859,1.16351 -0.754587,-0.45032 -1.539404,-0.86808 -2.36859,-1.16351 z m -37.646485,1.00781 c -2.255925,1.53675 2.662403,1.14993 0,0 z m 3.988281,0.0957 c 1.277406,1.22556 -1.013674,2.86542 0,0 z m -14.484375,1.18555 c 2.348523,1.93828 -0.647903,7.90807 -0.669921,2.31439 0.156889,-0.53546 -0.145113,-2.19355 0.669921,-2.31439 z m 42.046875,0.29883 c -2.581553,0.93922 -3.113836,5.69081 -0.512424,1.71673 0.07846,-0.40488 1.325434,-1.44059 0.512424,-1.71673 z m 4.867188,0.44336 c 1.99879,1.16301 3.097455,4.14734 0.428255,0.88894 l -0.348181,-0.59988 -0.08008,-0.28906 6e-6,0 z m -7.941406,3.08203 c -2.82763,1.25433 3.087017,2.51875 0,0 z m -7.949219,3.6914 c -1.155931,1.4428 3.284295,2.15165 0.566405,0.19533 l -0.566406,-0.19532 10e-7,-1e-5 z m -10.171875,1.625 c 1.810897,0.62674 -5.257776,1.71145 -6.960938,2.17192 -1.95246,-0.38767 -8.703568,3.16522 -7.998045,1.64261 4.605348,-2.35832 9.810786,-3.54974 14.958983,-3.81453 z m 40.763668,0.31055 c 5.382925,0.0632 10.886555,1.30902 15.462885,4.21485 -4.81026,-2.10427 -10.08744,-3.01591 -15.304935,-3.34717 -2.2461,-0.44669 -2.22819,-0.78377 -0.15795,-0.86768 z m -1.96484,2.46094 c 3.899495,0.2186 8.621555,0.12828 11.474715,3.20898 -2.43698,1.32451 4.06857,1.34035 -0.0938,3.00783 -1.15819,0.84547 -2.18743,1.32249 -3.66509,1.08568 -1.96184,0.61816 -7.875245,0.16639 -7.600575,1.98859 3.427305,-0.0504 7.055955,-0.61458 10.161435,-1.81269 2.30242,-0.28958 8.80111,-1.84492 3.0808,0.32457 -4.51151,0.91695 -8.92193,2.34163 -13.515485,2.82 -2.267005,0.0312 -7.388196,0.645 -8.334117,-0.25936 1.784851,-0.144 10.766447,-1.02001 4.704927,-1.73307 -2.211887,-0.69211 -8.751527,1.20681 -8.441031,-0.84739 3.00524,-3.90732 6.642329,-8.61026 12.212881,-7.78125 l 0.0156,-0.002 -2.7e-4,1.1e-4 z m -57.640625,3.30859 c 2.408777,0.93578 -0.153454,2.06587 0,0 z m 17.226563,1.51367 c -2.257679,0.29188 1.999657,1.73491 2.866017,0.93734 -0.01552,-0.80572 -1.68368,-0.3713 -2.009059,-0.8359 l -0.855005,-0.10142 -0.002,0 4.7e-5,-2e-5 z m 32.417968,0.43165 c -5.151294,1.33465 1.297521,3.16664 2.230512,1.03341 -0.492477,-0.6617 -1.427884,-0.99834 -2.230512,-1.03341 z m 5.294922,0.38085 c -3.81608,1.14316 2.921152,1.54411 -4.1e-5,6e-5 l 4.1e-5,-6e-5 z m -53.091797,0.28321 c 0.426502,0.36236 -0.05529,0.21067 0,0 z m 11.585938,0.81445 c -3.912662,0.65941 6.127586,1.69569 1.061058,0.0874 l -1.06106,-0.0874 2e-6,-1e-5 z"
     id="path4809"
     inkscape:connector-curvature="0" />
  <path
     style="fill:#000000;fill-opacity:1;fill-rule:evenodd;stroke:#000000;stroke-width:1px;stroke-linecap:butt;stroke-linejoin:miter;stroke-opacity:1"
     d="m 90.895426,201.71393 c -2.211206,1.37869 -3.005333,7.22457 -3.005333,7.22457 0,0 6.660751,1.54668 9.617085,0.30103 4.640052,-1.95509 10.218162,-11.1379 10.218162,-11.1379 0,0 -4.78294,-4.34596 -6.91228,-3.01024 -2.039431,1.27931 1.4872,5.6112 -0.30055,7.22458 -2.386236,2.15351 -6.890286,-2.30223 -9.617084,-0.60204 z m -32.457653,1.20409 c -1.991434,2.47272 -1.931452,4.07755 1.530469,4.24311 l 9.589277,2.68045 8.414952,107.46562 9.316556,4.21434 c 1.396602,-1.77587 3.557053,-3.24919 4.508004,-5.20158 -0.358499,-1.63549 1.041976,-7.12052 -1.455227,-4.07542 -1.817195,1.22922 -3.629041,3.82071 -5.449528,4.21114 -1.814486,-1.80019 -4.380113,-3.22541 -5.740123,-5.25247 l -5.988225,-102.56573 3.906938,-6.32151 c -2.493857,-1.83206 -4.118068,-1.4948 -4.591275,1.71364 -0.188198,2.32164 -4.95045,0.30509 -4.86837,-1.35515 -0.05321,-2.65104 -4.052224,-9.4e-4 -5.847385,-0.31169 z m 21.037369,-60.80688 c 4.341845,-5.70774 -3.509319,-5.12829 -5.146647,-0.41391 -4.588893,4.95122 -1.851521,11.96367 -1.900494,17.91491 0.7965,10.32532 1.660949,20.64525 2.539137,30.96389 2.47647,3.48383 2.180147,0.61531 1.939041,-2.1267 l -1.638513,-42.12386 z"
     id="path4803"
     inkscape:connector-curvature="0"
     sodipodi:nodetypes="scscssscccccccccccccccccccccc" />
</svg>
