<?xml version="1.0" encoding="UTF-8" standalone="no"?>
<!-- Created with Inkscape (http://www.inkscape.org/) -->

<svg
   xmlns:dc="http://purl.org/dc/elements/1.1/"
   xmlns:cc="http://creativecommons.org/ns#"
   xmlns:rdf="http://www.w3.org/1999/02/22-rdf-syntax-ns#"
   xmlns:svg="http://www.w3.org/2000/svg"
   xmlns="http://www.w3.org/2000/svg"
   xmlns:sodipodi="http://sodipodi.sourceforge.net/DTD/sodipodi-0.dtd"
   xmlns:inkscape="http://www.inkscape.org/namespaces/inkscape"
   width="164mm"
   height="164mm"
   viewBox="0 0 581.10236 581.10236"
   id="svg4440"
   version="1.1"
   inkscape:version="0.91 r13725"
   sodipodi:docname="Labyrinth.svg">
  <defs
     id="defs4442" />
  <sodipodi:namedview
     id="base"
     pagecolor="#ffffff"
     bordercolor="#666666"
     borderopacity="1.0"
     inkscape:pageopacity="0.0"
     inkscape:pageshadow="2"
     inkscape:zoom="0.35"
     inkscape:cx="446.97976"
     inkscape:cy="222.1799"
     inkscape:document-units="px"
     inkscape:current-layer="layer1"
     showgrid="false"
     fit-margin-top="0"
     fit-margin-left="0"
     fit-margin-right="0"
     fit-margin-bottom="0" />
  <metadata
     id="metadata4445">
    <rdf:RDF>
      <cc:Work
         rdf:about="">
        <dc:format>image/svg+xml</dc:format>
        <dc:type
           rdf:resource="http://purl.org/dc/dcmitype/StillImage" />
        <dc:title></dc:title>
      </cc:Work>
    </rdf:RDF>
  </metadata>
  <g
     inkscape:label="Layer 1"
     inkscape:groupmode="layer"
     id="layer1"
     transform="translate(644.83691,329.61754)">
    <g
       transform="translate(-1417.2778,-28.436388)"
       id="g4276"
       style="display:inline;fill:#ffffff;fill-opacity:1;stroke-linecap:round">
      <circle
         transform="matrix(2.334414,0,0,2.334414,-594.44187,-2005.5164)"
         id="path3883"
         style="color:#000000;display:inline;overflow:visible;visibility:visible;fill:#ffffff;fill-opacity:1;stroke:#000000;stroke-width:6.07142878;stroke-linecap:round;stroke-linejoin:round;stroke-miterlimit:4;stroke-dasharray:none;stroke-dashoffset:0;stroke-opacity:1;marker:none;enable-background:accumulate"
         cx="710"
         cy="854.55554"
         r="121.42857" />
      <path
         inkscape:connector-curvature="0"
         d="m 1167.8439,-28.365153 c 1.9728,11.728349 1.9729,23.7121179 0,35.4404667 -3.5386,21.0355013 -13.4254,41.2098333 -29.6587,57.4420463 -16.2323,16.233214 -36.4064,26.120013 -57.442,29.6587 l 0,-36.190428 c -11.6097,2.986142 -23.8304,2.984841 -35.4405,0 -11.8702,-3.051947 -23.1142,-9.238747 -32.4088,-18.532699 -9.292,-9.292452 -15.44867,-20.510759 -18.50149,-32.3776193 -2.98682,-11.6112393 -2.98554,-23.8291277 0,-35.4404667 3.05215,-11.86936 9.20759,-23.11487 18.50149,-32.408822 9.294,-9.293952 20.5395,-15.44934 32.4088,-18.501497 11.6115,-2.985541 23.8294,-2.986821 35.4405,0 11.8669,3.052827 23.0851,9.209445 32.3776,18.501497 9.2941,9.294552 15.4808,20.538662 18.5327,32.408822 2.9849,11.610139 2.9862,23.8306275 0,35.4404667 l -86.3508,0 0,-35.4404667 m 0,-122.916147 c -30.1635,3.77958 -59.34606,17.24898 -82.5066,40.40952 -23.16054,23.160546 -36.62994,52.343087 -40.40952,82.506627 l 35.8154,0 c 3.5386,-21.036102 13.39449,-41.240436 29.6274,-57.473349 16.23292,-16.232908 36.43722,-26.088798 57.47332,-29.627398 m 35.4405,245.45736 c 30.1639,-3.77941 59.3454,-17.2491 82.5067,-40.409472 23.1604,-23.161174 36.63,-52.342834 40.4094,-82.5066743 M 1080.7432,-115.4659 c 21.0355,3.5387 41.2098,13.39468 57.442,29.627398 16.2334,16.232913 26.1202,36.437247 29.6587,57.473349 l 35.8154,0 c -3.7794,-30.16384 -17.2491,-59.345831 -40.4094,-82.506627 -23.161,-23.16053 -52.3431,-36.62994 -82.5067,-40.40952 -11.7654,-1.47415 -23.6752,-1.47415 -35.4405,0 l 0,-35.65913 c -39.2752,3.92145 -77.48378,20.91678 -107.57113,51.00412 -30.08734,30.08735 -47.08268,68.29598 -51.00412,107.571157 -1.17626,11.780853 -1.17795,23.6596137 0,35.4404667 M 1045.3027,-222.50581 c -48.36754,4.01928 -95.62886,24.49818 -132.63565,61.50498 -37.0068,37.00679 -57.4857,84.268114 -61.50498,132.635677 M 1045.3027,165.61934 C 1006.0275,161.69792 967.81892,144.73405 937.73157,114.64642 907.65074,84.565882 890.65371,46.34149 886.72745,7.0753137 l -35.56538,0 c 4.02252,48.3618123 24.50233,95.6017363 61.50498,132.6044263 37.00714,37.00709 84.26763,57.51705 132.63565,61.53628 11.7913,0.97958 23.6493,0.98038 35.4405,0 l 0,35.53407 c 57.4534,-4.08943 113.7431,-28.07997 157.6689,-72.00582 43.9259,-43.92586 67.9164,-100.215509 72.0059,-157.6689563 0.8395,-11.7956542 0.8395,-23.6447127 0,-35.4404667 -4.0894,-57.453728 -28.0798,-113.774177 -72.0059,-157.700207 -43.9258,-43.92588 -100.2155,-67.91642 -157.6689,-72.00582 l 0,-35.50288 c 66.5322,4.14417 131.8911,31.63298 182.7335,82.47542 50.8472,50.84726 78.304,116.194794 82.4441,182.733487 0.7344,11.802355 0.7352,23.638112 0,35.4404667 -4.1441,66.5321823 -31.6017,131.8910663 -82.4441,182.7334863 -50.8424,50.84241 -116.2013,78.30003 -182.7335,82.44416 -11.8024,0.73516 -23.6381,0.73436 -35.4405,0 m 35.4405,-71.03694 c 48.3623,-4.02253 95.6014,-24.53329 132.6044,-61.53628 37.003,-37.00299 57.5138,-84.242014 61.5363,-132.6044263 M 1045.3027,94.17606 C 1024.2666,90.637473 1004.0623,80.750774 987.82938,64.51736 971.59666,48.285047 961.74068,28.110715 958.20198,7.0753137 l -35.8154,0 c 3.77958,30.1636403 17.24899,59.3458003 40.40952,82.5066743 23.16079,23.160472 52.3428,36.630062 82.5066,40.409472 11.7646,1.47402 23.6759,1.47402 35.4405,0 l 0,35.62788 c 39.2662,-3.92622 77.4906,-20.89189 107.5711,-50.97292 30.0811,-30.080438 47.0467,-68.30483 50.9729,-107.5711063 1.178,-11.780853 1.1763,-23.6596137 0,-35.4404667 m -158.544,-158.575277 c 39.2663,3.92626 77.4907,20.92329 107.5711,51.00412 30.0876,30.08735 47.0515,68.29598 50.9729,107.571157 l 35.5967,0 c -4.0192,-48.368043 -24.5292,-95.628537 -61.5363,-132.635677 -37.0027,-37.00265 -84.2426,-57.48246 -132.6044,-61.50498 -11.7921,-0.98079 -23.6484,-0.97989 -35.4405,0 l 0,-35.56537 c -57.45373,4.08926 -113.77413,28.07977 -157.70018,72.00582 -43.92606,43.92605 -67.91657,100.246449 -72.00583,157.700207 -0.83954,11.795654 -0.83957,23.6448125 0,35.4404667 4.0894,57.4534473 28.07994,113.7430963 72.00583,157.6689563 43.92603,43.92605 100.24648,67.91649 157.70018,72.00582 l 0,35.50287 C 978.76403,268.11283 913.4165,240.65601 862.56924,189.8088 811.7268,138.96638 784.23799,73.607496 780.09382,7.0753137 c -0.73514,-11.8023547 -0.73436,-23.6381117 0,-35.4404667 4.14015,-66.538693 31.62817,-131.886227 82.47542,-182.733487 50.84726,-50.84725 116.19479,-78.33527 182.73346,-82.47542 11.8024,-0.73436 23.6381,-0.73514 35.4405,0"
         style="color:#000000;display:inline;overflow:visible;visibility:visible;fill:#ffffff;fill-opacity:1;stroke:#000000;stroke-width:7.08661413;stroke-linecap:round;stroke-linejoin:round;stroke-miterlimit:4;stroke-dasharray:none;stroke-opacity:1;marker:none;enable-background:accumulate"
         id="path3755" />
    </g>
  </g>
</svg>
