<?xml version="1.0" encoding="UTF-8" standalone="no"?>
<!-- Created with Inkscape (http://www.inkscape.org/) -->

<svg
   xmlns:dc="http://purl.org/dc/elements/1.1/"
   xmlns:cc="http://creativecommons.org/ns#"
   xmlns:rdf="http://www.w3.org/1999/02/22-rdf-syntax-ns#"
   xmlns:svg="http://www.w3.org/2000/svg"
   xmlns="http://www.w3.org/2000/svg"
   xmlns:xlink="http://www.w3.org/1999/xlink"
   xmlns:sodipodi="http://sodipodi.sourceforge.net/DTD/sodipodi-0.dtd"
   xmlns:inkscape="http://www.inkscape.org/namespaces/inkscape"
   id="svg4286"
   version="1.1"
   inkscape:version="0.91 r13725"
   width="173.75"
   height="358.75"
   viewBox="0 0 173.75 358.75"
   sodipodi:docname="orichalcum.svg">
  <metadata
     id="metadata4292">
    <rdf:RDF>
      <cc:Work
         rdf:about="">
        <dc:format>image/svg+xml</dc:format>
        <dc:type
           rdf:resource="http://purl.org/dc/dcmitype/StillImage" />
        <dc:title />
      </cc:Work>
    </rdf:RDF>
  </metadata>
  <defs
     id="defs4290" />
  <sodipodi:namedview
     pagecolor="#ffffff"
     bordercolor="#666666"
     borderopacity="1"
     objecttolerance="10"
     gridtolerance="10"
     guidetolerance="10"
     inkscape:pageopacity="0"
     inkscape:pageshadow="2"
     inkscape:window-width="640"
     inkscape:window-height="480"
     id="namedview4288"
     showgrid="false"
     inkscape:zoom="1.5847076"
     inkscape:cx="148.65486"
     inkscape:cy="113.99033"
     inkscape:current-layer="svg4286" />
  <image
     sodipodi:absref="/home/gereon/tmp/games/Empire-Marches/encyclopediaimperialis/encyclopedia/orichalcum.png"
     xlink:href="orichalcum.png"
     width="173.75"
     height="358.75"
     preserveAspectRatio="none"
     style="image-rendering:optimizeSpeed"
     id="image4294"
     x="0"
     y="0" />
  <path
     inkscape:connector-curvature="0"
     id="path4543"
     d="m 9.1240965,355.9375 c -1.4089286,-1.54688 -3.2282084,-4.10416 -4.0428437,-5.68287 -0.8146354,-1.57871 -2.0253133,-6.0787 -2.6903952,-10 C 0.30579245,327.96118 0.95359438,103.74539 3.2826065,31.604455 3.8407269,14.316731 4.4389365,8.4843453 5.7670142,7.3821386 7.0374045,6.3278084 29.71917,5.752981 88.618685,5.2824164 l 81.102385,-0.6479497 0.68772,3.6202667 c 0.37825,1.9911466 0.86287,80.8683006 1.07696,175.2825666 l 0.38925,171.66229 -2.42641,1.77521 -2.42641,1.7752 -77.6682,0 -77.668195,0 -2.5616885,-2.8125 z"
     style="fill:#9c7f75;fill-opacity:1" />
  <path
     style="fill:#8f6c63"
     d="m 96.157642,129.48629 c 1.000637,-1.2057 1.049062,-2.02002 0.153056,-2.57378 C 95.589814,126.46699 94.4375,126.4501 93.75,126.875 c -1.540279,0.95195 -1.660033,4.375 -0.153056,4.375 0.60332,0 1.755633,-0.79368 2.560698,-1.76371 z"
     id="path4665" />
  <path
     style="fill:#8f6c63"
     d="M 24.375,12.5 C 24.799899,11.8125 24.551845,11.25 23.823771,11.25 23.095697,11.25 22.5,11.8125 22.5,12.5 c 0,0.6875 0.248052,1.25 0.551229,1.25 0.303176,0 0.898872,-0.5625 1.323771,-1.25 z"
     id="path4541" />
  <path
     inkscape:connector-curvature="0"
     id="path4539"
     d="M 30.977398,356.36192 C 17.013789,355.8026 12.137837,355.17311 10.746011,353.75 6.77952,349.69436 4.6502874,340.34667 3.0583793,320 1.9374427,305.67296 1.5718064,279.71772 1.8609684,235 2.332285,162.11279 4.8434642,18.960462 5.7585831,12.8125 6.1177534,10.399518 7.0909096,8.75 8.1553118,8.75 10.71929,8.75 21.25,24.951435 21.25,28.8961 c 0,1.813784 1.767187,0.481707 3.028413,0.42539 2.051761,-0.09162 0.275866,2.690002 3.013675,1.562678 3.096752,-1.275123 7.573373,-1.090408 18.460446,-0.330454 5.093734,0.355559 12.636323,1.317664 20.191552,1.755416 20.605145,1.193868 25.431436,-0.273547 33.702849,-0.68512 4.598275,-0.228803 6.041665,2.162562 15.786235,-1.747998 3.78555,-1.519169 33.05138,6.568445 33.00983,-1.784184 C 148.4193,23.324314 151.72262,25 152.97794,25 c 2.2904,0 11.95066,-9.734046 13.62065,-13.724685 l 1.31833,-3.150315 0.83217,5.456224 c 0.70947,4.651701 1.66917,161.308476 1.82901,298.559586 l 0.0469,40.26581 -1.99301,1.99507 -1.99301,1.99506 -58.63199,0.35105 c -32.247591,0.19307 -66.910906,0.0195 -77.029592,-0.38588 z M 89.155821,195.42751 C 90.2824,194.30094 87.591979,191.25 85.471944,191.25 c -2.149923,0 -2.276718,3.31781 -0.159444,4.17215 2.282053,0.92082 2.926956,0.92172 3.843321,0.005 z m -5.489155,-18.7529 c 0.297918,-0.25645 -0.0225,-1.03045 -0.712046,-1.71999 -1.814219,-1.81422 -17.604311,-2.05493 -19.364047,-0.2952 -1.102912,1.10292 -0.732249,1.61188 1.541121,2.11613 5.320481,1.18011 10.406929,1.51321 14.243306,0.93275 2.0625,-0.31208 3.99375,-0.77723 4.291666,-1.03369 z M 138.125,58.75 c -0.4249,-0.6875 0.38565,-1.25 1.80122,-1.25 1.41558,0 2.57378,0.5625 2.57378,1.25 0,0.6875 -0.81055,1.25 -1.80123,1.25 -0.99067,0 -2.14887,-0.5625 -2.57377,-1.25 z m -44.375,-6.875 0,-3.125 3.75,0 c 2.24359,0 3.75,0.652777 3.75,1.625 0,2.318822 -2.617824,4.625 -5.25,4.625 -1.566666,0 -2.25,-0.949074 -2.25,-3.125 z"
     style="fill:#6a494d"
     sodipodi:nodetypes="sssssssssssssssscsscccsscsscccsssscsssssscssss" />
  <path
     inkscape:connector-curvature="0"
     id="path4535"
     d="M 36.064349,355.11189 14.003698,354.375 11.376849,351.99376 c -1.4447672,-1.30967 -2.6124512,-3.84092 -2.5948541,-5.625 0.017597,-1.78406 1.9863471,-6.31145 4.3750001,-10.06084 2.388652,-3.74939 4.343005,-7.71502 4.343005,-8.8125 0,-1.09748 0.607304,-2.60272 1.349565,-3.34498 0.913886,-0.91389 1.066644,-5.9439 0.473181,-15.58107 l -0.876384,-14.23148 -4.683656,0.44666 -4.6836562,0.44666 -0.9436414,-3.55311 C 7.6164056,289.7239 6.9329945,288.82812 6.6167169,289.6875 6.3004392,290.54687 5.4600151,291.25 4.7491076,291.25 3.8644448,291.25 3.655284,259.06695 4.0863099,189.26696 4.5370521,116.27413 5.1150226,86.884977 6.1195202,85.88048 7.1574523,84.842547 7.4823426,86.091506 7.3669781,90.676015 7.2811829,94.085458 7.8432073,99.929644 8.615921,103.6631 9.9371418,110.04672 12.811095,115 15.193735,115 15.77468,115 16.25,113.94388 16.25,112.65306 c 0,-1.29082 0.84375,-3.0472 1.875,-3.90306 1.03125,-0.85586 1.875,-2.64543 1.875,-3.97683 0,-1.33139 0.5625,-2.07307 1.25,-1.64817 0.6875,0.4249 1.25,0.17685 1.25,-0.55123 0,-0.72807 -0.509839,-1.32377 -1.132975,-1.32377 -0.623137,0 -0.837999,-1.128 -0.47747,-2.506657 0.360528,-1.378663 0.01967,-3.272781 -0.757439,-4.209153 -1.071295,-1.29083 -0.959419,-2.078886 0.462679,-3.259121 l 1.875622,-1.556629 0.773528,2.01578 C 24.42817,94.82026 27.5,94.159504 27.5,90.818735 c 0,-1.612196 1.047961,-3.879657 2.328801,-5.038803 3.177535,-2.875628 7.313406,-3.515302 8.177044,-1.264701 0.38699,1.00848 0.03661,2.90165 -0.778623,4.207045 -1.113086,1.782335 -1.130776,3.093112 -0.07102,5.263084 0.776167,1.589302 1.651903,5.450205 1.946082,8.57979 0.318795,3.39147 1.92557,7.79163 3.977412,10.89218 l 3.442544,5.20203 8.966679,-0.0468 c 4.931674,-0.0258 10.354796,0.30098 12.051384,0.72606 1.875414,0.46988 4.064774,0.0447 5.584704,-1.08466 l 2.5,-1.85752 -1.37766,-2.26072 c -0.757713,-1.24339 -2.701742,-2.45564 -4.320065,-2.6939 -1.618324,-0.23825 -5.017624,0.18856 -7.554002,0.94848 -2.536377,0.75992 -5.514223,1.03529 -6.617435,0.61195 C 54.652627,112.5789 53.75,111.18177 53.75,109.89751 l 0,-2.33501 3.634735,0.72695 3.634736,0.72694 1.472289,-2.751 c 1.055726,-1.97263 2.228254,-2.5533 4.14414,-2.05229 1.705441,0.44598 3.640484,-0.21128 5.349852,-1.81715 l 2.678002,-2.515847 4.855622,2.247447 c 2.670594,1.2361 5.275356,2.80995 5.788362,3.49745 0.513006,0.6875 0.794256,2.375 0.625,3.75 -0.231119,1.87756 0.524068,2.59616 3.033176,2.88621 2.403195,0.27781 3.700617,1.41806 4.622475,4.0625 L 94.869951,120 l 6.627529,-0.0705 c 3.64513,-0.0388 8.57679,-0.74193 10.95924,-1.5625 2.49761,-0.86024 5.55963,-3.31815 7.23178,-5.80502 2.11987,-3.15273 2.68703,-5.28302 2.10819,-7.91845 -0.57022,-2.5962 0.33936,-6.199906 3.24951,-12.874435 C 127.26895,86.67107 129.52811,82.5 130.06655,82.5 c 0.53844,0 1.86874,0.341431 2.95621,0.758736 L 135,84.017472 l -0.0299,8.928764 c -0.0164,4.91082 -0.54887,11.167654 -1.18326,13.904074 l -1.15346,4.9753 2.00201,2.2122 2.00201,2.21219 -2.26183,2.4993 c -1.43177,1.58207 -2.33949,4.70622 -2.47343,8.51289 -0.11637,3.30747 -0.59842,6.63951 -1.07124,7.40454 -0.4728,0.76501 -2.51498,1.75451 -4.53817,2.19887 l -3.67854,0.80794 0.25537,3.66075 c 0.14045,2.01341 0.61167,3.66186 1.04715,3.66322 1.29483,0.004 2.03731,5.95874 0.96027,7.70143 l -0.99537,1.61055 -3.08398,-2.89724 -3.08397,-2.89725 -1.55524,2.93 c -0.85538,1.6115 -2.59097,3.66502 -3.85686,4.56337 -1.26585,0.89837 -2.30158,2.70671 -2.30158,4.01853 0,1.31182 1.125,2.98722 2.5,3.7231 1.39228,0.74512 2.5,2.61727 2.5,4.22525 0,1.588 1.02867,3.81821 2.28593,4.95601 1.25725,1.13781 3.50725,2.06874 5,2.06874 1.8259,0 2.71407,0.77136 2.71407,2.35711 0,1.29641 -0.83867,3.96829 -1.86371,5.9375 -1.21487,2.3339 -2.84678,3.58039 -4.6875,3.58039 l -2.82379,0 -0.14812,8.69802 -0.14813,8.69804 3.53061,3.5306 c 2.13818,2.13819 3.23783,4.29359 2.78824,5.46519 -0.43045,1.12174 -1.6905,1.68662 -2.99896,1.34446 -1.2802,-0.33479 -3.23383,0.49728 -4.51512,1.92299 l -2.25852,2.5131 2.79437,1.86673 2.79437,1.86672 -3.73187,3.48609 C 111.67934,228.18429 110,231.01221 110,232.55121 c 0,1.539 0.93514,3.48198 2.0781,4.31773 2.6433,1.93282 1.34973,5.63106 -1.96964,5.63106 -1.35851,0 -5.56127,2.85104 -9.33947,6.33564 -4.315096,3.97977 -7.013464,7.54616 -7.256726,9.5911 -0.212995,1.79051 -0.956095,3.44157 -1.651334,3.66905 -0.695239,0.22747 -1.820239,-0.8537 -2.5,-2.40262 l -1.23593,-2.81621 -7.738557,-1.37577 c -5.344763,-0.9502 -9.073689,-2.49718 -12.054712,-5.00099 -4.321157,-3.6294 -7.428883,-9.91118 -8.839006,-17.86665 -0.441426,-2.49039 -0.152534,-4.96353 0.699758,-5.99048 1.076861,-1.29753 1.08787,-2.11272 0.04265,-3.15795 -1.045224,-1.04522 -1.685564,-0.66107 -2.48062,1.48818 l -1.071702,2.89707 -2.716402,-4.39522 C 52.472381,221.05777 51.25,218.3425 51.25,217.4412 c 0,-0.90129 -0.668129,-3.48639 -1.48473,-5.74465 l -1.48473,-4.10595 1.966702,-2.2328 c 1.183181,-1.34326 2.185877,-5.42705 2.516846,-10.25063 0.547603,-7.98083 -0.796436,-14.35513 -3.786478,-17.95792 -0.88486,-1.06619 -2.657974,-1.60653 -4.064671,-1.23868 -1.394574,0.3647 -3.511341,-0.26715 -4.799005,-1.43246 -1.267125,-1.14674 -4.308644,-2.4103 -6.75893,-2.80792 l -4.455068,-0.72297 -1.151263,4.21389 c -0.644899,2.36048 -0.677873,4.73619 -0.07496,5.40139 0.591962,0.65312 1.076295,2.11282 1.076295,3.24376 0,2.59925 4.424731,6.69681 6.108075,5.65645 0.726801,-0.44919 1.618309,1.22821 2.094069,3.94005 0.455652,2.59723 1.579796,5.92339 2.498097,7.39146 0.918301,1.46808 1.323916,3.01495 0.901365,3.4375 -2.125128,2.12513 -4.119675,0.0873 -6.28285,-6.41922 l -2.389576,-7.1875 -2.798939,-0.41049 -2.79894,-0.4105 0.293173,8.5355 c 0.161244,4.69451 -0.157029,11.19659 -0.707275,14.44905 l -1.000445,5.91355 3.111765,4.08645 c 1.711471,2.24754 3.488276,5.27776 3.948456,6.73384 0.46018,1.45606 0.31643,4.01579 -0.319445,5.68826 -0.635876,1.67249 -0.857157,4.60489 -0.491737,6.51646 0.840921,4.39899 5.093202,6.26015 8.146707,3.56569 l 2.1875,-1.93029 0,1.79062 c 0,0.98482 -0.850149,3.00435 -1.889219,4.48783 l -1.889218,2.69724 -4.487907,-0.72829 -4.487907,-0.72828 0.460357,2.37167 c 0.343964,1.77205 1.531878,2.37169 4.698418,2.37169 2.330932,0 4.474041,0.69169 4.762464,1.53709 0.288422,0.8454 -1.520652,2.51231 -4.020164,3.70425 l -4.544569,2.16715 -1.155807,-1.82925 c -0.635694,-1.00608 -1.332464,-2.33178 -1.548378,-2.94599 -0.21612,-0.6148 -1.519662,-0.51354 -2.900171,0.22529 -1.379183,0.73811 -3.248599,0.88406 -4.154259,0.32433 -0.969895,-0.59942 -3.089357,-0.1897 -5.156952,0.99694 l -3.510298,2.01464 0.691275,3.77777 c 0.380202,2.07778 1.48272,4.41487 2.450041,5.19354 1.254724,1.01003 1.530267,2.84473 0.961458,6.40186 -0.58805,3.67745 -0.221295,5.8652 1.397389,8.33563 1.207083,1.84224 3.770732,4.16452 5.696997,5.16064 1.92626,0.99611 3.844676,1.81111 4.263141,1.81111 0.418465,0 0.44372,-0.51313 0.05612,-1.14027 -0.387599,-0.62714 0.282329,-0.99541 1.488729,-0.81834 1.2064,0.17706 2.123141,1.25269 2.037204,2.39027 -0.08594,1.13759 -0.226563,2.84649 -0.3125,3.79755 -0.08594,0.95106 -1.28125,2.0234 -2.65625,2.38298 -2.729518,0.71379 -3.457102,3.36806 -0.9375,3.42006 0.859375,0.0178 2.593201,2.26774 3.852947,5 l 2.290448,4.96775 4.728478,0 c 2.960338,0 6.01895,1.01509 8.179538,2.7146 l 3.451059,2.7146 3.670236,-1.38535 c 2.181882,-0.82357 7.175099,-1.09152 12.313121,-0.66077 l 8.642886,0.72458 0.788129,-2.05382 c 0.43347,-1.12961 1.543746,-2.05384 2.46728,-2.05384 0.923532,0 2.227811,0.9804 2.898396,2.17867 l 1.219245,2.17867 15.280186,-0.39759 c 9.359789,-0.24354 16.297329,-1.00671 17.905369,-1.9697 1.44385,-0.86466 3.18768,-1.50559 3.87518,-1.42429 0.6875,0.0813 2.48149,0.83254 3.98664,1.66942 1.77865,0.98893 3.00781,1.08282 3.51127,0.26819 0.42605,-0.68934 2.71019,-1.25337 5.07586,-1.25337 2.8808,0 4.30123,-0.58574 4.30123,-1.7737 0,-2.23061 4.05501,-9.4578 5.3125,-9.4684 0.51562,-0.004 0.9375,-0.85165 0.9375,-1.8829 0,-1.03125 -0.90935,-1.875 -2.02079,-1.875 -1.37502,0 -1.82089,-0.76445 -1.39522,-2.39219 0.42376,-1.62045 -0.1341,-2.59085 -1.7292,-3.00797 -2.5955,-0.67874 -3.21878,-5.16831 -0.91517,-6.59204 0.7918,-0.48935 2.12177,0.0431 2.95547,1.18329 l 1.51583,2.07302 4.37472,-1.82787 4.37472,-1.82788 -0.57626,-7.24169 c -0.52785,-6.63326 -0.64866,-11.80742 -0.40988,-17.55417 0.28875,-6.949 -0.33657,-12.47007 -1.60405,-14.16261 -0.79485,-1.0614 -2.57017,-2.37722 -3.94517,-2.92403 l -2.5,-0.9942 2.5,-0.94521 c 1.46394,-0.5535 2.86065,-0.38291 3.37026,0.41164 0.57346,0.89411 1.07056,0.72935 1.45763,-0.48313 0.75551,-2.36669 0.88598,-5.0178 0.73443,-14.92259 -0.068,-4.44545 -0.41142,-8.54821 -0.76311,-9.11726 -0.35169,-0.56904 0.01,-1.81777 0.80491,-2.77496 0.98873,-1.19134 1.0561,-2.46581 0.21362,-4.04003 -0.80967,-1.51285 -0.8054,-3.05975 0.0125,-4.52115 0.83532,-1.49265 0.80056,-3.49123 -0.106,-6.09175 -0.7421,-2.12866 -1.34924,-6.35777 -1.34924,-9.39803 0,-3.2469 -0.77366,-6.30143 -1.875,-7.40277 -1.03125,-1.03125 -1.875,-2.33171 -1.875,-2.88992 0,-0.5582 1.18755,-1.32548 2.63899,-1.70504 l 2.63898,-0.6901 -0.80246,-5.39319 c -0.44136,-2.96625 -0.92577,-7.36192 -1.07649,-9.76817 l -0.27402,-4.375 -3.125,-0.0805 c -3.86929,-0.0996 -10.168,-1.78219 -11.98438,-3.20138 -0.74766,-0.58417 -1.43618,-3.10525 -1.53007,-5.60241 l -0.17069,-4.54028 3.53528,0.70705 c 1.95356,0.39072 4.1761,0.0662 4.96757,-0.72523 0.78775,-0.78775 1.43229,-2.44479 1.43229,-3.68229 0,-1.2375 0.85446,-2.25 1.89881,-2.25 1.38401,0 1.69316,0.81939 1.14028,3.02229 -0.55192,2.19897 -0.114,3.36723 1.60735,4.28848 l 2.3659,1.2662 0.26277,-23.35098 c 0.14454,-12.84305 0.88751,-29.782475 1.65108,-37.643179 0.98446,-10.134816 1.00075,-14.91274 0.056,-16.425512 -0.86379,-1.383143 -0.94072,-3.610068 -0.21874,-6.332811 0.61245,-2.309718 2.32323,-10.293217 3.80172,-17.741107 2.63758,-13.286689 6.42574,-21.923625 9.66259,-22.030474 0.88154,-0.0291 2.1115,1.212718 2.73328,2.759593 1.27805,3.179632 1.59507,2.251084 1.38699,-4.0625 -0.0793,-2.40625 0.42008,-5.21875 1.10975,-6.25 0.90817,-1.357988 1.29672,0.365386 1.40913,6.25 0.0854,4.46875 0.29883,11.5 0.47435,15.625 0.17552,4.125 0.68879,76.18679 1.14059,160.13731 l 0.82146,152.63732 -2.09273,1.73768 -2.09274,1.73769 -53.87142,0.11187 c -29.62929,0.0615 -63.798726,-0.21971 -75.932084,-0.625 z M 140.662,317.44014 c 0.44524,-0.72042 0.51285,-2.083 0.15022,-3.02797 C 139.8481,311.89969 135,313.55426 135,316.39579 c 0,1.49701 0.88341,2.35421 2.42622,2.35421 1.33443,0 2.79053,-0.58944 3.23578,-1.30986 z m 6.52609,-22.12764 c 0.30515,-0.91648 -0.55645,-1.5625 -2.08393,-1.5625 -1.53541,0 -2.60416,0.80711 -2.60416,1.96665 0,1.16405 0.85046,1.80172 2.08391,1.5625 1.14616,-0.22228 2.31804,-1.10728 2.60418,-1.96665 z M 88.203929,239.42998 C 90.356006,236.14549 89.75138,233.75 86.77029,233.75 c -1.007691,0 -2.362738,-1.3955 -3.011213,-3.10113 -0.793816,-2.08788 -1.815162,-2.85702 -3.125966,-2.35402 -1.367492,0.52476 -1.571714,1.1992 -0.686197,2.26619 0.868247,1.04617 0.695986,2.26542 -0.553341,3.91651 -0.997736,1.3186 -1.831954,3.1187 -1.853819,4.00022 -0.03849,1.55154 3.987077,3.7812 7.11893,3.94299 0.843526,0.0436 2.438886,-1.30227 3.545245,-2.99078 z M 17.5,237.5 c 0,-0.6875 -0.5625,-1.25 -1.25,-1.25 -0.6875,0 -1.25,0.5625 -1.25,1.25 0,0.6875 0.5625,1.25 1.25,1.25 0.6875,0 1.25,-0.5625 1.25,-1.25 z m 46.25,-4.92623 c 0,-0.64692 -0.5625,-1.52387 -1.25,-1.94877 -0.6875,-0.4249 -1.25,0.10437 -1.25,1.17622 0,1.07183 0.5625,1.94878 1.25,1.94878 0.6875,0 1.25,-0.5293 1.25,-1.17623 z m 37.90514,-11.82656 c 0.7814,-2.03631 -0.26845,-3.47922 -1.82949,-2.51446 -1.419912,0.87756 -1.387651,4.26725 0.04061,4.26725 0.61395,0 1.41894,-0.78876 1.78888,-1.75279 z m -13.467544,-19.5985 c 0.459328,-0.7432 2.189014,-1.01147 3.84375,-0.59616 l 3.008609,0.75511 1.199084,-3.15384 C 96.898535,196.41922 97.959519,195 98.59678,195 c 0.637261,0 1.77033,-1.75464 2.51792,-3.89919 l 1.35927,-3.8992 2.76047,0.72188 c 3.013,0.78792 6.01556,-1.02179 6.01556,-3.6257 0,-1.11092 -1.52405,-1.56916 -4.6875,-1.40945 -5.05111,0.25502 -7.284583,-2.03432 -2.54951,-2.61328 7.32123,-0.89519 8.48701,-1.55084 8.48701,-4.7732 l 0,-3.2005 -3.83611,0.84255 -3.8361,0.84255 -0.68468,-2.61824 c -0.37658,-1.44002 -1.06908,-2.61822 -1.5389,-2.61822 -0.46982,0 -1.46882,0.61461 -2.22001,1.3658 -0.987735,0.98774 -2.078787,0.98423 -3.94153,-0.0126 -1.416651,-0.75816 -4.430165,-1.23215 -6.696699,-1.05329 L 85.625,169.375 l 0.391073,-2.8125 c 0.289907,-2.08494 -0.236532,-2.8125 -2.035035,-2.8125 -1.334359,0 -3.197842,1.16012 -4.141073,2.57806 L 78.125,168.90611 72.5,167.60861 C 65.299361,165.94766 58.75,165.89592 58.75,167.5 c 0,0.6875 0.5625,1.25 1.25,1.25 1.857315,0 1.513449,2.63704 -0.656535,5.03485 l -1.906536,2.1067 1.894377,1.57219 c 1.041906,0.8647 5.571249,1.86733 10.065203,2.22806 8.671815,0.6961 12.515969,2.8082 5.111078,2.8082 -4.828253,0 -10.757587,2.23967 -10.757587,4.06342 0,0.63919 1.6875,2.6429 3.75,4.45272 2.0625,1.80981 3.75,4.29031 3.75,5.51221 0,1.45883 0.965706,2.2353 2.8125,2.2614 1.546875,0.0219 3.904385,0.86563 5.238912,1.875 2.845023,2.15188 7.692209,2.41586 8.886184,0.48396 z M 107.5,196.38374 c 0,-1.30145 -0.92426,-2.72094 -2.05391,-3.15443 -1.12965,-0.43349 -2.30601,-0.53606 -2.61413,-0.22794 -0.30813,0.30813 -0.18971,1.72762 0.26314,3.15443 0.45285,1.42681 1.62921,2.5942 2.61413,2.5942 0.98492,0 1.79077,-1.06482 1.79077,-2.36626 z m 10,-15.83252 c 0,-2.06258 -1.97556,-2.41106 -3.125,-0.55122 -1.01938,1.6494 0.47526,3.99009 1.96137,3.07161 0.64,-0.39554 1.16363,-1.52971 1.16363,-2.52039 z m -62.096156,-11.5727 c 0.37764,-1.90962 -0.127101,-4.57968 -1.172283,-6.20133 -1.009503,-1.56629 -1.529009,-3.34365 -1.154456,-3.94969 1.034085,-1.67319 -0.629805,-5.0775 -2.481674,-5.0775 -0.900403,0 -1.920815,0.70312 -2.26758,1.5625 -0.424381,1.05172 -0.662742,0.93841 -0.729167,-0.34665 -0.157,-3.03731 -7.04753,-8.2993 -11.898773,-9.08655 l -4.44205,-0.72085 -0.730651,2.91115 c -0.426279,1.69842 0.199865,4.65956 1.503074,7.10827 1.228547,2.30842 2.118071,4.619 1.97672,5.13463 -0.415592,1.516 2.856995,1.0735 4.545047,-0.61455 l 1.552051,-1.55205 1.178808,1.86455 c 0.648345,1.0255 1.187421,3.09697 1.197949,4.60327 0.0105,1.5063 0.488947,3.02909 1.063155,3.38397 0.574207,0.35488 1.971357,-1.29942 3.104776,-3.67623 C 47.78221,161.94466 49.247956,160 49.906005,160 c 0.658049,0 1.600399,0.6536 2.09411,1.45244 0.505124,0.81731 -0.282527,2.4081 -1.801229,3.63786 -1.484387,1.20199 -2.698886,2.75821 -2.698886,3.45828 0,2.14704 3.721626,5.13385 5.531505,4.43933 0.940037,-0.36072 2.00759,-2.16495 2.372339,-4.00939 z M 10,151.32377 c 0,-0.64692 -0.5625,-1.52387 -1.25,-1.94877 -0.6875,-0.4249 -1.25,0.1044 -1.25,1.17622 0,1.07183 0.5625,1.94878 1.25,1.94878 0.6875,0 1.25,-0.5293 1.25,-1.17623 z M 12.5,141.25 c 0,-2.11969 -2.341475,-1.38185 -3.7060202,1.16782 C 6.6890007,146.35101 7.3129873,147.68701 10,145 c 1.375,-1.375 2.5,-3.0625 2.5,-3.75 z m 21.25,-3.68337 c 0,-1.51993 -0.769909,-2.23499 -2.1875,-2.03166 -1.348441,0.19343 -2.342664,1.62514 -2.592024,3.73263 l -0.404525,3.41886 2.592025,-1.38721 C 32.583589,140.53629 33.75,138.8566 33.75,137.56662 Z m 65.374575,-5.84237 c 5.374245,-2.72141 8.375425,-5.47652 8.375425,-7.68872 0,-1.36014 -0.87836,-1.61575 -3.4375,-1.00032 -1.89062,0.45467 -5.409239,1.2633 -7.819142,1.79695 -4.544144,1.00627 -11.815776,6.67874 -10.389694,8.10483 1.524701,1.5247 9.261168,0.81771 13.270911,-1.21274 z m -24.200398,-1.19062 c -2.668658,-3.21554 -10.179632,-6.35435 -15.861677,-6.62855 -2.921875,-0.141 -5.3125,0.23909 -5.3125,0.84463 0,0.60556 2.102692,2.59709 4.67265,4.42564 l 4.67265,3.32464 6.730406,0 6.730405,0 -1.631934,-1.96636 z M 30.71188,121.97387 c 0.991279,-3.94957 0.303822,-7.26162 -1.641689,-7.90939 -1.959121,-0.6523 -4.380992,5.48707 -3.39279,8.60062 0.407588,1.2842 1.536195,2.3349 2.508019,2.3349 0.971822,0 2.10873,-1.36176 2.52646,-3.02613 z m 97.83081,-1.89851 c 0.2838,-1.93907 -0.11688,-2.67764 -1.25,-2.30418 -0.91723,0.3023 -1.85565,1.83386 -2.08538,3.40346 -0.2838,1.93907 0.11688,2.67764 1.25,2.30418 0.91723,-0.3023 1.85565,-1.83386 2.08538,-3.40346 z m -45.350376,-5.18427 c 0.46192,-0.74741 0.237707,-1.96107 -0.498253,-2.69703 -0.95081,-0.95081 -1.892151,-0.87829 -3.252321,0.25055 -1.052818,0.87376 -1.60596,2.08742 -1.229206,2.69702 0.95142,1.53943 3.967292,1.38769 4.97978,-0.25054 z M 27.5,107.5 c 0,-0.6875 -0.5625,-1.25 -1.25,-1.25 -0.6875,0 -1.25,0.5625 -1.25,1.25 0,0.6875 0.5625,1.25 1.25,1.25 0.6875,0 1.25,-0.5625 1.25,-1.25 z M 3.75,298.27254 c 0,-1.71875 0.5625,-3.47264 1.25,-3.89754 0.7060114,-0.43634 1.25,0.58742 1.25,2.35246 0,1.71875 -0.5625,3.47264 -1.25,3.89754 -0.7060114,0.43634 -1.25,-0.58743 -1.25,-2.35246 z M 23.125,281.25 c 0.424899,-0.6875 1.335042,-1.25 2.022542,-1.25 0.687501,0 0.902357,0.5625 0.477458,1.25 -0.424899,0.6875 -1.335043,1.25 -2.022543,1.25 -0.6875,0 -0.902356,-0.5625 -0.477457,-1.25 z m 116.25,-3.75 c 0.4249,-0.6875 1.0206,-1.25 1.32377,-1.25 0.30318,0 0.55123,0.5625 0.55123,1.25 0,0.6875 -0.5957,1.25 -1.32378,1.25 -0.72807,0 -0.97612,-0.5625 -0.55122,-1.25 z M 21.25,265.89286 c 0,-3.45211 1.66511,-4.50501 3.199134,-2.02291 0.465672,0.75347 -0.06363,2.28026 -1.176229,3.39286 l -2.022905,2.0229 0,-3.39285 z m 15,0.58397 c 0,-1.51069 2.3715,-3.27199 3.238371,-2.40513 0.314624,0.31462 -0.2853,1.28357 -1.333164,2.15322 -1.18798,0.98594 -1.905207,1.08078 -1.905207,0.2519 z m 102.5,-3.35183 c 0,-1.03125 0.5625,-1.875 1.25,-1.875 0.6875,0 1.25,0.84375 1.25,1.875 0,1.03125 -0.5625,1.875 -1.25,1.875 -0.6875,0 -1.25,-0.84375 -1.25,-1.875 z M 40,255.625 c 0,-1.14584 0.604687,-1.88177 1.34375,-1.63541 0.739063,0.24635 1.34375,0.98228 1.34375,1.63541 0,0.65312 -0.604687,1.38906 -1.34375,1.63541 C 40.604687,257.50677 40,256.77084 40,255.625 Z m -5.555058,-18.54429 -2.29569,-1.67865 2.259395,-0.86701 c 2.765747,-1.06131 5.419995,1.13631 3.586669,2.96964 -0.839577,0.83957 -2.0142,0.6993 -3.550374,-0.42398 z M 42.5,231.94877 C 42.5,230.87695 43.0625,230 43.75,230 c 0.6875,0 1.25,0.5293 1.25,1.17622 0,0.64693 -0.5625,1.52388 -1.25,1.94878 -0.6875,0.4249 -1.25,-0.10437 -1.25,-1.17623 z M 29.375,216.25 c 0.424899,-0.6875 1.020595,-1.25 1.323771,-1.25 0.303176,0 0.551229,0.5625 0.551229,1.25 0,0.6875 -0.595698,1.25 -1.323771,1.25 -0.728074,0 -0.976128,-0.5625 -0.551229,-1.25 z m 14.375,-4.85246 c 0,-0.6875 0.5625,-1.59764 1.25,-2.02254 0.6875,-0.4249 1.25,-0.21004 1.25,0.47746 0,0.6875 -0.5625,1.59764 -1.25,2.02254 -0.6875,0.4249 -1.25,0.21004 -1.25,-0.47746 z M 121.875,206.25 c -0.49894,-0.80731 -0.34467,-2.03033 0.34283,-2.71783 0.83333,-0.83333 1.55239,-0.76072 2.15717,0.21783 0.49894,0.80731 0.34467,2.03032 -0.34283,2.71782 -0.83333,0.83334 -1.55239,0.76073 -2.15717,-0.21782 z m 1.875,-18.75 c 0,-0.6875 0.5957,-1.25 1.32378,-1.25 0.72807,0 0.97612,0.5625 0.55122,1.25 -0.4249,0.6875 -1.02059,1.25 -1.32377,1.25 -0.30318,0 -0.55123,-0.5625 -0.55123,-1.25 z m 13.37655,-7.04013 c -1.75772,-1.75771 -0.8022,-2.95987 2.35261,-2.95987 2.02748,0 3.03556,0.58146 2.70893,1.5625 -0.6017,1.80711 -3.77558,2.68335 -5.06154,1.39737 z m -9.27888,-13.1122 c -1.74372,-1.74372 -0.68015,-4.84767 1.66107,-4.84767 1.02401,0 1.74126,1.28722 1.74126,3.125 0,1.71875 -0.45,3.125 -1,3.125 -0.55,0 -1.63104,-0.63104 -2.40232,-1.40233 z m 0.38102,-25.92991 c -0.53847,-0.87125 -0.64145,-1.92166 -0.22887,-2.33426 1.11872,-1.1187 2.33847,0.52662 1.73424,2.33931 l -0.52635,1.57905 -0.97902,-1.5841 z m 7.4497,-5.08139 c -0.85385,-1.38153 1.118,-2.87331 2.27226,-1.71906 1.18849,1.18849 0.96699,2.88269 -0.37688,2.88269 -0.64692,0 -1.49985,-0.52364 -1.89538,-1.16363 z M 106.25,111.25 c 0,-0.6875 1.125,-1.25 2.5,-1.25 1.375,0 2.5,0.5625 2.5,1.25 0,0.6875 -1.125,1.25 -2.5,1.25 -1.375,0 -2.5,-0.5625 -2.5,-1.25 z m -3.60715,-3.66172 c -1.07467,-0.66417 -1.20251,-1.30837 -0.36268,-1.82742 0.7134,-0.4409 1.67353,-0.19254 2.13363,0.55191 1.14807,1.85763 0.235,2.51526 -1.77095,1.27551 z M 90,101.32377 c 0,-0.64692 0.5625,-1.523871 1.25,-1.94877 0.6875,-0.424899 1.25,0.1044 1.25,1.17623 0,1.07182 -0.5625,1.94877 -1.25,1.94877 -0.6875,0 -1.25,-0.5293 -1.25,-1.17623 z M 45.043967,99.322023 c 1.21196,-1.460324 1.249087,-2.278969 0.153056,-3.375001 C 42.55524,93.30524 43.615787,90.29135 47.686529,88.872281 49.85162,88.117526 51.82037,87.5 52.061529,87.5 52.302687,87.5 52.5,88.53782 52.5,89.806265 c 0,1.268446 -1.159615,3.355704 -2.576922,4.638349 -1.459272,1.320622 -2.323243,3.302152 -1.992024,4.568734 C 48.35106,100.61946 47.801006,101.25 45.97992,101.25 l -2.536031,0 1.600078,-1.927977 z M 110.3125,98.711048 C 108.7639,98.088586 107.5,96.501224 107.5,95.17876 c 0,-1.32099 0.98438,-3.614889 2.1875,-5.097551 l 2.1875,-2.695752 2.42118,1.77387 2.42117,1.773872 -2.73367,0.867635 c -1.50353,0.4772 -2.73368,1.404289 -2.73368,2.060198 0,0.655912 1.40625,1.833295 3.125,2.61641 1.71875,0.783115 3.125,1.896055 3.125,2.473202 0,1.338186 -3.5572,1.219606 -7.1875,-0.239597 z M 73.4375,86.913084 C 72.234375,85.258489 71.25,83.113346 71.25,82.146099 c 0,-0.967246 1.079813,-2.735846 2.399582,-3.930223 l 2.399583,-2.171592 0.412917,2.787699 C 76.689188,80.365216 78,82.239627 79.375,82.99734 c 1.375,0.757714 2.730926,1.514836 3.01317,1.682496 0.9081,0.539437 -3.976829,5.321565 -5.394405,5.280883 -0.75282,-0.0216 -2.35314,-1.39304 -3.556265,-3.047635 z m 12.113912,1.288314 -2.426412,-1.798603 1.931869,-1.963623 1.931869,-1.963623 2.333731,1.706466 c 1.431712,1.046894 2.028822,2.501045 1.544862,3.762225 C 90.433453,89.074909 89.605819,90 89.028143,90 88.450468,90 86.885939,89.190629 85.551412,88.201397 Z M 23.848684,75.520834 c 0.05998,-1.456179 0.356176,-1.752375 0.755208,-0.755209 0.361089,0.902344 0.31668,1.980469 -0.09869,2.395834 -0.415365,0.415363 -0.710801,-0.322918 -0.656525,-1.640625 z m -3.090708,-6.250049 c -0.461962,-1.203855 -0.333682,-2.695079 0.285068,-3.313829 1.481432,-1.481432 2.779937,1.902415 1.51526,3.948706 -0.708539,1.146441 -1.18066,0.97995 -1.800328,-0.634877 z M 17.5,45.165426 c 0,-4.861526 0.593965,-9.134974 1.333164,-9.591825 0.73324,-0.453166 1.516183,-0.626989 1.739873,-0.386271 0.22369,0.240719 0.608142,4.361516 0.854337,9.157327 L 21.875,53.064314 19.6875,53.498812 17.5,53.93331 l 0,-8.767884 z M 6.6041259,27.785016 c 0.2937958,-3.62449 0.7561817,-6.788987 1.0275242,-7.032215 0.2713424,-0.243227 1.6527885,-0.797564 3.0698799,-1.231857 l 2.576531,-0.789625 2.164545,4.539098 c 1.1905,2.496504 1.873251,4.830393 1.517224,5.186419 -0.356026,0.356027 -1.695286,-0.646864 -2.976135,-2.228644 C 12.661967,24.595928 11.026778,23.740416 10.20244,24.249885 9.4035981,24.743596 8.7413866,26.37997 8.730859,27.886271 8.7203315,29.392572 8.1173206,31.46875 7.3908349,32.5 6.4158306,33.884022 6.2098275,32.649384 6.6041259,27.785016 Z"
     style="fill:#5e3442;fill-opacity:1" />
  <path
     inkscape:connector-curvature="0"
     id="path4531"
     d="m 78.819205,353.24174 c -28.493188,-0.52838 -54.790063,-1.33355 -58.4375,-1.78926 L 13.75,350.6239 l 0,-2.257 c 0,-1.24135 0.703125,-2.78989 1.5625,-3.4412 0.859375,-0.65131 3.982862,-1.87667 6.941084,-2.72304 2.95822,-0.84635 5.702681,-2.38341 6.098802,-3.41568 0.429756,-1.11993 1.537381,-1.56596 2.746416,-1.10597 L 33.125,338.4519 31.5625,336.87785 C 30.703125,336.01211 30,334.17179 30,332.78824 c 0,-1.38354 -1.443837,-3.66681 -3.208526,-5.07393 l -3.208527,-2.55838 1.302588,-3.42608 c 0.716424,-1.88433 2.123641,-3.42606 3.127151,-3.42606 1.003511,0 3.298634,0.56044 5.100274,1.24542 1.80164,0.68498 6.760134,1.29227 11.018875,1.3495 4.258741,0.0573 10.843086,0.93947 14.631877,1.96047 l 6.888713,1.85637 3.384375,-1.75582 3.384374,-1.75584 21.601914,0.56375 c 12.586282,0.32846 24.561982,0.009 28.694392,-0.76505 4.16703,-0.7807 8.60503,-0.895 10.75953,-0.27709 2.08198,0.5971 6.51636,0.53382 10.25888,-0.14641 l 6.59181,-1.1981 4.21115,4.08161 c 2.31614,2.24489 4.21115,5.30165 4.21115,6.79283 0,1.49116 1.05721,4.05525 2.34936,5.69795 3.76473,4.78607 8.11079,14.89931 6.88671,16.02531 -1.93308,1.77821 -35.63927,2.25566 -89.166865,1.26305 z M 76.25,332.67879 c 0,-1.03125 -0.84375,-1.875 -1.875,-1.875 -1.951967,0 -2.479959,1.47838 -1.041666,2.91666 1.438291,1.4383 2.916666,0.9103 2.916666,-1.04166 z m 78.4375,-19.86506 c -2.50005,-1.8978 -2.86884,-5.8286 -0.746,-7.95144 0.99176,-0.99176 2.1617,-1.05604 3.75,-0.20601 2.33654,1.25047 2.93517,4.30993 1.54976,7.92027 -0.4173,1.08749 -1.12042,1.95935 -1.5625,1.93749 -0.44206,-0.0219 -1.78814,-0.787 -2.99126,-1.70031 z"
     style="fill:#30142a"
     sodipodi:nodetypes="sscssssscssscssscscccscsscssssssssssssscs" />
  <path
     id="path4516"
     style="fill:#000000"
     d="m 164.6398,353.03499 4.01481,-0.63038 0.6998,-4.01481 c 1.07881,-6.18928 0.15845,-78.68825 -1.03482,-81.5148 l -1.05542,-2.5 1.4622,1.875 1.46222,1.875 -0.7459,-7.5 c -0.41024,-4.125 -0.6517,-39.28125 -0.53658,-78.125 0.11513,-38.84375 0.14404,-76.25 0.0642,-83.125 -0.0797,-6.875 -0.17162,-29.648601 -0.20412,-50.608004 l -0.0591,-38.108003 -2.27601,3.733003 C 163.76941,18.75767 160,22.177557 160,20.226827 160,19.49572 160.52688,18.571912 161.17085,18.17392 162.7081,17.223848 166.25,10.082399 166.25,7.9329525 L 166.25,6.25 149.6875,6.1568245 C 140.57812,6.105578 110.90625,6.1021535 83.75,6.1492145 37.685023,6.2290437 12.5,7.0267111 12.5,8.4058653 c 0,0.3208725 0.954806,2.1997627 2.121791,4.1753107 1.166987,1.975549 1.74355,3.970149 1.281255,4.432444 C 14.705826,18.21084 9.9628939,12.19161 10.62281,10.3125 10.924611,9.453125 10.626692,8.75 9.960769,8.75 9.294846,8.75 8.75,9.345697 8.75,10.073771 8.75,10.801845 8.2605899,11.09507 7.6624219,10.725382 7.064254,10.355694 6.6668376,16.650622 6.7792745,24.714111 6.8917114,32.7776 6.6267372,37.6875 6.1904432,35.625 5.7541492,33.5625 5.295082,45.528811 5.1702937,62.216804 5.0253712,81.59737 5.42109,93.451168 6.2656827,95.029304 6.9929349,96.388186 7.0776935,97.5 6.4540351,97.5 c -0.6236584,0 -1.5165319,8.29688 -1.9841632,18.4375 -0.4676315,10.14063 -0.918879,63.86635 -1.0027721,119.3905 l -0.152533,100.953 2.4052166,1.81975 c 1.3228691,1.00085 1.7547526,1.83763 0.9597411,1.8595 -0.8298676,0.0229 -1.1641122,1.11569 -0.7848216,2.5661 l 0.6606539,2.52634 1.7223216,-1.4294 L 10,342.19389 l 0,3.70932 c 0,2.04013 0.984375,4.59874 2.1875,5.6858 l 2.1875,1.97648 25.56174,0.13316 c 14.058957,0.0733 25.734575,0.306 25.945819,0.51724 0.626883,0.62689 94.383891,-0.49423 98.757241,-1.1809 z M 8.1238428,356.54855 c -0.6881365,-0.50795 -2.5575059,-3.599 -4.1541543,-6.86899 L 1.0666915,343.73414 1.4708458,176.28631 1.875,8.83849 4.0334915,6.6803964 6.1919829,4.5223027 32.158491,3.5966166 C 46.440071,3.0874893 83.567409,2.6324711 114.66369,2.5854653 L 171.20238,2.5 l 0.67873,2.8125 c 0.37332,1.546875 0.52465,81.28125 0.33632,177.1875 l -0.34243,174.375 -81.25,0.29855 c -44.6875,0.1642 -81.8130207,-0.117 -82.5011572,-0.625 z" />
  <path
     style="fill:#000000"
     d="m 165.19736,347.5 c 0,-1.71875 0.28373,-2.42188 0.63049,-1.5625 0.34676,0.85937 0.34676,2.26562 0,3.125 -0.34676,0.85937 -0.63049,0.15625 -0.63049,-1.5625 z"
     id="path4514" />
  <path
     style="fill:#000000"
     d="m 12.5,338.2138 c 0,-1.21159 1.110991,-3.76311 2.468869,-5.67008 1.357877,-1.90696 3.031455,-4.94692 3.719061,-6.75546 0.687606,-1.80855 1.822329,-3.28826 2.521606,-3.28826 0.699279,0 -0.741718,3.79687 -3.202215,8.4375 -2.460496,4.64062 -4.70621,8.67187 -4.990475,8.95834 C 12.732581,340.18229 12.5,339.42538 12.5,338.2138 Z"
     id="path4512" />
  <path
     style="fill:#000000"
     d="m 159.375,337.5 c -0.4249,-0.6875 -0.17685,-1.25 0.55122,-1.25 0.72808,0 1.32378,0.5625 1.32378,1.25 0,0.6875 -0.24805,1.25 -0.55123,1.25 -0.30317,0 -0.89887,-0.5625 -1.32377,-1.25 z"
     id="path4510" />
  <path
     style="fill:#000000"
     d="m 121.25,321.38374 c 0,-1.5228 3.67945,-2.82489 5.24625,-1.85654 0.7971,0.49262 0.6386,1.1858 -0.4253,1.85991 -2.22186,1.40784 -4.82095,1.40602 -4.82095,-0.003 z"
     id="path4508" />
  <path
     style="fill:#000000"
     d="m 131.99504,321.60047 c 0.75351,-0.53651 1.74861,-2.52235 2.21131,-4.41297 0.4627,-1.89063 1.3404,-3.4375 1.95044,-3.4375 0.61003,0 0.82493,1.08689 0.47755,2.41531 l -0.63163,2.4153 2.62365,-0.68609 c 1.5397,-0.40265 2.62364,-0.0933 2.62364,0.74892 0,1.52454 -0.91394,1.9453 -6.875,3.16512 -2.0625,0.42206 -3.13349,0.32841 -2.37996,-0.20809 z"
     id="path4506" />
  <path
     style="fill:#000000"
     d="m 148.125,251.25 c 0.4249,-0.6875 1.33504,-1.25 2.02254,-1.25 0.6875,0 0.90236,0.5625 0.47746,1.25 -0.4249,0.6875 -1.33504,1.25 -2.02254,1.25 -0.6875,0 -0.90236,-0.5625 -0.47746,-1.25 z"
     id="path4504" />
  <path
     style="fill:#000000"
     d="m 148.84869,243.02082 c 0.06,-1.45618 0.35617,-1.75237 0.7552,-0.75521 0.36108,0.90234 0.31668,1.98047 -0.0986,2.39584 -0.41537,0.41536 -0.7108,-0.32293 -0.65652,-1.64063 z"
     id="path4496" />
  <path
     style="fill:#000000"
     d="m 162.51914,227.8125 c -0.0105,-2.23438 0.54336,-4.0625 1.23086,-4.0625 1.58775,0 1.58775,3.79314 0,6.25 -0.9195,1.42282 -1.21634,0.89527 -1.23086,-2.1875 z"
     id="path4490" />
  <path
     style="fill:#000000"
     d="m 166.34869,229.27084 c 0.06,-1.45619 0.35617,-1.75238 0.7552,-0.75522 0.36108,0.90234 0.31669,1.98047 -0.0986,2.39584 -0.41537,0.41537 -0.7108,-0.32292 -0.65652,-1.64062 z"
     id="path4488" />
  <path
     style="fill:#000000"
     d="m 146.875,212.5 c -0.4249,-0.6875 -0.21004,-1.25 0.47746,-1.25 0.6875,0 1.59764,0.5625 2.02254,1.25 0.4249,0.6875 0.21004,1.25 -0.47746,1.25 -0.6875,0 -1.59764,-0.5625 -2.02254,-1.25 z"
     id="path4482" />
  <path
     style="fill:#000000"
     d="m 147.91666,204.42999 c 0,-1.00102 0.46875,-1.53032 1.04168,-1.17623 0.57291,0.35408 1.04166,1.17309 1.04166,1.82001 0,0.64693 -0.46875,1.17623 -1.04166,1.17623 -0.57293,0 -1.04168,-0.81901 -1.04168,-1.82001 z"
     id="path4476" />
  <path
     style="fill:#000000"
     d="m 148.75,167.5 c 0,-0.6875 0.5625,-1.25 1.25,-1.25 0.6875,0 1.25,0.5625 1.25,1.25 0,0.6875 -0.5625,1.25 -1.25,1.25 -0.6875,0 -1.25,-0.5625 -1.25,-1.25 z"
     id="path4440" />
  <path
     style="fill:#000000"
     d="m 145.72869,143.91776 c -0.53847,-0.87125 -0.64145,-1.92166 -0.22887,-2.33426 1.11872,-1.1187 2.33847,0.52662 1.73424,2.33931 l -0.52635,1.57905 z"
     id="path4436" />
  <path
     style="fill:#000000"
     d="m 141.25,137.42622 c 0,-0.72807 0.5625,-0.97612 1.25,-0.55122 0.6875,0.4249 1.25,-0.1376 1.25,-1.25 0,-1.25519 -0.59283,-1.68785 -1.5625,-1.14039 l -1.5625,0.88215 1.45359,-1.57446 c 0.79946,-0.86596 2.06508,-1.19654 2.8125,-0.73461 0.7474,0.46192 1.35891,1.93166 1.35891,3.26608 0,1.59289 -0.85868,2.42623 -2.5,2.42623 -1.375,0 -2.5,-0.5957 -2.5,-1.32378 z"
     id="path4408" />
  <path
     style="fill:#000000"
     d="m 146.25,115 c 0,-3.66667 0.23019,-6.43229 0.51152,-6.14583 0.95172,0.96902 1.26821,11.03277 0.37505,11.92592 C 146.64896,121.2677 146.25,118.66667 146.25,115 Z"
     id="path4404" />
  <path
     style="fill:#000000"
     d="m 135,103.75 c 0,-0.6875 0.5957,-1.25 1.32377,-1.25 0.72808,0 0.97613,0.5625 0.55123,1.25 -0.4249,0.6875 -1.0206,1.25 -1.32378,1.25 C 135.24805,105 135,104.4375 135,103.75 Z"
     id="path4394" />
  <path
     style="fill:#000000"
     d="m 146.25,97.5 c 0,-3.11339 0.49396,-4.842258 1.25,-4.375 0.6875,0.424899 1.25,2.393649 1.25,4.375 0,1.981351 -0.5625,3.9501 -1.25,4.375 -0.75604,0.46726 -1.25,-1.26161 -1.25,-4.375 z"
     id="path4392" />
  <path
     style="fill:#000000"
     d="m 147.2108,81.787456 c 0.41056,-2.147712 1.0296,-2.79705 1.86764,-1.959021 C 150.46694,81.216942 149.4678,85 147.71258,85 c -0.61376,0 -0.83954,-1.445645 -0.50178,-3.212544 z"
     id="path4376" />
  <path
     id="path4570"
     style="fill:#000000;fill-rule:evenodd;stroke:#000000;stroke-width:1px;stroke-linecap:butt;stroke-linejoin:miter;stroke-opacity:1;fill-opacity:1"
     d="m 55.686749,172.75868 c 16.764707,7.02234 38.500414,4.51578 62.006131,1.48778 0,45.12959 -14.45699,65.95797 -34.615893,77.77828 -30.07885,-19.42391 -27.390238,-79.26606 -27.390238,-79.26606 z m 2.210367,2.04571 c 16.567245,5.31697 36.996986,0.99807 58.212634,1.41982 0,43.06789 -14.82924,60.81564 -32.498111,74.22506 C 55.372991,231.91272 57.897116,174.80439 57.897116,174.80439 Z" />
  <path
     style="fill:#000000;fill-opacity:1;fill-rule:evenodd;stroke:none;stroke-width:1px;stroke-linecap:butt;stroke-linejoin:miter;stroke-opacity:1"
     d="m 78.247874,193.18318 c -1.814215,3.07627 -3.007034,10.18191 -1.025425,13.56717 3.786187,6.46807 11.219264,5.40298 13.409413,2.68188 2.603005,-3.23403 1.104306,-10.0965 1.104306,-10.0965 2.274872,3.19503 5.499303,8.681 0.946546,13.25166 -3.546076,3.56002 -14.494364,4.75872 -18.221027,0 -6.129123,-7.82652 -0.325739,-22.29367 3.786187,-19.40421 z"
     id="path4572"
     inkscape:connector-curvature="0"
     sodipodi:nodetypes="csscssc" />
  <path
     style="fill:#000000"
     d="m 145.19845,75.3125 c 0.10912,-0.515625 -0.2635,-2.003216 -0.8281,-3.30576 -0.69505,-1.603489 -0.42685,-2.814457 0.83054,-3.75 1.26683,-0.942581 1.92226,-3.964111 2.06216,-9.50674 0.11275,-4.46875 0.82042,-11.106071 1.57252,-14.749604 0.99394,-4.815109 0.9911,-7.078087 -0.01,-8.284821 l -1.37787,-1.660219 2.6887,-0.703109 c 1.84308,-0.481976 2.44556,-1.336682 1.91566,-2.717601 -0.49268,-1.283915 -0.27361,-1.705831 0.60407,-1.163394 1.53698,0.949908 1.07898,7.03334 -1.9082,25.346287 -1.049,6.430896 -2.5174,12.427693 -3.2631,13.326215 -0.93974,1.13231 -0.95359,1.882278 -0.0451,2.443732 2.00088,1.236859 1.55983,5.662514 -0.56471,5.662514 -1.03125,0 -1.7857,-0.421875 -1.67655,-0.9375 z"
     id="path4362" />
  <path
     style="fill:#000000"
     d="m 156.34869,27.321236 c -0.0561,-1.878031 0.72295,-3.619055 1.80524,-4.034369 l 1.90392,-0.730603 -1.11001,2.159367 c -0.61051,1.187653 -1.42288,3.003119 -1.80525,4.034369 -0.40811,1.100694 -0.73598,0.510667 -0.7939,-1.428764 z"
     id="path4346" />
  <image
     sodipodi:absref="/usr/home/gereon/tmp/games/Empire-Marches/encyclopediaimperialis/encyclopedia/greeniron.png"
     y="-84.263367"
     x="591.56201"
     id="image4958"
     xlink:href="file:///usr/home/gereon/tmp/games/Empire-Marches/encyclopediaimperialis/encyclopedia/greeniron.png"
     style="image-rendering:optimizeSpeed"
     preserveAspectRatio="none"
     height="386.25"
     width="190" />
  <path
     style="fill:#2a231b"
     d="m 97.436538,47.967915 c -0.10289,-0.0011 -0.19638,0.01256 -0.27384,0.04252 -0.45917,0.177586 -0.4697,0.277619 -0.0577,0.540826 0.278,0.177617 0.84656,0.31973 1.26339,0.316294 0.73038,-0.0061 0.73231,-0.02569 0.0577,-0.54083 -0.28875,-0.220489 -0.6809,-0.355515 -0.98955,-0.358811 z m -9.087966,0.535605 c -0.429138,0 -0.780089,0.171873 -0.780089,0.381938 0,0.210064 0.245885,0.381936 0.546213,0.381936 0.300327,0 0.651277,-0.171872 0.780088,-0.381936 0.12881,-0.210065 -0.117074,-0.381938 -0.546212,-0.381938 z m 7.55666,0.381938 c -0.208424,0 -0.378949,0.17187 -0.378949,0.381936 0,0.210065 0.170525,0.381936 0.378949,0.381936 0.208411,0 0.378936,-0.171871 0.378936,-0.381936 0,-0.210066 -0.170525,-0.381936 -0.378936,-0.381936 z m -35.999583,0.381936 c -0.208419,0 -0.378943,0.171871 -0.378943,0.381936 0,0.210065 0.170524,0.381937 0.378943,0.381937 0.208419,0 0.378944,-0.171872 0.378944,-0.381937 0,-0.210065 -0.170525,-0.381936 -0.378944,-0.381936 z m 47.757921,0.07086 c -0.18184,-1.53e-4 -0.44901,0.04133 -0.81932,0.1201 -0.70205,0.149321 -1.4465,0.436579 -1.65492,0.638552 -0.24439,0.236819 0.14854,0.324955 1.10722,0.246915 0.82539,-0.0672 1.56186,-0.351832 1.65566,-0.639298 0.0817,-0.250317 0.0144,-0.366017 -0.28864,-0.366269 z m -7.779452,1.782122 c -0.19799,0 -0.4212,0.184461 -0.49588,0.410281 -0.0747,0.225821 0.14852,0.410284 0.49588,0.410284 0.347372,0 0.570582,-0.184463 0.495892,-0.410284 -0.0747,-0.22582 -0.29788,-0.410281 -0.495892,-0.410281 z m -12.694577,0.820565 c -0.208419,0 -0.378943,0.171872 -0.378943,0.381936 0,0.210064 0.170524,0.381937 0.378943,0.381937 0.208418,0 0.378942,-0.171873 0.378942,-0.381937 0,-0.210064 -0.170524,-0.381936 -0.378942,-0.381936 z m 21.946859,0.04775 c -0.13164,-0.0055 -0.28139,0.01868 -0.41817,0.07387 -0.30228,0.121921 -0.21275,0.212173 0.2287,0.230505 0.39947,0.01658 0.62328,-0.07374 0.49736,-0.200666 -0.063,-0.06345 -0.17623,-0.09822 -0.30789,-0.103688 z m -5.27337,1.518798 c -0.13894,0 -0.27834,0.08881 -0.45517,0.267053 -0.35369,0.356473 -0.25219,0.458025 0.45517,0.458025 0.70736,0 0.80812,-0.101554 0.45443,-0.458025 -0.17684,-0.178234 -0.31549,-0.267053 -0.45443,-0.267053 z m 2.84208,0.343142 c -0.31263,0 -0.56842,0.171871 -0.56842,0.381936 0,0.210066 0.25579,0.381938 0.56842,0.381938 0.31263,0 0.56841,-0.171872 0.56841,-0.381938 0,-0.210065 -0.25578,-0.381936 -0.56841,-0.381936 z m -5.68416,0.361796 c -0.20841,-0.01108 -0.43793,0.266529 -0.50994,0.616916 -0.0819,0.39825 0.0602,0.573322 0.37894,0.466234 0.59006,-0.198237 0.69347,-1.053206 0.131,-1.08315 z m -2.084182,1.929823 c -0.20842,0 -0.37894,0.171872 -0.37894,0.381937 0,0.210064 0.17052,0.381936 0.37894,0.381936 0.20841,0 0.37894,-0.171872 0.37894,-0.381936 0,-0.210065 -0.17053,-0.381937 -0.37894,-0.381937 z m -12.315642,0.190968 c -1.477904,0 -1.834345,0.803339 -0.473679,1.067485 1.605487,0.311672 1.79998,0.268325 1.79998,-0.399097 0,-0.509248 -0.315785,-0.668388 -1.326301,-0.668388 z m 33.179704,0.572903 c -0.63755,0 -1.15902,0.171872 -1.15902,0.381938 0,0.210064 0.4164,0.381936 0.92516,0.381936 0.50874,0 1.03021,-0.171872 1.15903,-0.381936 0.13663,-0.22283 -0.24886,-0.381938 -0.92517,-0.381938 z m -4.92625,0.381938 c -0.51171,0 -0.86641,0.696736 -0.58692,1.152524 0.13091,0.213491 0.3966,0.2887 0.59062,0.167841 0.46026,-0.286709 0.45739,-1.320365 -0.005,-1.320365 z m -7.36941,0.513226 c -0.13588,-0.02303 -0.23165,0.06143 -0.23165,0.228269 0,0.222462 0.17052,0.404313 0.37894,0.404313 0.20842,0 0.37894,-0.0752 0.37894,-0.167841 0,-0.09263 -0.17052,-0.275235 -0.37894,-0.405062 -0.0522,-0.03246 -0.102,-0.05201 -0.14729,-0.05967 z m 4.19873,0.256616 c -0.67499,0.0047 -0.72412,0.07497 -0.262,0.375966 0.74656,0.486279 1.62448,0.486279 1.32629,0 -0.1288,-0.210064 -0.60766,-0.379021 -1.06429,-0.375966 z m -27.975172,0.146217 c -0.19409,-0.021 -0.373216,0.115737 -0.652789,0.370743 -0.375828,0.342805 -0.861986,0.622885 -1.08058,0.622885 -0.218588,0 -0.60779,0.255819 -0.865201,0.568429 -0.381505,0.463317 -0.342831,0.617123 0.210191,0.831016 0.467445,0.180793 0.848556,0.004 1.225646,-0.568433 0.809433,-1.228706 1.745057,-1.034739 2.286237,0.473692 0.683295,1.904543 4.975195,6.387346 9.44249,9.863211 4.718796,3.671555 5.833208,5.044804 6.064568,7.471631 0.13573,1.423775 0.008,2.002167 -0.605422,2.753375 -0.76675,0.938097 -0.79242,0.941419 -1.96429,0.28198 -1.934351,-1.088522 -3.553339,-0.871925 -5.286696,0.706426 -3.101227,2.823909 -3.020991,6.942456 0.210196,10.812828 0.556944,0.667123 1.097753,1.127017 1.201961,1.021983 0.104211,-0.105014 -0.258272,-0.727095 -0.805253,-1.382286 -0.998243,-1.195711 -1.408683,-3.885057 -0.663893,-4.348997 0.394726,-0.245883 1.564621,2.685079 1.564621,3.920071 0,0.478016 0.162605,0.767187 0.361921,0.64302 0.19931,-0.124155 0.276075,-0.453028 0.170227,-0.731044 -0.365508,-0.960038 1.324948,-3.221183 2.616326,-3.499348 1.28152,-0.276041 3.047722,-1.145107 4.146182,-2.040967 0.86154,-0.702642 0.90182,-2.019134 0.0518,-1.690377 -0.51239,0.19818 -0.56847,0.04215 -0.34861,-0.966772 0.16773,-0.769719 0.11441,-1.203248 -0.14729,-1.203248 -0.22497,0 -0.40854,0.130652 -0.40854,0.29018 0,0.159537 -0.38368,0.530479 -0.852622,0.824295 -0.54837,0.343601 -0.34553,-0.03268 0.568412,-1.054799 1.17741,-1.316797 1.41966,-1.867375 1.41215,-3.211397 -0.018,-3.223063 -0.57492,-4.52144 -2.913862,-6.792802 -1.21479,-1.179698 -2.683619,-2.458157 -3.263929,-2.841398 -0.58267,-0.384793 -1.150584,-1.179289 -1.268575,-1.773914 -0.130898,-0.659666 -0.526666,-1.166651 -1.021369,-1.309179 -1.664946,-0.479665 -3.270551,-1.369559 -3.272825,-1.81345 -0.0011,-0.252723 -0.531603,-0.762875 -1.178273,-1.133873 -0.975551,-0.559671 -1.096252,-0.771045 -0.709039,-1.241293 0.608688,-0.739221 -0.126765,-1.712749 -1.293734,-1.712749 -0.449116,0 -1.284932,-0.537888 -1.857708,-1.195789 -0.547818,-0.629238 -0.822895,-0.916667 -1.072438,-0.94365 z m 19.344592,0.277499 c -0.13164,-0.0055 -0.2814,0.01868 -0.41817,0.07385 -0.30229,0.121922 -0.21275,0.212173 0.22869,0.230507 0.39948,0.01658 0.62329,-0.07374 0.49737,-0.200666 -0.063,-0.06345 -0.17625,-0.09822 -0.30789,-0.103688 z m -23.099978,1.576236 c -0.128354,-0.0019 -0.256266,0.0288 -0.36932,0.09921 -0.211819,0.131945 -0.28644,0.399735 -0.166528,0.595287 0.284462,0.463895 1.310018,0.461008 1.310018,-0.0038 0,-0.386818 -0.389103,-0.684878 -0.77417,-0.690767 z m 17.135316,0.130543 c -0.38169,0.0048 -0.82449,0.160711 -0.82449,0.387162 0,0.08255 0.35094,0.149936 0.78008,0.149936 0.42914,0 0.67976,-0.163885 0.55658,-0.364777 -0.0758,-0.123662 -0.28315,-0.175221 -0.51217,-0.172321 z m 38.942322,2.44678 c -0.22072,0 -0.29608,0.171871 -0.16726,0.381935 0.1288,0.210067 0.30923,0.381939 0.40113,0.381939 0.0919,0 0.16728,-0.171872 0.16728,-0.381939 0,-0.210064 -0.18042,-0.381935 -0.40115,-0.381935 z m -52.2401,0.977968 c -0.400626,-0.07781 -2.305482,1.682888 -2.305482,2.18718 0,0.191455 0.570947,-0.141631 1.269311,-0.740001 0.69837,-0.598368 1.191356,-1.231378 1.095381,-1.406151 -0.01232,-0.02246 -0.03251,-0.03583 -0.05921,-0.04103 z m -5.091304,0.742239 c -0.751588,-0.06708 -4.18921,2.048563 -4.470344,2.814543 -0.163987,0.446804 -0.478333,0.812361 -0.697934,0.812361 -0.219609,0 -0.589355,0.420347 -0.821538,0.933956 -0.49242,1.089282 -1.415215,1.551516 -1.97391,0.98841 -0.577936,-0.582503 -1.376626,-0.479141 -1.376626,0.178284 0,0.315097 0.170524,0.572905 0.378942,0.572905 0.781987,0 0.326092,0.932601 -1.3263,2.713093 -1.017038,1.095885 -1.705244,2.198804 -1.705244,2.732488 0,0.492152 -0.148818,1.058139 -0.330094,1.257696 -0.567216,0.624445 -0.752564,3.025474 -0.296049,3.832804 0.981967,1.736523 3.943354,4.001802 5.605689,4.287829 1.111849,0.191305 1.686099,0.496463 1.771115,0.941418 0.09882,0.517151 -0.146007,0.657935 -1.140528,0.657935 -1.236362,0 -3.30711,-1.130747 -5.170498,-2.823489 l -0.885927,-0.8049 0.280505,1.527747 c 0.382888,2.085663 1.276662,3.249986 2.303261,3.000288 0.446201,-0.108526 0.925053,-0.01146 1.064299,0.215587 0.139246,0.227086 0.75479,0.412515 1.367746,0.412515 1.185469,0 1.354318,0.362953 0.72236,1.553114 -0.256765,0.483544 -0.261354,0.738508 -0.0133,0.738508 0.208419,0 0.561447,-0.343747 0.78453,-0.763875 0.223084,-0.420125 0.745949,-0.763873 1.161994,-0.763873 0.906925,0 1.359287,-0.956986 0.783049,-1.656801 -0.299529,-0.363762 -0.28832,-0.835671 0.04071,-1.714239 0.50364,-1.34484 1.045794,-1.601035 1.045794,-0.49457 0,0.394404 0.246548,0.923117 0.548433,1.175642 0.301885,0.252527 0.600302,1.262063 0.66315,2.243131 l 0.114718,1.783617 0.703856,-1.302458 c 0.531399,-0.982784 0.665041,-1.851418 0.543992,-3.538136 -0.185535,-2.585259 -1.010612,-3.951703 -3.07225,-5.089009 -1.313739,-0.724728 -1.469155,-0.732507 -3.07447,-0.150687 -2.100898,0.761455 -2.490517,0.440928 -2.490517,-2.049177 0,-2.056125 -0.366744,-2.096722 -1.530573,-0.167842 -0.601071,0.996195 -0.750003,1.075843 -0.963639,0.514722 -0.390915,-1.026754 0.08795,-3.189064 0.988062,-4.46314 0.447847,-0.63391 1.950837,-2.086858 3.339435,-3.228558 3.809862,-3.132455 7.476855,-6.593521 7.240623,-6.833828 -0.02448,-0.0249 -0.06239,-0.03954 -0.112497,-0.04402 z m 47.501094,0.571412 c -0.20843,0 -0.37894,0.171872 -0.37894,0.381936 0,0.210065 0.17051,0.381936 0.37894,0.381936 0.20842,0 0.37895,-0.171871 0.37895,-0.381936 0,-0.210064 -0.17053,-0.381936 -0.37895,-0.381936 z m -98.525174,1.145809 c -0.06224,0 -0.119014,0.01913 -0.170966,0.04625 -0.05171,0.04974 -0.101708,0.100798 -0.153208,0.150684 -0.03178,0.05583 -0.05476,0.116336 -0.05476,0.185 0,0.210064 0.170525,0.381935 0.378943,0.381935 0.208419,0 0.378943,-0.171871 0.378943,-0.381935 0,-0.210066 -0.170524,-0.381937 -0.378943,-0.381937 z m 56.087261,0 c -0.173085,0 -1.453134,1.074195 -2.844292,2.387103 -2.44107,2.30376 -7.011927,5.238582 -7.011927,4.501927 0,-0.197622 0.809991,-0.908006 1.79998,-1.579216 2.2125,-1.500074 3.817312,-2.963051 4.359326,-3.973037 0.225463,-0.420129 -0.769682,0.278157 -2.211489,1.551618 -1.441806,1.273459 -3.191992,2.714746 -3.888607,3.202448 -0.743091,0.520239 -1.098554,0.990972 -0.86076,1.139096 0.252622,0.157365 -0.15769,1.036991 -1.089462,2.335633 -1.408235,1.962704 -1.91941,3.420265 -1.199001,3.420265 0.176397,0 0.867664,-0.274653 1.536496,-0.610948 0.808543,-0.406545 1.653718,-0.528881 2.521599,-0.364771 1.474873,0.278868 1.661851,-0.07463 0.54769,-1.036152 -0.416836,-0.359735 -0.75142,-0.784799 -0.743084,-0.944402 0.0083,-0.159607 1.059605,-1.235477 2.335828,-2.390835 3.118586,-2.823232 4.526492,-4.267235 5.340727,-5.479147 0.894885,-1.331946 1.996482,-1.296096 2.706628,0.08802 0.734373,1.431334 5.464202,6.647483 6.349516,7.002417 1.18705,0.475899 0.743409,1.863802 -1.478765,4.625008 -0.477877,0.593792 -0.868905,1.365235 -0.868905,1.714239 0,0.391334 0.389527,0.08283 1.016189,-0.804903 1.464342,-2.07433 3.183201,-3.037099 5.143859,-2.880925 1.522635,0.121276 1.614665,0.06991 1.731875,-0.963052 0.0773,-0.680945 -0.0236,-0.999312 -0.26866,-0.846675 -0.80366,0.500615 -4.139023,-1.956591 -9.019876,-6.645098 -1.974501,-1.896692 -3.731799,-3.448619 -3.904885,-3.448619 z m 5.438422,3.450112 c -0.437069,-0.04988 0.428441,0.667864 2.690347,2.243876 1.555122,1.083548 2.929216,2.13628 3.053747,2.339361 0.326887,0.533071 0.572665,0.454325 0.3375,-0.108169 -0.230785,-0.552009 -4.611807,-3.947642 -5.57239,-4.319161 -0.238468,-0.09223 -0.408345,-0.144402 -0.509204,-0.155907 z m -2.828752,4.219946 c -0.196505,-0.02796 -0.47787,0.04628 -0.877046,0.200669 -0.765649,0.296153 -0.766196,1.073277 -7.57e-4,1.844779 0.792837,0.799103 1.295955,0.429244 1.295955,-0.953347 0,-0.715168 -0.09066,-1.045497 -0.418172,-1.092101 z m -5.029133,0.149196 c -0.143403,-0.0045 -0.236838,0.02464 -0.236838,0.09996 0,0.114722 0.296276,0.426637 0.658708,0.693748 0.674219,0.496897 1.399842,0.366652 1.058376,-0.190218 C 82.674607,74.219853 81.793501,73.905 81.363294,73.891857 Z m -0.01111,2.618356 c -0.06609,-0.02019 -0.15617,0.03438 -0.276063,0.155154 -0.236078,0.237967 -0.326657,0.701718 -0.201315,1.030938 0.346896,0.911134 0.630584,0.716466 0.630584,-0.432667 0,-0.480044 -0.04306,-0.71984 -0.153206,-0.753425 z m 4.668692,1.450159 c -0.13164,-0.0053 -0.281395,0.01871 -0.418167,0.0739 -0.302294,0.121915 -0.212749,0.212169 0.228696,0.230502 0.39947,0.01661 0.623282,-0.07379 0.497363,-0.20067 -0.06296,-0.06349 -0.176247,-0.09818 -0.307892,-0.103646 z m -50.594802,2.32668 c -0.04499,-0.0053 -0.09375,-0.0031 -0.147284,0.0074 -0.7318,0.14191 -0.891157,1.048051 -0.40855,2.327425 0.584254,1.548844 1.04938,1.222631 1.008787,-0.70792 -0.02413,-1.14825 -0.137983,-1.590083 -0.452953,-1.626958 z m 98.537766,0.447583 c -0.24665,-0.04531 -0.62991,0.207598 -1.11982,0.806394 -0.7422,0.907161 -0.81933,1.171869 -0.37005,1.269641 1.61389,0.35121 -0.17385,1.478729 -4.06773,2.566137 -1.19455,0.333593 -2.26672,0.76193 -2.38319,0.951857 -0.11646,0.189928 0.3629,0.587968 1.06577,0.883973 0.70288,0.29599 1.66424,1.031283 2.136,1.63442 0.73522,0.939979 0.83781,1.451169 0.71792,3.579164 -0.11922,2.116168 -0.35551,2.809445 -1.59867,4.693638 -1.60358,2.430523 -4.54652,4.50135 -3.86935,2.72278 0.12664,-0.332649 0.10241,-0.53842 -0.054,-0.457264 -3.5161,1.823644 -5.70726,2.207324 -12.59099,2.207324 -4.33038,0 -6.23954,-0.17027 -8.56914,-0.76612 -3.717572,-0.950842 -9.65984,-3.890383 -11.528896,-5.702938 -1.596896,-1.548624 -2.919637,-4.738556 -3.414928,-8.235505 -0.303632,-2.143774 -0.31755,-2.069843 -0.215376,1.14581 0.191499,6.02676 1.795478,9.316132 5.909143,12.120513 0.937882,0.63938 1.875767,1.36039 2.084182,1.6016 0.943123,1.09147 3.926725,2.46344 5.333335,2.45275 0.96629,-0.008 2.27023,0.41455 3.72207,1.20324 1.42705,0.77524 2.57282,1.14821 3.16995,1.03317 0.51428,-0.0991 1.84786,0.0338 2.9642,0.29542 1.48311,0.34748 3.42474,0.3901 7.2088,0.15665 2.84825,-0.17571 5.32583,-0.22772 5.50577,-0.11564 0.17994,0.11211 0.32713,0.54739 0.32713,0.96753 0,0.42014 0.17052,0.65724 0.37895,0.52739 0.20842,-0.12981 0.37894,-0.48354 0.37894,-0.78624 0,-0.32638 0.36998,-0.55052 0.90961,-0.55052 1.08158,0 2.50088,-2.13651 2.50088,-3.76492 0,-0.57617 0.18886,-1.23768 0.41965,-1.47031 0.23078,-0.23261 0.53555,-0.99714 0.6772,-1.69931 0.18666,-0.925222 0.4884,-1.310241 1.09613,-1.398691 0.85412,-0.12431 1.13982,-0.981836 0.46702,-1.400932 -0.23372,-0.145579 -0.20007,-0.507406 0.091,-0.977222 0.35776,-0.577372 0.36079,-0.910273 0.0134,-1.471047 -0.36343,-0.586538 -0.30533,-1.005278 0.30421,-2.196143 0.41421,-0.809263 0.79644,-2.161684 0.84891,-3.004764 0.0525,-0.84307 0.23308,-1.757463 0.40189,-2.032759 0.16881,-0.275304 0.35779,-0.961137 0.41965,-1.523279 0.0619,-0.562141 0.36899,-1.81141 0.6824,-2.776501 0.49038,-1.510087 0.45918,-2.413843 0.048,-2.489296 z m -65.94941,0.02617 c 0.163979,0.0083 0.499701,0.311244 1.175314,0.971251 0.729465,0.712607 1.3263,1.434234 1.3263,1.603096 0,0.521345 -0.611193,0.342002 -1.654172,-0.484879 -0.549153,-0.43538 -0.998428,-1.15625 -0.998428,-1.602351 0,-0.321346 0.02346,-0.493541 0.150986,-0.487117 z m 27.327557,0.321514 c 0.63418,-0.03353 1.223461,0.170124 1.674161,0.624382 0.78312,0.789313 0.75563,1.816918 -0.0355,1.324091 -0.21344,-0.132953 -1.057253,-0.232185 -1.874738,-0.2208 -0.817487,0.01135 -1.867158,0.134782 -2.332869,0.274517 -0.828911,0.248699 -0.826747,0.233026 0.100655,-0.731057 0.763699,-0.793896 1.652946,-1.228066 2.46831,-1.271133 z m -22.37539,0.267746 c 1.409929,0 1.412127,0.513515 0.0081,1.642622 -1.195068,0.961107 -2.079745,1.310804 -2.079745,0.821311 0,-0.115452 0.260058,-0.717012 0.578036,-1.33677 0.398121,-0.775962 0.863304,-1.127163 1.49357,-1.127163 z m 30.138543,1.145815 c -0.20842,0 -0.37894,0.171869 -0.37894,0.381938 0,0.210057 0.17052,0.381936 0.37894,0.381936 0.20843,0 0.37895,-0.171879 0.37895,-0.381936 0,-0.210069 -0.17052,-0.381938 -0.37895,-0.381938 z m -6.794331,1.565044 c 0.216709,-0.01483 0.465769,0.226614 0.731239,0.726577 0.22309,0.420127 0.74066,0.763863 1.15015,0.763863 0.93114,0 0.94914,0.458696 0.0511,1.277849 -0.38114,0.347659 -0.88863,0.631837 -1.12795,0.631837 -0.714305,0 -1.580616,-1.668828 -1.342574,-2.586268 0.136868,-0.527516 0.321354,-0.799015 0.538068,-0.813858 z m -60.405133,0.03879 c -0.278394,3.79e-4 -0.296046,0.3631 -0.225737,1.491198 0.05756,0.923507 -0.03612,2.001685 -0.208714,2.3953 -0.225884,0.51509 -0.126757,0.820963 0.355259,1.092852 0.968362,0.546206 2.10047,1.751819 2.10047,2.237161 0,0.229725 -0.341049,0.507795 -0.757886,0.617664 -1.092224,0.287877 -1.00797,1.655856 0.09473,1.538185 0.680907,-0.07263 0.852622,0.101335 0.852622,0.863831 0,0.560176 -0.195789,0.915381 -0.473678,0.859364 -0.624522,-0.12589 -0.614567,0.914266 0.01111,1.156249 0.266818,0.103226 0.815286,0.805775 1.21898,1.561309 0.727299,1.361193 0.727541,1.379076 -0.01109,1.947723 -0.734119,0.565179 -0.732353,0.577989 0.107316,0.816109 0.468943,0.13298 0.878595,0.43627 0.910351,0.67435 0.03176,0.23808 0.08277,0.60453 0.113239,0.81459 0.03047,0.21008 0.339272,0.98349 0.686833,1.71872 0.347564,0.73523 0.96474,2.88361 1.371448,4.77422 0.693379,3.22314 0.700574,3.49433 0.10806,4.34748 -1.452231,2.09107 -1.581094,2.55553 -1.459521,5.27028 0.111124,2.4815 0.231863,2.84524 1.266347,3.81937 1.11543,1.05037 1.140065,1.15112 1.01027,4.13192 -0.182688,4.19556 0.03791,5.10622 1.677118,6.91738 1.947357,2.15164 6.425126,4.34975 8.860013,4.34975 0.429496,0 1.233452,0.24605 1.786655,0.54679 1.076804,0.58539 7.148758,1.74484 9.137558,1.74484 0.661191,0 1.528204,0.17601 1.926542,0.39088 0.513111,0.27678 0.940343,0.25461 1.466922,-0.0768 0.597226,-0.37592 1.138879,-0.34995 2.756219,0.13203 1.195413,0.35624 3.205763,0.57363 4.949943,0.53636 2.184311,-0.0467 2.936808,0.0645 2.936808,0.43265 0,0.27223 0.341049,0.49458 0.757886,0.49458 0.83871,0 1.026788,-0.59092 0.284207,-0.89292 -0.260524,-0.10596 -0.303155,-0.20535 -0.09474,-0.2208 0.208418,-0.0154 0.890515,0.29226 1.515772,0.6833 0.694848,0.43456 1.615642,0.65627 2.368393,0.57067 0.677361,-0.077 1.812964,-0.21259 2.523819,-0.30136 0.710852,-0.0888 1.39598,-0.0573 1.52243,0.0701 0.368784,0.37171 3.745612,0.4643 4.574702,0.12531 2.768227,-1.13184 5.048446,-1.46998 6.745476,-0.99959 0.81951,0.22716 1.17754,0.13348 1.572022,-0.41029 0.45658,-0.62933 0.61597,-0.6473 1.49654,-0.17231 0.84362,0.45507 1.13012,0.45337 1.98722,-0.009 0.55066,-0.29703 1.74434,-0.51063 2.6526,-0.47519 0.90827,0.0354 1.65122,-0.10765 1.65122,-0.31777 0,-0.21013 0.55421,-0.34507 1.23157,-0.29989 0.67736,0.0452 1.48735,-0.0203 1.79997,-0.14546 0.31263,-0.12509 0.99473,-0.2275 1.51578,-0.22827 4.4399,-0.006 8.47583,-1.28421 10.70513,-3.39117 1.24519,-1.17685 1.39969,-2.15389 0.28422,-1.79705 -0.61178,0.1957 -0.75789,0.0691 -0.75789,-0.65869 0,-0.6876 0.29231,-0.98871 1.23155,-1.26739 0.96436,-0.28615 1.23158,-0.57271 1.23158,-1.32037 0,-0.80719 -0.43952,-1.17493 -2.84207,-2.37741 -2.8171,-1.40997 -6.82344,-2.53869 -11.93671,-3.36357 -3.26022,-0.52596 -12.319372,-0.51919 -12.844102,0.009 -0.25562,0.25764 -0.23167,0.38418 0.0733,0.38418 0.25011,0 0.45517,0.31413 0.45517,0.69748 0,0.43078 -1.12168,1.51368 -2.936799,2.83544 -1.615245,1.17617 -4.260238,3.44011 -5.877319,5.03154 -1.617087,1.59145 -3.109175,2.89363 -3.315751,2.89363 -0.742361,0 -0.356013,-1.48784 0.578777,-2.22896 1.54057,-1.22139 6.7669,-6.17366 6.515303,-6.17366 -0.270197,0 -3.889273,3.02503 -6.332493,5.29267 -0.937788,0.8704 -1.937429,1.5822 -2.221848,1.5822 -0.28442,0 -1.478736,-0.82168 -2.653338,-1.82613 -1.174606,-1.00445 -2.817355,-2.32013 -3.651029,-2.92419 l -1.515771,-1.09883 1.515771,1.60682 c 0.833674,0.88364 2.411025,2.32674 3.505222,3.20693 1.78962,1.4396 2.611064,2.94508 1.606807,2.94508 -0.210477,0 -1.672382,-1.20443 -3.248399,-2.67728 -1.57602,-1.47285 -3.407515,-2.95793 -4.069937,-3.29942 -0.662419,-0.34149 -1.8518,-1.13376 -2.642979,-1.76049 -0.791185,-0.62674 -1.521249,-1.056 -1.622351,-0.9541 -0.101103,0.10187 0.20547,0.44607 0.680915,0.76462 0.475448,0.31857 1.589192,1.30056 2.474972,2.18196 2.568881,2.55625 2.27208,2.81957 -2.493475,2.21329 -2.611528,-0.33223 -3.581205,-0.33295 -3.90785,-0.004 -0.52709,0.53127 -0.138776,0.62348 5.359232,1.27338 3.394837,0.4013 6.063086,1.13302 6.063086,1.66275 0,0.0796 -0.809989,0.63035 -1.799978,1.2234 -1.664856,0.99736 -2.084649,1.07582 -5.59163,1.05107 -4.274594,-0.0302 -6.454038,-0.57713 -6.743259,-1.69186 -0.113444,-0.43724 -0.518394,-0.74746 -0.975483,-0.74746 -0.57076,0 -0.717146,0.17047 -0.541771,0.6311 0.215203,0.56523 -0.09072,0.60867 -2.94865,0.41998 -3.271233,-0.216 -8.306994,-1.40136 -10.245522,-2.41171 -1.186183,-0.61827 -1.475789,-1.69486 -0.455914,-1.69486 0.530353,0 0.492477,-0.15197 -0.229438,-0.92649 -0.479587,-0.51453 -0.741804,-1.12482 -0.589878,-1.37259 0.299497,-0.48842 0.358282,-0.47804 5.30076,0.93171 3.816778,1.0887 3.9789,1.11551 3.9789,0.66468 0,-0.17646 -0.724728,-0.53985 -1.610507,-0.80789 -3.078717,-0.93167 -3.694694,-1.25298 -3.694694,-1.92535 0,-1.64506 11.307992,-3.55617 15.081488,-2.54899 l 2.007211,0.53562 -0.823759,-0.88398 c -0.852916,-0.91505 -0.775851,-2.06931 0.138407,-2.06931 0.281527,0 1.426425,0.68748 2.543802,1.52773 2.234085,1.68003 3.127526,2.05345 1.326299,0.55426 -3.386673,-2.81877 -3.912385,-3.03888 -7.167349,-3.00104 -4.716279,0.0547 -10.110123,0.88643 -15.853435,2.44381 -0.78157,0.21193 -1.985237,0.53129 -2.674803,0.71016 -0.689566,0.17888 -1.721996,0.63402 -2.293644,1.01153 -0.6798,0.44894 -1.16742,0.55699 -1.410674,0.31182 -0.506698,-0.51071 -0.08176,-1.48585 0.942919,-2.16256 0.911224,-0.60177 10.196244,-3.68734 11.095923,-3.68734 0.29838,0 0.427555,-0.18834 0.286428,-0.41848 -0.270042,-0.44039 -1.386214,-0.33274 -4.502911,0.43341 -1.391535,0.34205 -2.046823,0.35048 -2.552681,0.032 -0.374315,-0.23561 -0.882486,-0.42894 -1.129429,-0.42894 -0.246941,0 -0.760867,-0.28417 -1.142011,-0.63183 -0.653542,-0.59612 -0.692753,-0.57863 -0.692753,0.30882 0,1.25027 -0.99227,2.67462 -1.289294,1.85076 -0.748109,-2.07503 -1.545666,-7.1854 -1.549077,-9.93034 -0.0045,-3.45807 0.535428,-4.4762 1.078358,-2.03352 0.654878,2.94634 0.95051,2.99799 0.819316,0.14322 -0.116911,-2.54397 -0.234422,-2.9207 -1.110924,-3.56424 -0.903059,-0.66303 -1.275355,-1.75889 -0.770471,-2.26774 0.115347,-0.11626 1.266386,0.0906 2.557865,0.45951 1.29148,0.36894 3.07314,0.87156 3.95892,1.11747 0.956676,0.26559 1.610507,0.67361 1.610507,1.00481 0,0.38461 0.418982,0.55725 1.351467,0.55725 1.153725,0 1.318486,-0.10602 1.124244,-0.72285 -0.192594,-0.61162 0.0806,-0.7988 1.774816,-1.21891 1.101118,-0.27305 2.38866,-0.4505 2.861315,-0.39461 0.479443,0.0567 1.347291,-0.31199 1.962809,-0.83401 0.731419,-0.62031 1.806822,-1.02441 3.191407,-1.19877 2.595725,-0.32687 5.429537,-1.3538 7.747607,-2.80708 0.976384,-0.61213 2.305295,-1.32111 2.953091,-1.57549 0.647796,-0.254368 1.812423,-1.117126 2.58821,-1.917876 1.326813,-1.369515 1.456991,-1.727422 2.195206,-6.02222 0.513529,-2.98761 0.67813,-4.951221 0.475157,-5.681309 -0.275825,-0.992108 -0.347453,-0.84286 -0.643165,1.347974 -0.444856,3.295806 -2.21297,6.948805 -4.105464,8.481672 -0.823929,0.667353 -1.412006,1.299631 -1.307054,1.405399 0.104952,0.105793 0.639818,-0.223302 1.188634,-0.73179 0.593482,-0.549864 0.926152,-0.69374 0.820797,-0.355079 -0.09742,0.313168 -0.74851,0.90551 -1.44694,1.316642 -0.698434,0.411121 -1.143854,0.541828 -0.989545,0.290179 0.397891,-0.648889 0.17605,-0.583923 -1.800719,0.529632 -0.964132,0.543132 -1.75261,1.200645 -1.75261,1.460606 0,0.31267 -0.609359,0.46433 -1.799979,0.44833 -2.347821,-0.0315 -5.843637,0.9396 -4.801177,1.3338 0.627776,0.23738 0.545882,0.35218 -0.59876,0.83846 -1.872608,0.79556 -5.031468,1.10443 -4.789335,0.46847 0.142801,-0.37507 -0.831292,-0.48896 -4.287535,-0.50128 -2.459803,-0.009 -5.145004,-0.19822 -5.96761,-0.42148 -1.889734,-0.51287 -4.992088,-3.286784 -4.373388,-3.910375 0.440632,-0.444107 1.526148,-0.02237 4.070678,1.582945 1.870166,1.17986 6.851902,1.09079 12.694588,-0.227513 1.354721,-0.305667 2.880327,-0.648126 3.390506,-0.760898 1.554061,-0.343515 0.07925,-0.910444 -1.721527,-0.661661 -0.970779,0.1341 -1.669084,0.05451 -1.831064,-0.209631 -0.409579,-0.667941 -1.750493,-0.537134 -1.490609,0.145464 0.169281,0.444634 -0.09087,0.57291 -1.161992,0.57291 -0.759102,0 -1.776731,0.261988 -2.261076,0.581854 -1.076475,0.710905 -2.256817,0.352565 -2.007215,-0.609454 0.102416,-0.394752 -0.06868,-0.782414 -0.402627,-0.911573 -0.854805,-0.330607 -1.079787,0.101337 -0.521786,1.001828 0.764377,1.233634 -0.06166,1.825204 -1.437319,1.029434 -0.591109,-0.341916 -1.502179,-0.539352 -2.024976,-0.438618 -1.02694,0.197851 -2.551204,-0.439338 -2.551204,-1.066739 0,-0.212751 -0.435387,-0.765288 -0.967339,-1.227866 -0.961416,-0.836005 -1.803299,-3.310237 -1.352948,-3.976761 0.129591,-0.1918 0.824573,-0.51405 1.543897,-0.716129 l 1.307797,-0.367768 -0.885185,-0.831002 c -0.486964,-0.457574 -1.389595,-0.943347 -2.005733,-1.079738 -0.904268,-0.200177 -1.334087,-0.04163 -2.227772,0.82132 -0.971094,0.937718 -1.083212,1.267392 -0.914052,2.687719 0.106074,0.890635 0.620102,2.429462 1.14201,3.418784 0.521903,0.989322 0.948838,2.015282 0.948838,2.280422 0,1.134616 3.544269,3.414926 6.419829,4.130446 0.950153,0.23642 1.642183,0.60155 1.537974,0.81162 -0.362759,0.73123 -3.21942,0.33012 -5.405861,-0.75939 -2.173533,-1.08311 -3.579596,-2.71239 -5.345164,-6.195288 -0.853248,-1.683197 -1.836381,-6.123679 -1.554262,-7.019582 0.418824,-1.330019 2.074952,-2.963074 3.47858,-3.429969 1.286405,-0.427905 1.332624,-0.494434 0.67351,-0.980196 -0.388965,-0.286668 -1.159603,-0.52144 -1.711901,-0.52144 -0.930537,0 -3.395114,-0.657294 -5.047642,-1.346471 -0.157201,-0.06559 -0.278743,-0.10535 -0.371542,-0.105181 z m 6.864643,0.02387 c -0.09594,0.0042 -0.164147,0.02144 -0.195395,0.05297 -0.124979,0.125963 -0.0018,0.22901 0.273847,0.22901 0.275587,0 1.07112,0.438385 1.768156,0.974236 1.53996,1.183864 1.780035,2.836146 0.415208,2.86005 -0.733812,0.01283 -0.689189,0.08672 0.321954,0.530384 0.646169,0.283514 1.280333,0.792435 1.409193,1.130884 0.392092,1.029843 1.016188,0.688346 1.016188,-0.556486 0,-1.714448 -1.96267,-4.394272 -3.622902,-4.946521 -0.55865,-0.185829 -1.098445,-0.288024 -1.386249,-0.274516 z m 83.426671,0.414019 c -0.10647,-0.02397 -0.56606,0.155712 -1.11315,0.440856 -0.62526,0.325888 -1.13683,0.771684 -1.13683,0.990656 0,0.218972 0.51157,0.03101 1.13683,-0.417751 0.62525,-0.448729 1.13683,-0.894526 1.13683,-0.990645 0,-0.01198 -0.008,-0.01965 -0.0237,-0.02313 z m -88.863616,1.395698 c 0.702935,0 2.10935,0.845456 2.10935,1.268158 0,0.28774 -0.309572,0.80549 -0.687572,1.150278 -0.530152,0.483565 -0.79005,0.523331 -1.136829,0.173813 -0.416625,-0.419916 -0.655442,-2.592249 -0.284949,-2.592249 z m 93.604096,0.255125 c 0.64827,-0.0083 0.77787,0.176915 0.77787,0.859364 0,1.203898 -0.54273,1.330702 -1.66454,0.390146 -1.04879,-0.879336 -0.93284,-1.126773 0.57656,-1.235329 0.11494,-0.0083 0.21749,-0.01293 0.31011,-0.0142 z m -10.2544,0.274517 c -0.11998,0.0083 -0.34788,0.207177 -0.68832,0.586339 -0.4603,0.51263 -0.57821,1.010965 -0.38412,1.626211 0.25911,0.821407 0.31817,0.776342 0.79416,-0.607962 0.37853,-1.100966 0.47824,-1.618254 0.27828,-1.604588 z m -71.156168,1.511332 c -0.135889,-0.02303 -0.23166,0.06138 -0.23166,0.228264 0,0.222462 0.170524,0.404317 0.378943,0.404317 0.208419,0 0.378943,-0.07526 0.378943,-0.167844 0,-0.0926 -0.170524,-0.275231 -0.378943,-0.405062 -0.05211,-0.03248 -0.101989,-0.05204 -0.147283,-0.05971 z m 74.680638,1.209964 c -0.22578,0.01251 -0.42764,0.07274 -0.6232,0.178291 -0.39837,0.214883 -1.09855,0.390136 -1.55573,0.390136 -0.75754,0 -0.81003,0.135445 -0.58915,1.527748 0.14863,0.93673 0.0945,1.527747 -0.14062,1.527747 -0.21087,0 -0.38338,0.343738 -0.38338,0.763864 0,0.85888 0.39233,0.980156 1.04506,0.322261 0.33226,-0.334886 0.58014,-0.324058 1.02285,0.04625 0.73784,0.61718 0.75065,1.937531 0.0281,2.900331 -0.306,0.407765 -0.56178,0.884974 -0.56841,1.060022 -0.0136,0.36109 -0.0952,0.389814 2.50901,-0.891433 1.57229,-0.773556 2.02083,-1.216756 2.36247,-2.335625 0.85151,-2.788589 0.35711,-4.28621 -1.70153,-5.153162 -0.587,-0.247197 -1.02921,-0.35733 -1.4055,-0.336432 z m -0.29976,0.643029 c 0.33076,7.57e-4 0.69927,0.104278 1.08206,0.320759 0.56989,0.322324 1.09554,0.898877 1.16866,1.281582 0.19763,1.034321 -0.48145,1.526717 -1.08872,0.789228 -0.3526,-0.428211 -0.85112,-0.553952 -1.60089,-0.402814 -0.95032,0.191557 -1.07398,0.115968 -0.96882,-0.596031 0.13232,-0.89585 0.68003,-1.394006 1.40771,-1.392724 z m -74.312048,0.337179 c -0.05541,-0.01229 -0.160675,0.172287 -0.36414,0.543062 -0.230546,0.420126 -0.766155,1.150582 -1.190859,1.623226 -0.424705,0.472643 -0.571886,0.859364 -0.327134,0.859364 0.752849,0 1.960908,-1.480034 1.948745,-2.387112 -0.0056,-0.417119 -0.01122,-0.626263 -0.06661,-0.63854 z m 26.759889,1.256951 c -0.405098,-0.02565 -1.233908,0.778927 -1.38329,1.566537 -0.100811,0.531531 -0.04559,0.966027 0.122118,0.966027 0.416992,0 1.484687,-1.581483 1.484687,-2.199118 0,-0.224323 -0.08849,-0.3249 -0.223515,-0.333446 z m 20.506577,2.303553 c -0.0635,0.0021 0.11043,0.231051 0.52994,0.709422 0.50527,0.576175 1.16584,1.047337 1.46765,1.047337 0.44481,0 0.45933,0.108566 0.077,0.572905 -0.47156,0.572694 -0.15655,0.789912 2.652602,1.829871 0.96739,0.35814 1.89471,0.290861 1.89471,-0.138013 0,-0.225089 0.38368,-0.378447 0.85263,-0.340151 1.36018,0.111046 1.65154,1.04e-4 1.04209,-0.396864 -0.86555,-0.563772 -2.54473,-0.452135 -2.78731,0.185008 -0.39512,1.0378 -1.46814,0.204581 -1.29225,-1.003333 0.15696,-1.077905 -0.19899,-1.456782 -0.66093,-0.703452 -0.23775,0.387719 -1.810882,-0.316734 -3.406782,-1.526257 -0.20766,-0.157369 -0.33123,-0.237763 -0.36933,-0.23647 z m -84.302223,2.902573 c -0.220719,0 -0.401145,0.171866 -0.401145,0.381936 0,0.210068 0.07536,0.381936 0.167269,0.381936 0.09191,0 0.272335,-0.171868 0.401145,-0.381936 0.128811,-0.21007 0.05345,-0.381936 -0.167269,-0.381936 z m 80.503178,0.670623 1.610508,0.818334 c 0.885776,0.450213 1.610507,0.90108 1.610507,1.00184 0,0.575491 -1.51944,0.03482 -2.302522,-0.819078 l -0.918493,-1.001096 z m 19.481527,1.882092 c -0.74809,-0.0377 -2.2677,0.239844 -2.455,0.545291 -0.11457,0.186846 0.10034,0.337259 0.47738,0.334189 1.0107,-0.008 2.3906,-0.427113 2.3906,-0.726562 0,-0.09324 -0.16363,-0.140372 -0.41298,-0.152918 z m -93.16669,1.31811 c -0.107461,-0.0138 -0.204505,0.008 -0.272367,0.0762 -0.111211,0.11211 -0.08927,0.38691 0.04811,0.61095 0.30873,0.50349 0.962903,0.5366 0.962903,0.0485 0,-0.33797 -0.416265,-0.69424 -0.738643,-0.73552 z m 106.6458,0.25737 c 0.13255,-0.006 0.19688,0.0577 0.19688,0.18798 0,0.58135 -1.69126,2.26205 -2.9124,2.89438 -0.45522,0.23572 -2.28837,0.42818 -4.07363,0.42818 -2.63264,0 -3.24543,-0.10824 -3.24543,-0.57291 0,-0.44257 0.49567,-0.57362 2.17891,-0.57514 2.66752,-0.002 4.6886,-0.54033 6.60043,-1.75677 0.62337,-0.39663 1.03434,-0.59649 1.25524,-0.60572 z m -23.3198,0.83699 c 0.40454,0 0.84076,0.17188 0.96957,0.38193 0.13283,0.21664 -0.1857,0.38195 -0.73569,0.38195 -0.53334,0 -0.96956,-0.17187 -0.96956,-0.38195 0,-0.21005 0.33115,-0.38193 0.73568,-0.38193 z m -13.85584,0.38193 c -0.829892,0 -0.604989,0.75691 0.330836,1.11374 0.468943,0.17881 0.919586,0.26347 1.001388,0.18799 0.272547,-0.25145 -0.802344,-1.30173 -1.332224,-1.30173 z m -1.241925,0.77807 c -0.141156,0.006 -0.341252,0.0258 -0.60616,0.0545 -1.055129,0.11403 -1.145792,0.24574 -1.258209,1.8403 -0.177978,2.52455 -0.916548,3.16664 -3.275042,2.84586 -2.446517,-0.33273 -3.274246,-0.77023 -2.969374,-1.57101 0.201688,-0.52973 0.07052,-0.57589 -0.866686,-0.30286 -0.607419,0.17697 -1.658466,0.30082 -2.335827,0.27527 -0.836364,-0.0315 -1.231564,0.12917 -1.231564,0.4998 0,0.55498 -0.399186,0.69163 -1.639372,0.56097 -0.59488,-0.0626 -0.630838,0.0418 -0.255343,0.74896 0.247506,0.46613 0.666038,0.7336 0.965861,0.61766 0.290938,-0.11254 0.775375,0.14981 1.076138,0.58261 0.456778,0.65729 0.791808,0.74475 2.037557,0.53263 1.948491,-0.33181 3.826247,0.68065 4.751593,2.56165 0.646841,1.31488 0.649228,1.45905 0.04219,2.6534 -0.353073,0.69468 -1.047168,1.67601 -1.542416,2.18047 -0.495248,0.50449 -0.816224,1.00198 -0.713477,1.10554 0.10274,0.10353 1.04265,-0.71703 2.089366,-1.82315 1.604453,-1.69553 1.903598,-2.24031 1.903598,-3.47027 0,-0.8024 0.177678,-1.56976 0.395224,-1.70527 0.690673,-0.43025 1.499488,0.63077 1.499488,1.96712 0,0.70951 0.170525,1.28977 0.378943,1.28977 0.213762,0 0.378944,-1.08214 0.378944,-2.48258 0,-1.91643 0.125611,-2.48258 0.550649,-2.48258 0.715508,0 1.339192,2.29675 1.341844,4.94056 0.003,2.84619 -1.113187,5.05762 -3.235077,6.41086 -1.125094,0.71751 -1.593568,1.24719 -1.444718,1.63442 0.527187,1.3714 0.572937,1.90966 0.162089,1.90966 -0.568623,0 -4.543227,-4.24323 -4.561378,-4.86967 -0.0191,-0.65948 -0.747731,-0.60049 -1.007311,0.0812 -0.215198,0.56524 2.057858,3.5911 4.215002,5.61119 1.392952,1.30444 2.31573,1.35676 3.579232,0.2029 0.532452,-0.48624 1.97166,-1.18991 3.198075,-1.56355 3.055424,-0.9309 3.980132,-2.00415 3.890084,-4.51536 -0.06483,-1.80781 -0.169192,-2.00907 -1.389952,-2.68473 -1.986598,-1.09956 -2.36338,-1.6059 -2.458688,-3.30838 -0.105925,-1.89217 0.471807,-2.02346 2.573409,-0.58411 1.371671,0.93944 2.165599,0.97012 2.165599,0.0843 0,-0.6902 -1.199817,-1.82166 -1.931723,-1.82166 -1.137894,0 -3.373479,-1.54319 -3.373479,-2.32891 0,-0.39938 0.213155,-0.7331 0.473679,-0.74151 0.260523,-0.009 0.0047,-0.27219 -0.568414,-0.58558 -1.227075,-0.67096 -1.342447,-1.30147 -0.288649,-1.57923 0.904389,-0.23837 0.631879,-0.87575 -0.374501,-0.87575 -1.056494,0 -1.356048,-0.80155 -0.531407,-1.42182 0.504059,-0.37915 0.613678,-0.49031 0.190209,-0.4737 z m -31.91484,1.18086 c 0.206051,0.002 0.39869,0.0305 0.526965,0.0828 l 0,-7.6e-4 c 0.256557,0.10459 -0.04529,0.18458 -0.67055,0.17679 -0.625255,-0.008 -0.834978,-0.0933 -0.466277,-0.19021 0.184352,-0.0484 0.403812,-0.0712 0.609862,-0.0686 z m 35.442265,0.90335 c -0.09072,0.0122 -0.178531,0.0651 -0.267185,0.15443 -0.243558,0.24549 -0.02573,0.79008 0.630587,1.57622 1.017724,1.21906 1.024594,1.9 0.01925,1.9 -0.4695,0 -0.459437,0.14679 0.06588,0.95485 0.733709,1.12862 0.871422,1.15807 1.483206,0.31479 0.376536,-0.51901 0.321295,-0.97128 -0.290869,-2.3871 -0.800752,-1.852 -1.247734,-2.56602 -1.640853,-2.51319 z m 37.73963,0.57515 c -0.20843,0 -0.37895,0.24368 -0.37895,0.54158 0,0.29792 -0.10367,0.81354 -0.23018,1.14581 -0.15094,0.39645 -0.0207,0.60425 0.37895,0.60425 0.42398,0 0.60911,-0.34805 0.60911,-1.14584 0,-0.63018 -0.17053,-1.1458 -0.37893,-1.1458 z m -114.597697,0.82878 c -0.159088,0.009 -0.353137,0.0467 -0.578036,0.11861 -0.435568,0.13933 -0.693874,0.41302 -0.574337,0.60797 0.294552,0.48035 1.206842,0.44842 1.51429,-0.0529 0.276504,-0.45091 0.115338,-0.69893 -0.361917,-0.6736 z m 63.877051,0.32896 c 0.411495,-0.0288 0.720614,0.11872 0.607644,0.46549 -0.08554,0.26259 -0.64462,0.53534 -1.241929,0.60573 -0.953716,0.11237 -1.024681,0.0543 -0.586915,-0.47742 0.296084,-0.35957 0.809711,-0.565 1.2212,-0.5938 z m 48.996156,1.32859 c -0.11267,0.008 -0.0703,0.43761 0.0717,1.48224 0.22712,1.67013 0.16028,1.90492 -0.75641,2.65565 -0.75443,0.61787 -1.06437,1.30047 -1.24118,2.73323 -0.32861,2.6628 -2.77919,8.21164 -3.62662,8.21164 -0.64477,0 -1.68058,1.41159 -1.31001,1.78511 0.10462,0.10543 0.75753,0.49902 1.45139,0.87501 1.53184,0.83011 1.83032,0.89353 1.83032,0.38642 0,-0.21526 0.40233,-0.54559 0.89407,-0.73403 1.01704,-0.38975 1.70167,-2.63886 0.94662,-3.1092 -0.30548,-0.1903 -0.37107,-1.11976 -0.21316,-3.01821 0.26351,-3.16794 0.72515,-4.01223 1.85994,-3.40012 0.76059,0.41026 0.76246,0.44002 0.23757,3.57244 -0.0793,0.47289 0.11951,0.79978 0.53807,0.88697 0.55276,0.11513 0.66315,-0.14432 0.66315,-1.56132 0,-1.06616 0.218,-1.88268 0.58469,-2.18941 0.51479,-0.43062 0.43617,-0.64302 -0.65353,-1.77616 -1.07198,-1.11478 -1.17488,-1.38709 -0.77342,-2.035 0.63075,-1.01797 0.56322,-3.45769 -0.12064,-4.36915 -0.19147,-0.2552 -0.31505,-0.40132 -0.38265,-0.39611 z m -17.41214,2.47885 c -0.31264,0 -0.56842,0.24106 -0.56842,0.5356 0,0.29456 -0.47952,0.70409 -1.06577,0.91008 -0.96068,0.33755 -1.0499,0.51598 -0.90073,1.80377 0.091,0.78587 0.49174,1.75706 0.89036,2.15883 1.1625,1.17168 0.49877,1.58595 -2.07234,1.29276 l -2.2929,-0.26108 1.29965,1.52178 c 0.7147,0.83717 1.39199,1.53682 1.50542,1.55461 0.45405,0.0712 3.3942,-3.00269 3.3942,-3.54859 0,-0.32164 -0.18723,-0.9987 -0.41595,-1.50462 -0.32471,-0.71828 -0.28318,-1.17792 0.18946,-2.09915 0.7591,-1.4795 0.773,-2.36399 0.0371,-2.36399 z m -46.416816,0.63184 c -0.08755,0.0217 -0.187804,0.17703 -0.322696,0.42446 -0.344999,0.6328 -0.369066,1.23821 -0.0903,2.2558 0.455951,1.66437 0.284738,2.03502 -0.939215,2.03502 -0.508745,0 -0.925154,0.17186 -0.925154,0.38193 0,0.21006 0.170523,0.38195 0.378943,0.38195 0.866248,0 0.285207,0.84205 -0.935516,1.35616 -1.884081,0.79343 -2.853914,0.71798 -2.853914,-0.22229 0,-0.42673 0.228931,-0.86435 0.509204,-0.97276 0.326774,-0.12638 0.496719,-0.79073 0.473679,-1.85149 -0.03119,-1.43612 -0.20286,-1.76437 -1.303356,-2.49155 -0.697186,-0.46068 -1.314947,-0.78217 -1.372929,-0.71463 -0.285598,0.33271 0.599534,5.39986 1.120547,6.41533 0.327913,0.63913 1.144555,1.40489 1.815523,1.70081 0.670968,0.29594 1.348354,0.55204 1.504668,0.56918 0.359803,0.0394 1.799979,-1.39659 1.799979,-1.7948 0,-0.164 0.511574,-0.49317 1.136829,-0.73104 1.281673,-0.48761 1.300975,-0.63138 0.620963,-4.5094 -0.295041,-1.68258 -0.424681,-2.28045 -0.617261,-2.23268 z m 41.847296,0.8959 c -0.30033,0 -0.54621,0.35271 -0.54621,0.78328 0,1.20927 -1.02152,2.91651 -1.87992,3.14277 -0.42519,0.11207 -0.77269,0.39166 -0.77269,0.62138 0,0.22974 0.34105,0.41775 0.75789,0.41775 0.41684,0 0.75789,-0.21956 0.75789,-0.4886 0,-0.26905 0.51786,-0.68642 1.15089,-0.92726 0.96989,-0.36898 1.11373,-0.58636 0.91627,-1.37928 -0.13129,-0.52728 -0.0509,-1.05439 0.18207,-1.19951 0.52771,-0.32874 0.1534,-0.97053 -0.56619,-0.97053 z m -14.302882,1.66128 c -0.256798,-0.04 0.07192,0.32722 0.851879,1.15476 1.332512,1.41382 2.294383,1.78391 2.294383,0.88324 0,-0.27621 -0.639467,-0.82982 -1.421037,-1.23085 -0.971223,-0.49835 -1.525495,-0.77606 -1.725225,-0.80715 z m -33.651911,0.63034 c 0.186122,0 0.44231,0.27257 0.569154,0.60573 0.264275,0.69414 -0.248599,1.84115 -0.644646,1.44196 -0.383517,-0.38654 -0.322219,-2.04769 0.07549,-2.04769 z m -3.960397,0.38194 c -0.324936,0 -0.48555,0.17186 -0.35674,0.38195 0.12881,0.21006 0.394499,0.38192 0.590617,0.38192 0.196118,0 0.35674,-0.17186 0.35674,-0.38192 0,-0.21009 -0.265688,-0.38195 -0.590617,-0.38195 z m -10.485325,0.82504 c 0.524089,0.0275 0.732368,0.63647 1.027292,2.65938 0.280008,1.92061 -0.360478,3.20388 -1.319638,2.64448 -0.849921,-0.49571 -0.809195,-5.11518 0.04663,-5.28222 0.08892,-0.0174 0.170849,-0.0256 0.245717,-0.0217 z m 46.837944,0.70271 c 0.420031,0 2.855342,2.58186 2.640016,2.79889 -0.426054,0.42942 -0.702144,0.3014 -1.762972,-0.81462 -0.87194,-0.9173 -1.343838,-1.98427 -0.877044,-1.98427 z m -4.788597,0.0491 c -0.20677,0.0127 -1.15874,0.96023 -1.838462,1.92237 -0.42132,0.59632 -0.595505,1.0839 -0.387087,1.0839 0.344914,0 1.321321,-1.21628 2.146354,-2.67356 0.134456,-0.2375 0.148117,-0.33695 0.0792,-0.33271 z m -3.087053,3.52769 c -0.303613,-7.6e-4 -0.59084,0.33463 -0.396704,0.65123 0.119909,0.19555 0.378216,0.35509 0.574334,0.35509 0.407398,0 0.474273,-0.51712 0.113978,-0.88026 -0.08748,-0.0882 -0.190403,-0.12579 -0.291608,-0.12606 z m -7.94374,3.69256 c -0.235005,0.007 -0.09593,0.26449 0.308635,0.57291 0.944958,0.72038 1.189645,0.71479 0.590615,-0.0127 -0.259458,-0.3151 -0.664248,-0.5669 -0.89925,-0.56023 z m -10.177429,1.16817 c 0.762068,7.9e-4 1.224163,0.0914 1.224163,0.28498 0,0.23638 -0.468942,0.53447 -1.042094,0.66242 -0.573151,0.12794 -1.979976,0.48445 -3.126279,0.79296 -1.146302,0.30851 -2.936807,0.70633 -3.9789,0.88323 -2.827407,0.47996 -5.556415,1.20776 -6.707734,1.78958 -1.226714,0.61993 -2.197427,0.66899 -2.197427,0.11115 0,-0.64718 4.45706,-2.50755 8.158378,-3.40534 2.863398,-0.69458 5.993339,-1.12146 7.669893,-1.11898 z m 40.75857,0.31034 c 1.4945,-0.0295 3.80131,0.19248 6.40873,0.646 3.19036,0.55493 8.93785,2.94052 9.57053,3.9723 0.12945,0.21112 0.18282,0.36435 0.11842,0.3409 -0.0645,-0.0234 -1.05482,-0.44766 -2.20112,-0.94289 -1.1463,-0.49525 -2.38515,-0.90587 -2.75252,-0.91234 -0.36737,-0.007 -1.89814,-0.35567 -3.40235,-0.77581 -1.5042,-0.42013 -3.6766,-0.76495 -4.82707,-0.7661 -2.69317,-0.002 -5.17913,-0.66642 -4.6169,-1.23309 0.20145,-0.20305 0.80559,-0.31131 1.70228,-0.32897 z m -1.97687,2.46021 c 3.80531,-0.0252 8.17287,0.68598 10.13599,1.93504 1.48078,0.94216 2.03118,1.75228 1.19012,1.75228 -0.20842,0 -0.37895,0.17187 -0.37895,0.38194 0,0.21006 0.52368,0.38193 1.16422,0.38193 1.63479,0 1.34251,1.06822 -0.5995,2.19092 l -1.51207,0.87428 1.70524,-0.22977 c 0.93788,-0.12645 2.27065,-0.40398 2.96198,-0.61617 1.28507,-0.39443 1.82997,-0.25333 1.44545,0.37374 -0.36688,0.59833 -4.48197,1.89718 -6.80395,2.14764 -1.21378,0.13093 -2.80448,0.48986 -3.53482,0.79744 -0.73035,0.30758 -2.72128,0.73127 -4.42446,0.94216 l 0,7.5e-4 c -3.6262,0.44903 -10.030648,0.44615 -10.306956,-0.004 -0.315026,-0.51375 0.232057,-0.65448 3.653244,-0.93917 5.540442,-0.46104 4.806662,-0.96538 -1.369225,-0.94068 -3.12628,0.0125 -5.917532,0.0153 -6.202232,0.006 -0.978438,-0.0343 5.525534,-7.33938 7.273927,-8.16985 1.23792,-0.58802 3.318812,-0.86813 5.601992,-0.88325 z m -57.647437,3.31135 c 0.354865,-0.0368 0.855408,0.17277 1.000648,0.55426 0.391968,1.0295 -0.03456,1.49887 -0.727539,0.80042 -0.35543,-0.35824 -0.646129,-0.81051 -0.646129,-1.00558 0,-0.21582 0.160103,-0.327 0.37302,-0.3491 z m 16.821517,1.96786 c -0.284207,0.0106 -0.142104,0.0716 0.426311,0.31779 0.416837,0.18055 1.184197,0.32323 1.705243,0.31704 l 0.947357,-0.0112 -0.947357,-0.30584 c -0.521046,-0.16818 -1.288406,-0.31085 -1.705243,-0.31704 -0.189471,-0.002 -0.331575,-0.004 -0.426311,-7.5e-4 z m -15.1777,0.39611 c 0.0781,0.0105 0.190433,0.0837 0.32639,0.22082 0.246643,0.24858 0.360069,0.54121 0.252385,0.64974 -0.252903,0.25491 -0.700898,-0.19663 -0.700898,-0.70644 0,-0.11966 0.044,-0.17408 0.122123,-0.16412 z m 48.04138,0.0336 c -0.301117,0.0224 -0.583335,0.16061 -0.982885,0.42446 -0.522274,0.34492 -0.949578,0.70919 -0.949578,0.80938 0,0.33445 3.741362,0.18755 3.951521,-0.15517 0.11385,-0.18568 -0.301559,-0.54995 -0.92294,-0.80937 -0.475364,-0.19846 -0.795004,-0.29181 -1.096118,-0.2693 z m 5.275588,0.38342 c -0.17932,-0.002 -0.3843,0.0709 -0.63502,0.21784 -0.61336,0.35934 -0.56182,0.41127 0.41817,0.42147 0.815232,0.009 1.005142,-0.10291 0.700162,-0.41029 -0.14987,-0.15104 -0.303982,-0.22714 -0.483312,-0.22902 z m -41.502387,1.09733 c -1.108559,0.0109 -1.11327,0.0189 -0.189471,0.31703 0.521046,0.16819 1.373668,0.31085 1.894714,0.31706 0.861182,0.0104 0.878418,-0.0186 0.189472,-0.31706 -0.416838,-0.18053 -1.269459,-0.32323 -1.894715,-0.31703 z m 53.440579,0.44385 c -1.85793,0.0679 -8.64057,1.04742 -9.18049,1.37855 -0.51468,0.31567 0.0141,0.36453 2.16043,0.19842 2.54871,-0.19721 7.75373,-1.27241 7.48264,-1.54563 -0.0318,-0.032 -0.19716,-0.041 -0.46258,-0.0314 z"
     id="path4740"
     inkscape:connector-curvature="0" />
</svg>
