<?xml version="1.0" encoding="UTF-8" standalone="no"?>
<!-- Created with Inkscape (http://www.inkscape.org/) -->

<svg
   xmlns:dc="http://purl.org/dc/elements/1.1/"
   xmlns:cc="http://creativecommons.org/ns#"
   xmlns:rdf="http://www.w3.org/1999/02/22-rdf-syntax-ns#"
   xmlns:svg="http://www.w3.org/2000/svg"
   xmlns="http://www.w3.org/2000/svg"
   xmlns:sodipodi="http://sodipodi.sourceforge.net/DTD/sodipodi-0.dtd"
   xmlns:inkscape="http://www.inkscape.org/namespaces/inkscape"
   width="99.042992mm"
   height="185.24879mm"
   viewBox="0 0 350.93973 656.39337"
   id="svg2"
   version="1.1"
   inkscape:version="0.91 r13725"
   sodipodi:docname="Sular.svg">
  <defs
     id="defs4" />
  <sodipodi:namedview
     id="base"
     pagecolor="#ffffff"
     bordercolor="#666666"
     borderopacity="1.0"
     inkscape:pageopacity="0.0"
     inkscape:pageshadow="2"
     inkscape:zoom="0.175"
     inkscape:cx="-61.118432"
     inkscape:cy="336.63777"
     inkscape:document-units="px"
     inkscape:current-layer="layer1"
     showgrid="false"
     fit-margin-top="0"
     fit-margin-left="0"
     fit-margin-right="0"
     fit-margin-bottom="0" />
  <metadata
     id="metadata7">
    <rdf:RDF>
      <cc:Work
         rdf:about="">
        <dc:format>image/svg+xml</dc:format>
        <dc:type
           rdf:resource="http://purl.org/dc/dcmitype/StillImage" />
        <dc:title></dc:title>
      </cc:Work>
    </rdf:RDF>
  </metadata>
  <g
     inkscape:label="Layer 1"
     inkscape:groupmode="layer"
     id="layer1"
     transform="translate(-202.74776,-248.79248)">
    <path
       style="fill:#000000;fill-opacity:1;fill-rule:evenodd;stroke:#000000;stroke-width:10;stroke-linecap:butt;stroke-linejoin:round;stroke-miterlimit:4;stroke-dasharray:none;stroke-opacity:1"
       d="m 345.71428,253.79077 c 0,0 208.57144,230.00001 202.85715,432.85715 -3.45939,122.80843 -62.19362,188.28427 -83.31762,213.53808 -34.25597,-20.20305 -130.9681,-93.53808 -130.9681,-93.53808 0,0 62.85715,14.28571 105.71429,-80 42.85714,-94.28571 -94.28572,-472.85715 -94.28572,-472.85715 z"
       id="path4136"
       inkscape:connector-curvature="0"
       sodipodi:nodetypes="cscczc" />
    <path
       style="fill:#000000;fill-opacity:1;fill-rule:evenodd;stroke:#000000;stroke-width:10;stroke-linecap:butt;stroke-linejoin:round;stroke-miterlimit:4;stroke-dasharray:none;stroke-opacity:1"
       d="m 276.29934,564.68987 c -2.2961,16.47642 2.55172,31.26176 15.68431,45.49295 13.13259,14.23119 50.71725,16.72805 50.71725,16.72805 0,0 -27.37117,-0.97411 -45.60257,14.8612 -18.23141,15.83531 -19.48323,45.85894 -19.48323,45.85894 0,0 -8.16232,-31.43098 -21.73306,-44.22312 -13.57075,-12.79213 -48.13785,-16.87037 -48.13785,-16.87037 0,0 39.39627,-5.0631 52.06245,-19.14624 12.66616,-14.08315 16.4927,-42.70141 16.4927,-42.70141 z"
       id="path4152"
       inkscape:connector-curvature="0"
       sodipodi:nodetypes="czczczczc" />
  </g>
</svg>
