<?xml version="1.0" encoding="UTF-8" standalone="no"?>
<!-- Created with Inkscape (http://www.inkscape.org/) -->

<svg
   xmlns:dc="http://purl.org/dc/elements/1.1/"
   xmlns:cc="http://creativecommons.org/ns#"
   xmlns:rdf="http://www.w3.org/1999/02/22-rdf-syntax-ns#"
   xmlns:svg="http://www.w3.org/2000/svg"
   xmlns="http://www.w3.org/2000/svg"
   xmlns:sodipodi="http://sodipodi.sourceforge.net/DTD/sodipodi-0.dtd"
   xmlns:inkscape="http://www.inkscape.org/namespaces/inkscape"
   width="266.70001mm"
   height="270.93332mm"
   viewBox="0 0 945.00004 959.99995"
   id="svg2"
   version="1.1"
   inkscape:version="0.91 r13725"
   sodipodi:docname="Tusks.svg"
   inkscape:export-filename="/home/gereon/games/Empire-Marches/encyclopediaimperialis/encyclopedia/Tusks.png"
   inkscape:export-xdpi="200"
   inkscape:export-ydpi="200">
  <defs
     id="defs4" />
  <sodipodi:namedview
     id="base"
     pagecolor="#ffffff"
     bordercolor="#666666"
     borderopacity="1.0"
     inkscape:pageopacity="0.0"
     inkscape:pageshadow="2"
     inkscape:zoom="0.24748737"
     inkscape:cx="755.514"
     inkscape:cy="442.0305"
     inkscape:document-units="px"
     inkscape:current-layer="layer1"
     showgrid="false"
     fit-margin-top="0"
     fit-margin-left="0"
     fit-margin-right="0"
     fit-margin-bottom="0" />
  <metadata
     id="metadata7">
    <rdf:RDF>
      <cc:Work
         rdf:about="">
        <dc:format>image/svg+xml</dc:format>
        <dc:type
           rdf:resource="http://purl.org/dc/dcmitype/StillImage" />
        <dc:title></dc:title>
      </cc:Work>
    </rdf:RDF>
  </metadata>
  <g
     inkscape:label="Layer 1"
     inkscape:groupmode="layer"
     id="layer1"
     transform="translate(55.357143,53.352081)">
    <path
       style="fill:#ffffff;fill-opacity:1;fill-rule:evenodd;stroke:#000000;stroke-width:10;stroke-linecap:round;stroke-linejoin:round;stroke-miterlimit:4;stroke-dasharray:none;stroke-opacity:1"
       d="m 178.34806,576.839 c 17.87746,30.91676 40.92661,59.95192 68.72293,81.09942 44.76729,34.05907 97.24155,63.72512 151.02782,68.49471 61.83031,5.48289 124.39718,-17.03605 177.71711,-47.58355 33.90223,-19.42292 66.27909,-46.06074 91.13171,-77.151 23.57631,-29.49362 45.16576,-64.75764 53.72659,-102.88887 11.5974,-51.65651 0.32987,-109.33165 -15.93455,-161.01712 -13.06137,-41.5067 -34.15157,-82.43687 -63.64345,-113.60545 -24.20401,-25.5801 -56.8368,-40.7762 -87.98716,-54.9552 -26.22241,-11.93589 -53.87382,-22.27854 -81.90539,-24.73437 -48.38951,-4.23938 -97.01197,5.07155 -143.29511,17.75665 -25.93269,7.10755 -51.6907,16.95492 -73.91793,32.31531 -29.07071,20.08965 -51.57582,35.61909 -73.16484,64.39931 -17.8664,23.81762 -31.36797,60.78183 -38.94987,90.51545 -8.76683,34.3805 -13.06645,72.45341 -6.68486,108.2034 7.40728,41.4959 22.07374,82.69055 43.157,119.15131 z"
       id="path4147"
       inkscape:connector-curvature="0"
       sodipodi:nodetypes="ssssssssssssssss" />
    <path
       style="fill:none;fill-opacity:1;fill-rule:evenodd;stroke:#000000;stroke-width:10;stroke-linecap:round;stroke-linejoin:round;stroke-miterlimit:4;stroke-dasharray:none;stroke-opacity:1"
       d="m 43.214286,399.505 c -2.558338,35.70202 -1.010752,72.29034 7.142861,107.14286 9.629173,41.15978 26.420521,81.14028 48.57142,117.14286 18.756533,30.4856 43.232513,57.66556 70.000003,81.42857 30.02532,26.65518 64.14234,49.08055 100,67.14285 26.6337,13.41598 55.04064,24.16323 84.28572,30 44.89091,8.95939 91.7498,13.05347 137.14286,7.14286 41.66384,-5.42503 83.39379,-17.94883 120,-38.57143 41.76121,-23.52673 78.42698,-57.01886 108.57142,-94.28571 22.92104,-28.33674 38.75412,-62.10701 52.85715,-95.71429 12.88391,-30.70214 23.35766,-62.82913 28.57143,-95.71428 6.11625,-38.57739 9.03969,-78.57604 2.85714,-117.14286 C 796.25285,324.65088 779.49804,282.66407 758.92857,243.79072 744.58465,216.68276 726.26601,191.25423 704.64286,169.505 674.15725,138.84163 638.98737,111.78687 600.35715,92.362139 565.23116,74.699468 526.42491,63.613258 487.5,58.076429 c -38.18995,-5.432285 -77.53787,-4.098073 -115.71428,1.42857 -41.62479,6.025852 -83.62984,15.841465 -121.42857,34.28572 -31.84198,15.537601 -59.85424,38.637591 -85.71429,62.857141 -25.41003,23.79808 -49.03377,50.26654 -67.142863,80 -17.986713,29.53252 -29.690629,62.70809 -40,95.71428 -6.822056,21.8413 -12.65023,44.31945 -14.285711,67.14286 z"
       id="path4149"
       inkscape:connector-curvature="0"
       sodipodi:nodetypes="ssssssssssssssssssssss" />
    <path
       style="fill:#000000;fill-rule:evenodd;stroke:#000000;stroke-width:1px;stroke-linecap:round;stroke-linejoin:round;stroke-opacity:1;fill-opacity:1"
       d="m 648.92857,612.36214 10,-50 -207.14285,-80 -32.85715,28.57143 54.28572,71.42857 z"
       id="path5822"
       inkscape:connector-curvature="0" />
    <path
       style="color:#000000;clip-rule:nonzero;display:inline;overflow:visible;visibility:visible;opacity:1;isolation:auto;mix-blend-mode:normal;color-interpolation:sRGB;color-interpolation-filters:linearRGB;solid-color:#000000;solid-opacity:1;fill:#ffffff;fill-opacity:1;fill-rule:evenodd;stroke:#000000;stroke-width:10;stroke-linecap:round;stroke-linejoin:round;stroke-miterlimit:4;stroke-dasharray:none;stroke-dashoffset:0;stroke-opacity:1;color-rendering:auto;image-rendering:auto;shape-rendering:auto;text-rendering:auto;enable-background:accumulate"
       d="m 220.35715,226.64786 30,11.42857 L 238.92857,209.505 297.5,246.64786 280.35715,208.07643 341.78572,243.79072 333.21429,206.64786 377.5,259.505 l 30,-37.14286 0,57.14286 40,-37.14286 4.28572,54.28572 22.85714,-22.85714 -0.71429,41.42857 18.29199,-1.17213 -0.43484,33.31498 18.57143,-2.85714 0,27.85714 17.14285,0 0,27.14286 20.71429,-1.42857 5,21.42857 18.57143,2.85714 0,14.28572 18.57143,0 0,24.28571 32.85714,12.85715 0,24.28571 24.28571,0 0,12.85714 35.71429,0 30,-12.85714 24.28571,14.28571 -22.85714,48.57143 -5.71429,51.42857 L 577.5,536.64786 l -62.85714,0 -57.14286,-32.85714 -24.28571,7.14285"
       id="path5770" />
    <path
       style="color:#000000;clip-rule:nonzero;display:inline;overflow:visible;visibility:visible;opacity:1;isolation:auto;mix-blend-mode:normal;color-interpolation:sRGB;color-interpolation-filters:linearRGB;solid-color:#000000;solid-opacity:1;fill:#ffffff;fill-opacity:1;fill-rule:evenodd;stroke:#000000;stroke-width:10;stroke-linecap:round;stroke-linejoin:round;stroke-miterlimit:4;stroke-dasharray:none;stroke-dashoffset:0;stroke-opacity:1;color-rendering:auto;image-rendering:auto;shape-rendering:auto;text-rendering:auto;enable-background:accumulate"
       d="m 558.33222,563.18649 c 90.19868,-65.09978 92.03557,-113.04142 92.29836,-167.38402 0.26277,-54.34259 8.51208,-100.65513 50.40522,-134.01957 -22.64821,36.65341 -17.94133,59.05285 -18.27367,127.78025 -0.33233,68.7274 24.94628,151.96275 -76.41807,202.62385"
       id="path5754"
       inkscape:connector-curvature="0"
       sodipodi:nodetypes="cscsc" />
    <path
       style="color:#000000;clip-rule:nonzero;display:inline;overflow:visible;visibility:visible;opacity:1;isolation:auto;mix-blend-mode:normal;color-interpolation:sRGB;color-interpolation-filters:linearRGB;solid-color:#000000;solid-opacity:1;fill:#ffffff;fill-opacity:1;fill-rule:evenodd;stroke:#000000;stroke-width:9.99999905;stroke-linecap:round;stroke-linejoin:round;stroke-miterlimit:4;stroke-dasharray:none;stroke-dashoffset:0;stroke-opacity:1;color-rendering:auto;image-rendering:auto;shape-rendering:auto;text-rendering:auto;enable-background:accumulate"
       d="m 551.99031,575.09569 c 51.56053,-51.74676 55.59481,-103.26507 47.21511,-139.77239 -8.37971,-36.50734 -53.96567,-77.72729 -76.77654,-73.46451 0,0 51.33695,54.75925 39.30562,109.82308 -12.03133,55.06383 -59.74711,73.65927 -59.74711,73.65927"
       id="path5761"
       inkscape:connector-curvature="0"
       sodipodi:nodetypes="cscsc" />
    <path
       style="fill:none;fill-rule:evenodd;stroke:#000000;stroke-width:10;stroke-linecap:round;stroke-linejoin:round;stroke-opacity:1;color:#000000;clip-rule:nonzero;display:inline;overflow:visible;visibility:visible;opacity:1;isolation:auto;mix-blend-mode:normal;color-interpolation:sRGB;color-interpolation-filters:linearRGB;solid-color:#000000;solid-opacity:1;fill-opacity:1;stroke-miterlimit:4;stroke-dasharray:none;stroke-dashoffset:0;filter-blend-mode:normal;filter-gaussianBlur-deviation:0;color-rendering:auto;image-rendering:auto;shape-rendering:auto;text-rendering:auto;enable-background:accumulate"
       d="m 500.22676,401.57159 -12.12183,15.15228 -13.13198,-45.45686 -4.04061,6.06092 -10.10153,-19.1929 -5.05076,5.05076 -15.15229,-4.04061 0,6.06091 -21.2132,7.07107"
       id="path5772"
       inkscape:connector-curvature="0" />
    <path
       style="fill:#000000;fill-rule:evenodd;stroke:#000000;stroke-width:10;stroke-linecap:round;stroke-linejoin:round;stroke-opacity:1;color:#000000;clip-rule:nonzero;display:inline;overflow:visible;visibility:visible;opacity:1;isolation:auto;mix-blend-mode:normal;color-interpolation:sRGB;color-interpolation-filters:linearRGB;solid-color:#000000;solid-opacity:1;fill-opacity:1;stroke-miterlimit:4;stroke-dasharray:none;stroke-dashoffset:0;filter-blend-mode:normal;filter-gaussianBlur-deviation:0;color-rendering:auto;image-rendering:auto;shape-rendering:auto;text-rendering:auto;enable-background:accumulate"
       d="m 470.93234,413.69342 c 0,0 -32.32489,-40.4061 -39.39595,-22.22336 -7.07107,18.18275 6.06091,33.33503 39.39595,22.22336 z"
       id="path5788"
       inkscape:connector-curvature="0" />
    <path
       id="path5819"
       style="color:#000000;clip-rule:nonzero;display:inline;overflow:visible;visibility:visible;opacity:1;isolation:auto;mix-blend-mode:normal;color-interpolation:sRGB;color-interpolation-filters:linearRGB;solid-color:#000000;solid-opacity:1;fill:#ffffff;fill-opacity:1;fill-rule:evenodd;stroke:#000000;stroke-width:10;stroke-linecap:round;stroke-linejoin:round;stroke-miterlimit:4;stroke-dasharray:none;stroke-dashoffset:0;stroke-opacity:1;color-rendering:auto;image-rendering:auto;shape-rendering:auto;text-rendering:auto;enable-background:accumulate"
       d="m 433.21429,510.93357 30,41.42857 104.28571,-5.71428 37.14286,42.85714 47.14286,11.42857 22.85714,28.57143 -45.71429,28.57143 -31.23024,-13.48566 -0.58308,-8.13573 -35.52814,-2.84257 3.05575,-12.6789 -49.40594,-0.22631 -2.52434,-10.07921 -33.78401,1.73409 -65.71428,25.71429 L 287.5,602.36214 208.68815,616.76046"
       inkscape:connector-curvature="0"
       sodipodi:nodetypes="ccccccccccccccccc" />
    <path
       style="color:#000000;clip-rule:nonzero;display:inline;overflow:visible;visibility:visible;opacity:1;isolation:auto;mix-blend-mode:normal;color-interpolation:sRGB;color-interpolation-filters:linearRGB;solid-color:#000000;solid-opacity:1;fill:#ffffff;fill-opacity:1;fill-rule:evenodd;stroke:#000000;stroke-width:10;stroke-linecap:round;stroke-linejoin:round;stroke-miterlimit:4;stroke-dasharray:none;stroke-dashoffset:0;stroke-opacity:1;color-rendering:auto;image-rendering:auto;shape-rendering:auto;text-rendering:auto;enable-background:accumulate"
       d="m 515.23821,581.55378 c -24.04148,5.36004 -41.29198,57.1737 -41.29198,57.1737 l -16.55415,-4.4667 -40.48656,24.12016 -19.8951,-16.0801 -23.17378,17.86678 -23.83879,-16.08011 -25.0443,7.14672 -9.91377,-11.61341 -21.72411,3.57336 -7.30538,-26.80018 c 0,0 -13.94578,-19.65346 -17.84268,-41.98693 -6.54678,-37.52023 33.56047,-56.28036 33.56047,-56.28036"
       id="path5795"
       inkscape:connector-curvature="0"
       sodipodi:nodetypes="cccccccccccsc" />
    <path
       style="color:#000000;clip-rule:nonzero;display:inline;overflow:visible;visibility:visible;opacity:1;isolation:auto;mix-blend-mode:normal;color-interpolation:sRGB;color-interpolation-filters:linearRGB;solid-color:#000000;solid-opacity:1;fill:#ffffff;fill-opacity:1;fill-rule:evenodd;stroke:#000000;stroke-width:10;stroke-linecap:round;stroke-linejoin:round;stroke-miterlimit:4;stroke-dasharray:none;stroke-dashoffset:0;stroke-opacity:1;color-rendering:auto;image-rendering:auto;shape-rendering:auto;text-rendering:auto;enable-background:accumulate"
       d="m 338.81325,315.60709 c 38.22267,0 52.12182,-3.03045 62.54618,-36.36549 10.42436,-33.33503 60.22964,-60.60915 60.22964,-60.60915 l -8.10783,-7.07107 28.95656,-30.30457 -19.69046,0 23.16525,-23.23351 -4.63305,-12.12183 13.89915,-12.12183 -52.12182,4.04061 0,-10.10153 -47.48875,26.26397 -3.47479,-8.08122 -32.43135,66.67006 -6.94958,-21.2132 c 0,0 -4.63305,23.23351 0,59.599 4.63305,36.36549 13.89915,42.42641 13.89915,42.42641"
       id="path5810"
       inkscape:connector-curvature="0" />
    <path
       style="fill:#000000;fill-opacity:1;fill-rule:evenodd;stroke:#ffffff;stroke-width:10;stroke-linecap:round;stroke-linejoin:round;stroke-miterlimit:4;stroke-dasharray:none;stroke-opacity:1"
       d="m 454.75195,403.69649 -5.05076,-4.04061"
       id="path5832"
       inkscape:connector-curvature="0" />
    <path
       style="fill:none;fill-rule:evenodd;stroke:#000000;stroke-width:10;stroke-linecap:round;stroke-linejoin:round;stroke-miterlimit:4;stroke-dasharray:none;stroke-opacity:1"
       d="m 717.40955,518.74928 c -18.18274,4.54569 -10.70812,11.40139 -20.70812,32.82996 11.04989,-14.81557 10.65646,-18.01439 20.70812,-32.82996 z"
       id="path5834"
       inkscape:connector-curvature="0"
       sodipodi:nodetypes="ccc" />
  </g>
</svg>
